ISO-10303-21;
HEADER;
/* Generated by software containing ST-Developer
 * from STEP Tools, Inc. (www.steptools.com) 
 */

FILE_DESCRIPTION(
/* description */ (''),
/* implementation_level */ '2;1');

FILE_NAME(
/* name */ 'Belt Clip.step',
/* time_stamp */ '2026-05-05T23:24:57-07:00',
/* author */ (''),
/* organization */ (''),
/* preprocessor_version */ 'ST-DEVELOPER v20.1',
/* originating_system */ 'Autodesk Translation Framework v15.8.0.0',
/* authorisation */ '');

FILE_SCHEMA (('AUTOMOTIVE_DESIGN { 1 0 10303 214 3 1 1 }'));
ENDSEC;

DATA;
#10=MECHANICAL_DESIGN_GEOMETRIC_PRESENTATION_REPRESENTATION('',(#13),#425);
#11=SHAPE_REPRESENTATION_RELATIONSHIP('SRR','None',#432,#12);
#12=ADVANCED_BREP_SHAPE_REPRESENTATION('',(#14),#424);
#13=STYLED_ITEM('',(#441),#14);
#14=MANIFOLD_SOLID_BREP('Body1',#237);
#15=LINE('',#372,#29);
#16=LINE('',#381,#30);
#17=LINE('',#391,#31);
#18=LINE('',#395,#32);
#19=LINE('',#399,#33);
#20=LINE('',#401,#34);
#21=LINE('',#402,#35);
#22=LINE('',#409,#36);
#23=LINE('',#412,#37);
#24=LINE('',#413,#38);
#25=LINE('',#415,#39);
#26=LINE('',#417,#40);
#27=LINE('',#419,#41);
#28=LINE('',#420,#42);
#29=VECTOR('',#299,2.);
#30=VECTOR('',#310,2.);
#31=VECTOR('',#321,10.);
#32=VECTOR('',#324,10.);
#33=VECTOR('',#329,10.);
#34=VECTOR('',#330,10.);
#35=VECTOR('',#331,10.);
#36=VECTOR('',#338,10.);
#37=VECTOR('',#343,2.5);
#38=VECTOR('',#344,10.);
#39=VECTOR('',#347,1.1);
#40=VECTOR('',#350,1.1);
#41=VECTOR('',#353,2.5);
#42=VECTOR('',#354,10.);
#43=CYLINDRICAL_SURFACE('',#257,2.);
#44=CYLINDRICAL_SURFACE('',#262,2.);
#45=CYLINDRICAL_SURFACE('',#276,2.5);
#46=CYLINDRICAL_SURFACE('',#277,1.1);
#47=CYLINDRICAL_SURFACE('',#278,1.1);
#48=CYLINDRICAL_SURFACE('',#279,2.5);
#49=FACE_BOUND('',#70,.T.);
#50=FACE_BOUND('',#72,.T.);
#51=FACE_BOUND('',#75,.T.);
#52=FACE_BOUND('',#78,.T.);
#53=FACE_BOUND('',#82,.T.);
#54=FACE_BOUND('',#83,.T.);
#55=FACE_OUTER_BOUND('',#69,.T.);
#56=FACE_OUTER_BOUND('',#71,.T.);
#57=FACE_OUTER_BOUND('',#73,.T.);
#58=FACE_OUTER_BOUND('',#74,.T.);
#59=FACE_OUTER_BOUND('',#76,.T.);
#60=FACE_OUTER_BOUND('',#77,.T.);
#61=FACE_OUTER_BOUND('',#79,.T.);
#62=FACE_OUTER_BOUND('',#80,.T.);
#63=FACE_OUTER_BOUND('',#81,.T.);
#64=FACE_OUTER_BOUND('',#84,.T.);
#65=FACE_OUTER_BOUND('',#85,.T.);
#66=FACE_OUTER_BOUND('',#86,.T.);
#67=FACE_OUTER_BOUND('',#87,.T.);
#68=FACE_OUTER_BOUND('',#88,.T.);
#69=EDGE_LOOP('',(#155));
#70=EDGE_LOOP('',(#156));
#71=EDGE_LOOP('',(#157));
#72=EDGE_LOOP('',(#158));
#73=EDGE_LOOP('',(#159,#160,#161,#162));
#74=EDGE_LOOP('',(#163));
#75=EDGE_LOOP('',(#164));
#76=EDGE_LOOP('',(#165,#166,#167,#168));
#77=EDGE_LOOP('',(#169));
#78=EDGE_LOOP('',(#170));
#79=EDGE_LOOP('',(#171,#172,#173,#174,#175));
#80=EDGE_LOOP('',(#176,#177,#178,#179));
#81=EDGE_LOOP('',(#180,#181,#182,#183,#184));
#82=EDGE_LOOP('',(#185));
#83=EDGE_LOOP('',(#186));
#84=EDGE_LOOP('',(#187,#188,#189,#190,#191,#192,#193,#194));
#85=EDGE_LOOP('',(#195,#196,#197,#198));
#86=EDGE_LOOP('',(#199,#200,#201,#202));
#87=EDGE_LOOP('',(#203,#204,#205,#206,#207,#208,#209,#210));
#88=EDGE_LOOP('',(#211,#212,#213,#214));
#89=CIRCLE('',#252,2.5);
#90=CIRCLE('',#253,1.1);
#91=CIRCLE('',#255,2.5);
#92=CIRCLE('',#256,1.1);
#93=CIRCLE('',#258,2.);
#94=CIRCLE('',#259,2.);
#95=CIRCLE('',#261,1.1);
#96=CIRCLE('',#263,2.);
#97=CIRCLE('',#264,2.);
#98=CIRCLE('',#266,1.1);
#99=CIRCLE('',#268,2.5);
#100=CIRCLE('',#269,2.5);
#101=CIRCLE('',#270,2.5);
#102=CIRCLE('',#273,2.5);
#103=CIRCLE('',#274,2.5);
#104=CIRCLE('',#275,2.5);
#105=VERTEX_POINT('',#359);
#106=VERTEX_POINT('',#361);
#107=VERTEX_POINT('',#364);
#108=VERTEX_POINT('',#366);
#109=VERTEX_POINT('',#369);
#110=VERTEX_POINT('',#371);
#111=VERTEX_POINT('',#375);
#112=VERTEX_POINT('',#378);
#113=VERTEX_POINT('',#380);
#114=VERTEX_POINT('',#384);
#115=VERTEX_POINT('',#387);
#116=VERTEX_POINT('',#388);
#117=VERTEX_POINT('',#390);
#118=VERTEX_POINT('',#392);
#119=VERTEX_POINT('',#394);
#120=VERTEX_POINT('',#398);
#121=VERTEX_POINT('',#400);
#122=VERTEX_POINT('',#404);
#123=VERTEX_POINT('',#406);
#124=VERTEX_POINT('',#408);
#125=EDGE_CURVE('',#105,#105,#89,.T.);
#126=EDGE_CURVE('',#106,#106,#90,.T.);
#127=EDGE_CURVE('',#107,#107,#91,.T.);
#128=EDGE_CURVE('',#108,#108,#92,.T.);
#129=EDGE_CURVE('',#109,#109,#93,.T.);
#130=EDGE_CURVE('',#109,#110,#15,.T.);
#131=EDGE_CURVE('',#110,#110,#94,.T.);
#132=EDGE_CURVE('',#111,#111,#95,.T.);
#133=EDGE_CURVE('',#112,#112,#96,.T.);
#134=EDGE_CURVE('',#112,#113,#16,.T.);
#135=EDGE_CURVE('',#113,#113,#97,.T.);
#136=EDGE_CURVE('',#114,#114,#98,.T.);
#137=EDGE_CURVE('',#115,#116,#99,.T.);
#138=EDGE_CURVE('',#117,#115,#17,.T.);
#139=EDGE_CURVE('',#118,#117,#100,.T.);
#140=EDGE_CURVE('',#119,#118,#18,.T.);
#141=EDGE_CURVE('',#116,#119,#101,.T.);
#142=EDGE_CURVE('',#120,#115,#19,.T.);
#143=EDGE_CURVE('',#120,#121,#20,.T.);
#144=EDGE_CURVE('',#121,#117,#21,.T.);
#145=EDGE_CURVE('',#121,#122,#102,.T.);
#146=EDGE_CURVE('',#123,#120,#103,.T.);
#147=EDGE_CURVE('',#124,#123,#22,.T.);
#148=EDGE_CURVE('',#122,#124,#104,.T.);
#149=EDGE_CURVE('',#107,#122,#23,.T.);
#150=EDGE_CURVE('',#124,#118,#24,.T.);
#151=EDGE_CURVE('',#106,#111,#25,.T.);
#152=EDGE_CURVE('',#108,#114,#26,.T.);
#153=EDGE_CURVE('',#105,#116,#27,.T.);
#154=EDGE_CURVE('',#123,#119,#28,.T.);
#155=ORIENTED_EDGE('',*,*,#125,.T.);
#156=ORIENTED_EDGE('',*,*,#126,.T.);
#157=ORIENTED_EDGE('',*,*,#127,.T.);
#158=ORIENTED_EDGE('',*,*,#128,.T.);
#159=ORIENTED_EDGE('',*,*,#129,.F.);
#160=ORIENTED_EDGE('',*,*,#130,.T.);
#161=ORIENTED_EDGE('',*,*,#131,.T.);
#162=ORIENTED_EDGE('',*,*,#130,.F.);
#163=ORIENTED_EDGE('',*,*,#131,.F.);
#164=ORIENTED_EDGE('',*,*,#132,.F.);
#165=ORIENTED_EDGE('',*,*,#133,.F.);
#166=ORIENTED_EDGE('',*,*,#134,.T.);
#167=ORIENTED_EDGE('',*,*,#135,.T.);
#168=ORIENTED_EDGE('',*,*,#134,.F.);
#169=ORIENTED_EDGE('',*,*,#135,.F.);
#170=ORIENTED_EDGE('',*,*,#136,.F.);
#171=ORIENTED_EDGE('',*,*,#137,.F.);
#172=ORIENTED_EDGE('',*,*,#138,.F.);
#173=ORIENTED_EDGE('',*,*,#139,.F.);
#174=ORIENTED_EDGE('',*,*,#140,.F.);
#175=ORIENTED_EDGE('',*,*,#141,.F.);
#176=ORIENTED_EDGE('',*,*,#138,.T.);
#177=ORIENTED_EDGE('',*,*,#142,.F.);
#178=ORIENTED_EDGE('',*,*,#143,.T.);
#179=ORIENTED_EDGE('',*,*,#144,.T.);
#180=ORIENTED_EDGE('',*,*,#145,.F.);
#181=ORIENTED_EDGE('',*,*,#143,.F.);
#182=ORIENTED_EDGE('',*,*,#146,.F.);
#183=ORIENTED_EDGE('',*,*,#147,.F.);
#184=ORIENTED_EDGE('',*,*,#148,.F.);
#185=ORIENTED_EDGE('',*,*,#129,.T.);
#186=ORIENTED_EDGE('',*,*,#133,.T.);
#187=ORIENTED_EDGE('',*,*,#127,.F.);
#188=ORIENTED_EDGE('',*,*,#149,.T.);
#189=ORIENTED_EDGE('',*,*,#148,.T.);
#190=ORIENTED_EDGE('',*,*,#150,.T.);
#191=ORIENTED_EDGE('',*,*,#139,.T.);
#192=ORIENTED_EDGE('',*,*,#144,.F.);
#193=ORIENTED_EDGE('',*,*,#145,.T.);
#194=ORIENTED_EDGE('',*,*,#149,.F.);
#195=ORIENTED_EDGE('',*,*,#126,.F.);
#196=ORIENTED_EDGE('',*,*,#151,.T.);
#197=ORIENTED_EDGE('',*,*,#132,.T.);
#198=ORIENTED_EDGE('',*,*,#151,.F.);
#199=ORIENTED_EDGE('',*,*,#128,.F.);
#200=ORIENTED_EDGE('',*,*,#152,.T.);
#201=ORIENTED_EDGE('',*,*,#136,.T.);
#202=ORIENTED_EDGE('',*,*,#152,.F.);
#203=ORIENTED_EDGE('',*,*,#125,.F.);
#204=ORIENTED_EDGE('',*,*,#153,.T.);
#205=ORIENTED_EDGE('',*,*,#141,.T.);
#206=ORIENTED_EDGE('',*,*,#154,.F.);
#207=ORIENTED_EDGE('',*,*,#146,.T.);
#208=ORIENTED_EDGE('',*,*,#142,.T.);
#209=ORIENTED_EDGE('',*,*,#137,.T.);
#210=ORIENTED_EDGE('',*,*,#153,.F.);
#211=ORIENTED_EDGE('',*,*,#140,.T.);
#212=ORIENTED_EDGE('',*,*,#150,.F.);
#213=ORIENTED_EDGE('',*,*,#147,.T.);
#214=ORIENTED_EDGE('',*,*,#154,.T.);
#215=PLANE('',#251);
#216=PLANE('',#254);
#217=PLANE('',#260);
#218=PLANE('',#265);
#219=PLANE('',#267);
#220=PLANE('',#271);
#221=PLANE('',#272);
#222=PLANE('',#280);
#223=ADVANCED_FACE('',(#55,#49),#215,.T.);
#224=ADVANCED_FACE('',(#56,#50),#216,.T.);
#225=ADVANCED_FACE('',(#57),#43,.F.);
#226=ADVANCED_FACE('',(#58,#51),#217,.T.);
#227=ADVANCED_FACE('',(#59),#44,.F.);
#228=ADVANCED_FACE('',(#60,#52),#218,.T.);
#229=ADVANCED_FACE('',(#61),#219,.T.);
#230=ADVANCED_FACE('',(#62),#220,.T.);
#231=ADVANCED_FACE('',(#63,#53,#54),#221,.F.);
#232=ADVANCED_FACE('',(#64),#45,.T.);
#233=ADVANCED_FACE('',(#65),#46,.F.);
#234=ADVANCED_FACE('',(#66),#47,.F.);
#235=ADVANCED_FACE('',(#67),#48,.T.);
#236=ADVANCED_FACE('',(#68),#222,.T.);
#237=CLOSED_SHELL('',(#223,#224,#225,#226,#227,#228,#229,#230,#231,#232,
#233,#234,#235,#236));
#238=DERIVED_UNIT_ELEMENT(#240,1.);
#239=DERIVED_UNIT_ELEMENT(#427,-3.);
#240=(
MASS_UNIT()
NAMED_UNIT(*)
SI_UNIT(.KILO.,.GRAM.)
);
#241=DERIVED_UNIT((#238,#239));
#242=MEASURE_REPRESENTATION_ITEM('density measure',
POSITIVE_RATIO_MEASURE(1060.),#241);
#243=PROPERTY_DEFINITION_REPRESENTATION(#248,#245);
#244=PROPERTY_DEFINITION_REPRESENTATION(#249,#246);
#245=REPRESENTATION('material name',(#247),#424);
#246=REPRESENTATION('density',(#242),#424);
#247=DESCRIPTIVE_REPRESENTATION_ITEM('ABS Plastic','ABS Plastic');
#248=PROPERTY_DEFINITION('material property','material name',#434);
#249=PROPERTY_DEFINITION('material property','density of part',#434);
#250=AXIS2_PLACEMENT_3D('',#357,#281,#282);
#251=AXIS2_PLACEMENT_3D('',#358,#283,#284);
#252=AXIS2_PLACEMENT_3D('',#360,#285,#286);
#253=AXIS2_PLACEMENT_3D('',#362,#287,#288);
#254=AXIS2_PLACEMENT_3D('',#363,#289,#290);
#255=AXIS2_PLACEMENT_3D('',#365,#291,#292);
#256=AXIS2_PLACEMENT_3D('',#367,#293,#294);
#257=AXIS2_PLACEMENT_3D('',#368,#295,#296);
#258=AXIS2_PLACEMENT_3D('',#370,#297,#298);
#259=AXIS2_PLACEMENT_3D('',#373,#300,#301);
#260=AXIS2_PLACEMENT_3D('',#374,#302,#303);
#261=AXIS2_PLACEMENT_3D('',#376,#304,#305);
#262=AXIS2_PLACEMENT_3D('',#377,#306,#307);
#263=AXIS2_PLACEMENT_3D('',#379,#308,#309);
#264=AXIS2_PLACEMENT_3D('',#382,#311,#312);
#265=AXIS2_PLACEMENT_3D('',#383,#313,#314);
#266=AXIS2_PLACEMENT_3D('',#385,#315,#316);
#267=AXIS2_PLACEMENT_3D('',#386,#317,#318);
#268=AXIS2_PLACEMENT_3D('',#389,#319,#320);
#269=AXIS2_PLACEMENT_3D('',#393,#322,#323);
#270=AXIS2_PLACEMENT_3D('',#396,#325,#326);
#271=AXIS2_PLACEMENT_3D('',#397,#327,#328);
#272=AXIS2_PLACEMENT_3D('',#403,#332,#333);
#273=AXIS2_PLACEMENT_3D('',#405,#334,#335);
#274=AXIS2_PLACEMENT_3D('',#407,#336,#337);
#275=AXIS2_PLACEMENT_3D('',#410,#339,#340);
#276=AXIS2_PLACEMENT_3D('',#411,#341,#342);
#277=AXIS2_PLACEMENT_3D('',#414,#345,#346);
#278=AXIS2_PLACEMENT_3D('',#416,#348,#349);
#279=AXIS2_PLACEMENT_3D('',#418,#351,#352);
#280=AXIS2_PLACEMENT_3D('',#421,#355,#356);
#281=DIRECTION('axis',(0.,0.,1.));
#282=DIRECTION('refdir',(1.,0.,0.));
#283=DIRECTION('center_axis',(0.,0.,1.));
#284=DIRECTION('ref_axis',(1.,0.,0.));
#285=DIRECTION('center_axis',(0.,0.,1.));
#286=DIRECTION('ref_axis',(-1.,0.,0.));
#287=DIRECTION('center_axis',(0.,0.,-1.));
#288=DIRECTION('ref_axis',(1.,0.,0.));
#289=DIRECTION('center_axis',(0.,0.,1.));
#290=DIRECTION('ref_axis',(1.,0.,0.));
#291=DIRECTION('center_axis',(0.,0.,1.));
#292=DIRECTION('ref_axis',(1.,0.,0.));
#293=DIRECTION('center_axis',(0.,0.,-1.));
#294=DIRECTION('ref_axis',(1.,0.,0.));
#295=DIRECTION('center_axis',(0.,0.,1.));
#296=DIRECTION('ref_axis',(1.,0.,0.));
#297=DIRECTION('center_axis',(0.,0.,1.));
#298=DIRECTION('ref_axis',(1.,0.,0.));
#299=DIRECTION('',(0.,0.,1.));
#300=DIRECTION('center_axis',(0.,0.,1.));
#301=DIRECTION('ref_axis',(1.,0.,0.));
#302=DIRECTION('center_axis',(0.,0.,-1.));
#303=DIRECTION('ref_axis',(1.,0.,0.));
#304=DIRECTION('center_axis',(0.,0.,-1.));
#305=DIRECTION('ref_axis',(1.,0.,0.));
#306=DIRECTION('center_axis',(0.,0.,1.));
#307=DIRECTION('ref_axis',(1.,0.,0.));
#308=DIRECTION('center_axis',(0.,0.,1.));
#309=DIRECTION('ref_axis',(1.,0.,0.));
#310=DIRECTION('',(0.,0.,1.));
#311=DIRECTION('center_axis',(0.,0.,1.));
#312=DIRECTION('ref_axis',(1.,0.,0.));
#313=DIRECTION('center_axis',(0.,0.,-1.));
#314=DIRECTION('ref_axis',(1.,0.,0.));
#315=DIRECTION('center_axis',(0.,0.,-1.));
#316=DIRECTION('ref_axis',(1.,0.,0.));
#317=DIRECTION('center_axis',(0.,0.,1.));
#318=DIRECTION('ref_axis',(-1.,0.,0.));
#319=DIRECTION('center_axis',(0.,0.,1.));
#320=DIRECTION('ref_axis',(-1.,0.,0.));
#321=DIRECTION('',(1.,-9.49763007226263E-17,0.));
#322=DIRECTION('center_axis',(0.,0.,1.));
#323=DIRECTION('ref_axis',(-1.,0.,0.));
#324=DIRECTION('',(-1.,7.86466206361213E-16,0.));
#325=DIRECTION('center_axis',(0.,0.,1.));
#326=DIRECTION('ref_axis',(-1.,0.,0.));
#327=DIRECTION('center_axis',(9.49763007226263E-17,1.,0.));
#328=DIRECTION('ref_axis',(-1.,9.49763007226263E-17,0.));
#329=DIRECTION('',(0.,0.,1.));
#330=DIRECTION('',(-1.,9.49763007226263E-17,0.));
#331=DIRECTION('',(0.,0.,1.));
#332=DIRECTION('center_axis',(0.,0.,1.));
#333=DIRECTION('ref_axis',(1.,0.,0.));
#334=DIRECTION('center_axis',(0.,0.,1.));
#335=DIRECTION('ref_axis',(1.,0.,0.));
#336=DIRECTION('center_axis',(0.,0.,1.));
#337=DIRECTION('ref_axis',(1.,0.,0.));
#338=DIRECTION('',(1.,-7.86466206361213E-16,0.));
#339=DIRECTION('center_axis',(0.,0.,1.));
#340=DIRECTION('ref_axis',(1.,0.,0.));
#341=DIRECTION('center_axis',(0.,0.,1.));
#342=DIRECTION('ref_axis',(1.,0.,0.));
#343=DIRECTION('',(0.,0.,-1.));
#344=DIRECTION('',(0.,0.,1.));
#345=DIRECTION('center_axis',(0.,0.,1.));
#346=DIRECTION('ref_axis',(1.,0.,0.));
#347=DIRECTION('',(0.,0.,-1.));
#348=DIRECTION('center_axis',(0.,0.,1.));
#349=DIRECTION('ref_axis',(1.,0.,0.));
#350=DIRECTION('',(0.,0.,-1.));
#351=DIRECTION('center_axis',(0.,0.,1.));
#352=DIRECTION('ref_axis',(1.,0.,0.));
#353=DIRECTION('',(0.,0.,-1.));
#354=DIRECTION('',(0.,0.,1.));
#355=DIRECTION('center_axis',(-7.86466206361213E-16,-1.,0.));
#356=DIRECTION('ref_axis',(1.,-7.86466206361213E-16,0.));
#357=CARTESIAN_POINT('',(0.,0.,0.));
#358=CARTESIAN_POINT('Origin',(5.,-4.44089209850063E-15,6.5));
#359=CARTESIAN_POINT('',(7.5,-3.06161699786838E-16,6.5));
#360=CARTESIAN_POINT('Origin',(10.,0.,6.5));
#361=CARTESIAN_POINT('',(8.9,-1.34711147906209E-16,6.5));
#362=CARTESIAN_POINT('Origin',(10.,0.,6.5));
#363=CARTESIAN_POINT('Origin',(5.,-4.44089209850063E-15,6.5));
#364=CARTESIAN_POINT('',(-2.5,-3.06161699786838E-16,6.5));
#365=CARTESIAN_POINT('Origin',(0.,0.,6.5));
#366=CARTESIAN_POINT('',(-1.1,0.,6.5));
#367=CARTESIAN_POINT('Origin',(0.,0.,6.5));
#368=CARTESIAN_POINT('Origin',(10.,0.,0.5));
#369=CARTESIAN_POINT('',(8.,2.44929359829471E-16,0.5));
#370=CARTESIAN_POINT('Origin',(10.,0.,0.5));
#371=CARTESIAN_POINT('',(8.,2.44929359829471E-16,3.5));
#372=CARTESIAN_POINT('',(8.,-2.44929359829471E-16,0.5));
#373=CARTESIAN_POINT('Origin',(10.,0.,3.5));
#374=CARTESIAN_POINT('Origin',(10.,0.,3.5));
#375=CARTESIAN_POINT('',(8.9,1.34711147906209E-16,3.5));
#376=CARTESIAN_POINT('Origin',(10.,0.,3.5));
#377=CARTESIAN_POINT('Origin',(0.,0.,0.5));
#378=CARTESIAN_POINT('',(-2.,2.44929359829471E-16,0.5));
#379=CARTESIAN_POINT('Origin',(0.,0.,0.5));
#380=CARTESIAN_POINT('',(-2.,2.44929359829471E-16,3.5));
#381=CARTESIAN_POINT('',(-2.,-2.44929359829471E-16,0.5));
#382=CARTESIAN_POINT('Origin',(0.,0.,3.5));
#383=CARTESIAN_POINT('Origin',(0.,0.,3.5));
#384=CARTESIAN_POINT('',(-1.1,1.34711147906209E-16,3.5));
#385=CARTESIAN_POINT('Origin',(0.,0.,3.5));
#386=CARTESIAN_POINT('Origin',(5.,-4.9960036108132E-15,2.));
#387=CARTESIAN_POINT('',(10.,2.5,2.));
#388=CARTESIAN_POINT('',(7.5,-3.06161699786838E-16,2.));
#389=CARTESIAN_POINT('Origin',(10.,0.,2.));
#390=CARTESIAN_POINT('',(1.11022302462516E-15,2.5,2.));
#391=CARTESIAN_POINT('',(7.5,2.5,2.));
#392=CARTESIAN_POINT('',(0.,-2.5,2.));
#393=CARTESIAN_POINT('Origin',(0.,0.,2.));
#394=CARTESIAN_POINT('',(10.,-2.50000000000001,2.));
#395=CARTESIAN_POINT('',(2.5,-2.5,2.));
#396=CARTESIAN_POINT('Origin',(10.,0.,2.));
#397=CARTESIAN_POINT('Origin',(10.,2.5,0.));
#398=CARTESIAN_POINT('',(10.,2.5,0.5));
#399=CARTESIAN_POINT('',(10.,2.5,0.));
#400=CARTESIAN_POINT('',(2.77555756156289E-16,2.5,0.5));
#401=CARTESIAN_POINT('',(7.5,2.5,0.5));
#402=CARTESIAN_POINT('',(2.77555756156289E-16,2.5,0.));
#403=CARTESIAN_POINT('Origin',(5.,-4.44089209850063E-15,0.5));
#404=CARTESIAN_POINT('',(-2.5,-3.06161699786838E-16,0.5));
#405=CARTESIAN_POINT('Origin',(0.,0.,0.5));
#406=CARTESIAN_POINT('',(10.,-2.50000000000001,0.5));
#407=CARTESIAN_POINT('Origin',(10.,0.,0.5));
#408=CARTESIAN_POINT('',(2.77555756156289E-16,-2.5,0.5));
#409=CARTESIAN_POINT('',(2.5,-2.5,0.5));
#410=CARTESIAN_POINT('Origin',(0.,0.,0.5));
#411=CARTESIAN_POINT('Origin',(0.,0.,0.));
#412=CARTESIAN_POINT('',(-2.5,-3.06161699786838E-16,0.));
#413=CARTESIAN_POINT('',(2.77555756156289E-16,-2.5,0.));
#414=CARTESIAN_POINT('Origin',(10.,0.,0.));
#415=CARTESIAN_POINT('',(8.9,-1.34711147906209E-16,0.));
#416=CARTESIAN_POINT('Origin',(0.,0.,0.));
#417=CARTESIAN_POINT('',(-1.1,-1.34711147906209E-16,0.));
#418=CARTESIAN_POINT('Origin',(10.,0.,0.));
#419=CARTESIAN_POINT('',(7.5,-3.06161699786838E-16,0.));
#420=CARTESIAN_POINT('',(10.,-2.50000000000001,0.));
#421=CARTESIAN_POINT('Origin',(2.77555756156289E-16,-2.5,0.));
#422=UNCERTAINTY_MEASURE_WITH_UNIT(LENGTH_MEASURE(0.01),#426,
'DISTANCE_ACCURACY_VALUE',
'Maximum model space distance between geometric entities at asserted c
onnectivities');
#423=UNCERTAINTY_MEASURE_WITH_UNIT(LENGTH_MEASURE(0.01),#426,
'DISTANCE_ACCURACY_VALUE',
'Maximum model space distance between geometric entities at asserted c
onnectivities');
#424=(
GEOMETRIC_REPRESENTATION_CONTEXT(3)
GLOBAL_UNCERTAINTY_ASSIGNED_CONTEXT((#422))
GLOBAL_UNIT_ASSIGNED_CONTEXT((#426,#428,#429))
REPRESENTATION_CONTEXT('','3D')
);
#425=(
GEOMETRIC_REPRESENTATION_CONTEXT(3)
GLOBAL_UNCERTAINTY_ASSIGNED_CONTEXT((#423))
GLOBAL_UNIT_ASSIGNED_CONTEXT((#426,#428,#429))
REPRESENTATION_CONTEXT('','3D')
);
#426=(
LENGTH_UNIT()
NAMED_UNIT(*)
SI_UNIT(.MILLI.,.METRE.)
);
#427=(
LENGTH_UNIT()
NAMED_UNIT(*)
SI_UNIT($,.METRE.)
);
#428=(
NAMED_UNIT(*)
PLANE_ANGLE_UNIT()
SI_UNIT($,.RADIAN.)
);
#429=(
NAMED_UNIT(*)
SI_UNIT($,.STERADIAN.)
SOLID_ANGLE_UNIT()
);
#430=SHAPE_DEFINITION_REPRESENTATION(#431,#432);
#431=PRODUCT_DEFINITION_SHAPE('',$,#434);
#432=SHAPE_REPRESENTATION('',(#250),#424);
#433=PRODUCT_DEFINITION_CONTEXT('part definition',#438,'design');
#434=PRODUCT_DEFINITION('Belt Clip','Belt Clip v3',#435,#433);
#435=PRODUCT_DEFINITION_FORMATION('',$,#440);
#436=PRODUCT_RELATED_PRODUCT_CATEGORY('Belt Clip v3','Belt Clip v3',(#440));
#437=APPLICATION_PROTOCOL_DEFINITION('international standard',
'automotive_design',2009,#438);
#438=APPLICATION_CONTEXT(
'Core Data for Automotive Mechanical Design Process');
#439=PRODUCT_CONTEXT('part definition',#438,'mechanical');
#440=PRODUCT('Belt Clip','Belt Clip v3',$,(#439));
#441=PRESENTATION_STYLE_ASSIGNMENT((#442));
#442=SURFACE_STYLE_USAGE(.BOTH.,#443);
#443=SURFACE_SIDE_STYLE('',(#444));
#444=SURFACE_STYLE_FILL_AREA(#445);
#445=FILL_AREA_STYLE('ABS (White)',(#446));
#446=FILL_AREA_STYLE_COLOUR('ABS (White)',#447);
#447=COLOUR_RGB('ABS (White)',0.964705882352941,0.964705882352941,0.952941176470588);
ENDSEC;
END-ISO-10303-21;
