ISO-10303-21;
HEADER;
/* Generated by software containing ST-Developer
 * from STEP Tools, Inc. (www.steptools.com) 
 */

FILE_DESCRIPTION(
/* description */ (''),
/* implementation_level */ '2;1');

FILE_NAME(
/* name */ 'Ender3-V2_Bearing_ideler_Belt Tension.step',
/* time_stamp */ '2026-05-05T23:30:21-07:00',
/* author */ (''),
/* organization */ (''),
/* preprocessor_version */ 'ST-DEVELOPER v20.1',
/* originating_system */ 'Autodesk Translation Framework v15.8.0.0',
/* authorisation */ '');

FILE_SCHEMA (('AUTOMOTIVE_DESIGN { 1 0 10303 214 3 1 1 }'));
ENDSEC;

DATA;
#10=MECHANICAL_DESIGN_GEOMETRIC_PRESENTATION_REPRESENTATION('',(#13),#385);
#11=SHAPE_REPRESENTATION_RELATIONSHIP('SRR','None',#392,#12);
#12=ADVANCED_BREP_SHAPE_REPRESENTATION('',(#14),#384);
#13=STYLED_ITEM('',(#402),#14);
#14=MANIFOLD_SOLID_BREP('Body1',#209);
#15=FACE_BOUND('',#54,.T.);
#16=FACE_BOUND('',#56,.T.);
#17=FACE_BOUND('',#58,.T.);
#18=FACE_BOUND('',#60,.T.);
#19=FACE_BOUND('',#62,.T.);
#20=FACE_BOUND('',#64,.T.);
#21=FACE_BOUND('',#66,.T.);
#22=PLANE('',#247);
#23=PLANE('',#248);
#24=PLANE('',#249);
#25=PLANE('',#250);
#26=PLANE('',#251);
#27=PLANE('',#252);
#28=PLANE('',#253);
#29=CONICAL_SURFACE('',#227,6.49999999990314,0.785398163397448);
#30=FACE_OUTER_BOUND('',#45,.T.);
#31=FACE_OUTER_BOUND('',#46,.T.);
#32=FACE_OUTER_BOUND('',#47,.T.);
#33=FACE_OUTER_BOUND('',#48,.T.);
#34=FACE_OUTER_BOUND('',#49,.T.);
#35=FACE_OUTER_BOUND('',#50,.T.);
#36=FACE_OUTER_BOUND('',#51,.T.);
#37=FACE_OUTER_BOUND('',#52,.T.);
#38=FACE_OUTER_BOUND('',#53,.T.);
#39=FACE_OUTER_BOUND('',#55,.T.);
#40=FACE_OUTER_BOUND('',#57,.T.);
#41=FACE_OUTER_BOUND('',#59,.T.);
#42=FACE_OUTER_BOUND('',#61,.T.);
#43=FACE_OUTER_BOUND('',#63,.T.);
#44=FACE_OUTER_BOUND('',#65,.T.);
#45=EDGE_LOOP('',(#139,#140,#141,#142,#143));
#46=EDGE_LOOP('',(#144,#145,#146,#147,#148));
#47=EDGE_LOOP('',(#149,#150,#151,#152));
#48=EDGE_LOOP('',(#153,#154,#155,#156));
#49=EDGE_LOOP('',(#157,#158,#159,#160));
#50=EDGE_LOOP('',(#161,#162,#163,#164));
#51=EDGE_LOOP('',(#165,#166,#167,#168));
#52=EDGE_LOOP('',(#169,#170,#171,#172));
#53=EDGE_LOOP('',(#173));
#54=EDGE_LOOP('',(#174));
#55=EDGE_LOOP('',(#175));
#56=EDGE_LOOP('',(#176));
#57=EDGE_LOOP('',(#177));
#58=EDGE_LOOP('',(#178));
#59=EDGE_LOOP('',(#179));
#60=EDGE_LOOP('',(#180));
#61=EDGE_LOOP('',(#181));
#62=EDGE_LOOP('',(#182));
#63=EDGE_LOOP('',(#183));
#64=EDGE_LOOP('',(#184));
#65=EDGE_LOOP('',(#185));
#66=EDGE_LOOP('',(#186));
#67=LINE('',#332,#75);
#68=LINE('',#337,#76);
#69=LINE('',#343,#77);
#70=LINE('',#349,#78);
#71=LINE('',#355,#79);
#72=LINE('',#361,#80);
#73=LINE('',#367,#81);
#74=LINE('',#373,#82);
#75=VECTOR('',#260,6.5);
#76=VECTOR('',#267,6.49999999990314);
#77=VECTOR('',#274,7.5);
#78=VECTOR('',#281,5.15);
#79=VECTOR('',#288,5.15);
#80=VECTOR('',#295,3.);
#81=VECTOR('',#302,3.);
#82=VECTOR('',#309,2.);
#83=CIRCLE('',#224,6.5);
#84=CIRCLE('',#225,6.5);
#85=CIRCLE('',#226,6.5);
#86=CIRCLE('',#228,6.29999999995334);
#87=CIRCLE('',#230,7.5);
#88=CIRCLE('',#231,7.5);
#89=CIRCLE('',#233,5.15);
#90=CIRCLE('',#234,5.15);
#91=CIRCLE('',#236,5.15);
#92=CIRCLE('',#237,5.15);
#93=CIRCLE('',#239,3.);
#94=CIRCLE('',#240,3.);
#95=CIRCLE('',#242,3.);
#96=CIRCLE('',#243,3.);
#97=CIRCLE('',#245,2.);
#98=CIRCLE('',#246,2.);
#99=VERTEX_POINT('',#328);
#100=VERTEX_POINT('',#329);
#101=VERTEX_POINT('',#331);
#102=VERTEX_POINT('',#336);
#103=VERTEX_POINT('',#340);
#104=VERTEX_POINT('',#342);
#105=VERTEX_POINT('',#346);
#106=VERTEX_POINT('',#348);
#107=VERTEX_POINT('',#352);
#108=VERTEX_POINT('',#354);
#109=VERTEX_POINT('',#358);
#110=VERTEX_POINT('',#360);
#111=VERTEX_POINT('',#364);
#112=VERTEX_POINT('',#366);
#113=VERTEX_POINT('',#370);
#114=VERTEX_POINT('',#372);
#115=EDGE_CURVE('',#99,#100,#83,.T.);
#116=EDGE_CURVE('',#100,#101,#67,.T.);
#117=EDGE_CURVE('',#101,#101,#84,.T.);
#118=EDGE_CURVE('',#100,#99,#85,.T.);
#119=EDGE_CURVE('',#99,#102,#68,.T.);
#120=EDGE_CURVE('',#102,#102,#86,.T.);
#121=EDGE_CURVE('',#103,#103,#87,.T.);
#122=EDGE_CURVE('',#103,#104,#69,.T.);
#123=EDGE_CURVE('',#104,#104,#88,.T.);
#124=EDGE_CURVE('',#105,#105,#89,.T.);
#125=EDGE_CURVE('',#105,#106,#70,.T.);
#126=EDGE_CURVE('',#106,#106,#90,.T.);
#127=EDGE_CURVE('',#107,#107,#91,.T.);
#128=EDGE_CURVE('',#107,#108,#71,.T.);
#129=EDGE_CURVE('',#108,#108,#92,.T.);
#130=EDGE_CURVE('',#109,#109,#93,.T.);
#131=EDGE_CURVE('',#109,#110,#72,.T.);
#132=EDGE_CURVE('',#110,#110,#94,.T.);
#133=EDGE_CURVE('',#111,#111,#95,.T.);
#134=EDGE_CURVE('',#111,#112,#73,.T.);
#135=EDGE_CURVE('',#112,#112,#96,.T.);
#136=EDGE_CURVE('',#113,#113,#97,.T.);
#137=EDGE_CURVE('',#113,#114,#74,.T.);
#138=EDGE_CURVE('',#114,#114,#98,.T.);
#139=ORIENTED_EDGE('',*,*,#115,.T.);
#140=ORIENTED_EDGE('',*,*,#116,.T.);
#141=ORIENTED_EDGE('',*,*,#117,.T.);
#142=ORIENTED_EDGE('',*,*,#116,.F.);
#143=ORIENTED_EDGE('',*,*,#118,.T.);
#144=ORIENTED_EDGE('',*,*,#115,.F.);
#145=ORIENTED_EDGE('',*,*,#119,.T.);
#146=ORIENTED_EDGE('',*,*,#120,.T.);
#147=ORIENTED_EDGE('',*,*,#119,.F.);
#148=ORIENTED_EDGE('',*,*,#118,.F.);
#149=ORIENTED_EDGE('',*,*,#121,.F.);
#150=ORIENTED_EDGE('',*,*,#122,.T.);
#151=ORIENTED_EDGE('',*,*,#123,.T.);
#152=ORIENTED_EDGE('',*,*,#122,.F.);
#153=ORIENTED_EDGE('',*,*,#124,.F.);
#154=ORIENTED_EDGE('',*,*,#125,.T.);
#155=ORIENTED_EDGE('',*,*,#126,.F.);
#156=ORIENTED_EDGE('',*,*,#125,.F.);
#157=ORIENTED_EDGE('',*,*,#127,.T.);
#158=ORIENTED_EDGE('',*,*,#128,.T.);
#159=ORIENTED_EDGE('',*,*,#129,.F.);
#160=ORIENTED_EDGE('',*,*,#128,.F.);
#161=ORIENTED_EDGE('',*,*,#130,.T.);
#162=ORIENTED_EDGE('',*,*,#131,.T.);
#163=ORIENTED_EDGE('',*,*,#132,.T.);
#164=ORIENTED_EDGE('',*,*,#131,.F.);
#165=ORIENTED_EDGE('',*,*,#133,.F.);
#166=ORIENTED_EDGE('',*,*,#134,.T.);
#167=ORIENTED_EDGE('',*,*,#135,.T.);
#168=ORIENTED_EDGE('',*,*,#134,.F.);
#169=ORIENTED_EDGE('',*,*,#136,.F.);
#170=ORIENTED_EDGE('',*,*,#137,.T.);
#171=ORIENTED_EDGE('',*,*,#138,.T.);
#172=ORIENTED_EDGE('',*,*,#137,.F.);
#173=ORIENTED_EDGE('',*,*,#121,.T.);
#174=ORIENTED_EDGE('',*,*,#117,.F.);
#175=ORIENTED_EDGE('',*,*,#120,.F.);
#176=ORIENTED_EDGE('',*,*,#126,.T.);
#177=ORIENTED_EDGE('',*,*,#123,.F.);
#178=ORIENTED_EDGE('',*,*,#127,.F.);
#179=ORIENTED_EDGE('',*,*,#124,.T.);
#180=ORIENTED_EDGE('',*,*,#132,.F.);
#181=ORIENTED_EDGE('',*,*,#129,.T.);
#182=ORIENTED_EDGE('',*,*,#133,.T.);
#183=ORIENTED_EDGE('',*,*,#130,.F.);
#184=ORIENTED_EDGE('',*,*,#136,.T.);
#185=ORIENTED_EDGE('',*,*,#135,.F.);
#186=ORIENTED_EDGE('',*,*,#138,.F.);
#187=CYLINDRICAL_SURFACE('',#223,6.5);
#188=CYLINDRICAL_SURFACE('',#229,7.5);
#189=CYLINDRICAL_SURFACE('',#232,5.15);
#190=CYLINDRICAL_SURFACE('',#235,5.15);
#191=CYLINDRICAL_SURFACE('',#238,3.);
#192=CYLINDRICAL_SURFACE('',#241,3.);
#193=CYLINDRICAL_SURFACE('',#244,2.);
#194=ADVANCED_FACE('',(#30),#187,.T.);
#195=ADVANCED_FACE('',(#31),#29,.T.);
#196=ADVANCED_FACE('',(#32),#188,.T.);
#197=ADVANCED_FACE('',(#33),#189,.F.);
#198=ADVANCED_FACE('',(#34),#190,.F.);
#199=ADVANCED_FACE('',(#35),#191,.T.);
#200=ADVANCED_FACE('',(#36),#192,.T.);
#201=ADVANCED_FACE('',(#37),#193,.F.);
#202=ADVANCED_FACE('',(#38,#15),#22,.T.);
#203=ADVANCED_FACE('',(#39,#16),#23,.T.);
#204=ADVANCED_FACE('',(#40,#17),#24,.F.);
#205=ADVANCED_FACE('',(#41,#18),#25,.F.);
#206=ADVANCED_FACE('',(#42,#19),#26,.T.);
#207=ADVANCED_FACE('',(#43,#20),#27,.T.);
#208=ADVANCED_FACE('',(#44,#21),#28,.F.);
#209=CLOSED_SHELL('',(#194,#195,#196,#197,#198,#199,#200,#201,#202,#203,
#204,#205,#206,#207,#208));
#210=DERIVED_UNIT_ELEMENT(#212,1.);
#211=DERIVED_UNIT_ELEMENT(#387,-3.);
#212=(
MASS_UNIT()
NAMED_UNIT(*)
SI_UNIT(.KILO.,.GRAM.)
);
#213=DERIVED_UNIT((#210,#211));
#214=MEASURE_REPRESENTATION_ITEM('density measure',
POSITIVE_RATIO_MEASURE(7850.),#213);
#215=PROPERTY_DEFINITION_REPRESENTATION(#220,#217);
#216=PROPERTY_DEFINITION_REPRESENTATION(#221,#218);
#217=REPRESENTATION('material name',(#219),#384);
#218=REPRESENTATION('density',(#214),#384);
#219=DESCRIPTIVE_REPRESENTATION_ITEM('Steel','Steel');
#220=PROPERTY_DEFINITION('material property','material name',#394);
#221=PROPERTY_DEFINITION('material property','density of part',#394);
#222=AXIS2_PLACEMENT_3D('',#326,#254,#255);
#223=AXIS2_PLACEMENT_3D('',#327,#256,#257);
#224=AXIS2_PLACEMENT_3D('',#330,#258,#259);
#225=AXIS2_PLACEMENT_3D('',#333,#261,#262);
#226=AXIS2_PLACEMENT_3D('',#334,#263,#264);
#227=AXIS2_PLACEMENT_3D('',#335,#265,#266);
#228=AXIS2_PLACEMENT_3D('',#338,#268,#269);
#229=AXIS2_PLACEMENT_3D('',#339,#270,#271);
#230=AXIS2_PLACEMENT_3D('',#341,#272,#273);
#231=AXIS2_PLACEMENT_3D('',#344,#275,#276);
#232=AXIS2_PLACEMENT_3D('',#345,#277,#278);
#233=AXIS2_PLACEMENT_3D('',#347,#279,#280);
#234=AXIS2_PLACEMENT_3D('',#350,#282,#283);
#235=AXIS2_PLACEMENT_3D('',#351,#284,#285);
#236=AXIS2_PLACEMENT_3D('',#353,#286,#287);
#237=AXIS2_PLACEMENT_3D('',#356,#289,#290);
#238=AXIS2_PLACEMENT_3D('',#357,#291,#292);
#239=AXIS2_PLACEMENT_3D('',#359,#293,#294);
#240=AXIS2_PLACEMENT_3D('',#362,#296,#297);
#241=AXIS2_PLACEMENT_3D('',#363,#298,#299);
#242=AXIS2_PLACEMENT_3D('',#365,#300,#301);
#243=AXIS2_PLACEMENT_3D('',#368,#303,#304);
#244=AXIS2_PLACEMENT_3D('',#369,#305,#306);
#245=AXIS2_PLACEMENT_3D('',#371,#307,#308);
#246=AXIS2_PLACEMENT_3D('',#374,#310,#311);
#247=AXIS2_PLACEMENT_3D('',#375,#312,#313);
#248=AXIS2_PLACEMENT_3D('',#376,#314,#315);
#249=AXIS2_PLACEMENT_3D('',#377,#316,#317);
#250=AXIS2_PLACEMENT_3D('',#378,#318,#319);
#251=AXIS2_PLACEMENT_3D('',#379,#320,#321);
#252=AXIS2_PLACEMENT_3D('',#380,#322,#323);
#253=AXIS2_PLACEMENT_3D('',#381,#324,#325);
#254=DIRECTION('axis',(0.,0.,1.));
#255=DIRECTION('refdir',(1.,0.,0.));
#256=DIRECTION('center_axis',(0.,0.,1.));
#257=DIRECTION('ref_axis',(1.,0.,0.));
#258=DIRECTION('center_axis',(0.,0.,-1.));
#259=DIRECTION('ref_axis',(1.,0.,0.));
#260=DIRECTION('',(0.,0.,-1.));
#261=DIRECTION('center_axis',(0.,0.,1.));
#262=DIRECTION('ref_axis',(1.,0.,0.));
#263=DIRECTION('center_axis',(0.,0.,-1.));
#264=DIRECTION('ref_axis',(1.,0.,0.));
#265=DIRECTION('center_axis',(0.,0.,-1.));
#266=DIRECTION('ref_axis',(-1.,0.,0.));
#267=DIRECTION('',(-0.707106781186547,8.65956056235493E-17,0.707106781186548));
#268=DIRECTION('center_axis',(0.,0.,-1.));
#269=DIRECTION('ref_axis',(-1.,0.,0.));
#270=DIRECTION('center_axis',(0.,0.,1.));
#271=DIRECTION('ref_axis',(1.,0.,0.));
#272=DIRECTION('center_axis',(0.,0.,1.));
#273=DIRECTION('ref_axis',(1.,0.,0.));
#274=DIRECTION('',(0.,0.,-1.));
#275=DIRECTION('center_axis',(0.,0.,1.));
#276=DIRECTION('ref_axis',(1.,0.,0.));
#277=DIRECTION('center_axis',(0.,0.,1.));
#278=DIRECTION('ref_axis',(1.,0.,0.));
#279=DIRECTION('center_axis',(0.,0.,1.));
#280=DIRECTION('ref_axis',(1.,0.,0.));
#281=DIRECTION('',(0.,0.,1.));
#282=DIRECTION('center_axis',(0.,0.,-1.));
#283=DIRECTION('ref_axis',(1.,0.,0.));
#284=DIRECTION('center_axis',(0.,0.,1.));
#285=DIRECTION('ref_axis',(1.,0.,0.));
#286=DIRECTION('center_axis',(0.,0.,-1.));
#287=DIRECTION('ref_axis',(1.,0.,0.));
#288=DIRECTION('',(0.,0.,1.));
#289=DIRECTION('center_axis',(0.,0.,-1.));
#290=DIRECTION('ref_axis',(1.,0.,0.));
#291=DIRECTION('center_axis',(0.,0.,1.));
#292=DIRECTION('ref_axis',(1.,0.,0.));
#293=DIRECTION('center_axis',(0.,0.,-1.));
#294=DIRECTION('ref_axis',(1.,0.,0.));
#295=DIRECTION('',(0.,0.,-1.));
#296=DIRECTION('center_axis',(0.,0.,1.));
#297=DIRECTION('ref_axis',(1.,0.,0.));
#298=DIRECTION('center_axis',(0.,0.,1.));
#299=DIRECTION('ref_axis',(1.,0.,0.));
#300=DIRECTION('center_axis',(0.,0.,1.));
#301=DIRECTION('ref_axis',(1.,0.,0.));
#302=DIRECTION('',(0.,0.,-1.));
#303=DIRECTION('center_axis',(0.,0.,1.));
#304=DIRECTION('ref_axis',(1.,0.,0.));
#305=DIRECTION('center_axis',(0.,0.,-1.));
#306=DIRECTION('ref_axis',(-1.,0.,0.));
#307=DIRECTION('center_axis',(0.,0.,-1.));
#308=DIRECTION('ref_axis',(-1.,0.,0.));
#309=DIRECTION('',(0.,0.,-1.));
#310=DIRECTION('center_axis',(0.,0.,-1.));
#311=DIRECTION('ref_axis',(-1.,0.,0.));
#312=DIRECTION('center_axis',(0.,0.,1.));
#313=DIRECTION('ref_axis',(1.,0.,0.));
#314=DIRECTION('center_axis',(0.,0.,1.));
#315=DIRECTION('ref_axis',(1.,0.,0.));
#316=DIRECTION('center_axis',(0.,0.,1.));
#317=DIRECTION('ref_axis',(1.,0.,0.));
#318=DIRECTION('center_axis',(0.,0.,-1.));
#319=DIRECTION('ref_axis',(-1.,0.,0.));
#320=DIRECTION('center_axis',(0.,0.,-1.));
#321=DIRECTION('ref_axis',(-1.,0.,0.));
#322=DIRECTION('center_axis',(0.,0.,1.));
#323=DIRECTION('ref_axis',(1.,0.,0.));
#324=DIRECTION('center_axis',(0.,0.,1.));
#325=DIRECTION('ref_axis',(1.,0.,0.));
#326=CARTESIAN_POINT('',(0.,0.,0.));
#327=CARTESIAN_POINT('Origin',(0.,0.,1.));
#328=CARTESIAN_POINT('',(6.49999999990436,7.96020419434067E-16,4.66));
#329=CARTESIAN_POINT('',(-6.5,-7.9602041944578E-16,4.66));
#330=CARTESIAN_POINT('Origin',(0.,0.,4.66));
#331=CARTESIAN_POINT('',(-6.5,-7.9602041944578E-16,1.));
#332=CARTESIAN_POINT('',(-6.5,-7.9602041944578E-16,1.));
#333=CARTESIAN_POINT('Origin',(0.,0.,1.));
#334=CARTESIAN_POINT('Origin',(0.,0.,4.66));
#335=CARTESIAN_POINT('Origin',(0.,0.,4.66000000000122));
#336=CARTESIAN_POINT('',(6.29999999995334,-7.71527483457119E-16,4.85999999995101));
#337=CARTESIAN_POINT('',(6.49999999990314,-7.96020419433918E-16,4.66000000000122));
#338=CARTESIAN_POINT('Origin',(0.,0.,4.85999999995101));
#339=CARTESIAN_POINT('Origin',(0.,0.,0.));
#340=CARTESIAN_POINT('',(-7.5,-9.18485099360515E-16,1.));
#341=CARTESIAN_POINT('Origin',(0.,0.,1.));
#342=CARTESIAN_POINT('',(-7.5,-9.18485099360515E-16,0.));
#343=CARTESIAN_POINT('',(-7.5,-9.18485099360515E-16,0.));
#344=CARTESIAN_POINT('Origin',(0.,0.,0.));
#345=CARTESIAN_POINT('Origin',(0.,0.,4.86));
#346=CARTESIAN_POINT('',(-5.15,-6.30693101560887E-16,4.76));
#347=CARTESIAN_POINT('Origin',(0.,0.,4.76));
#348=CARTESIAN_POINT('',(-5.15,-6.30693101560887E-16,4.86));
#349=CARTESIAN_POINT('',(-5.15,-6.30693101560887E-16,4.86));
#350=CARTESIAN_POINT('Origin',(0.,0.,4.86));
#351=CARTESIAN_POINT('Origin',(0.,0.,0.));
#352=CARTESIAN_POINT('',(-5.15,-6.30693101560887E-16,0.));
#353=CARTESIAN_POINT('Origin',(0.,0.,0.));
#354=CARTESIAN_POINT('',(-5.15,-6.30693101560887E-16,0.1));
#355=CARTESIAN_POINT('',(-5.15,-6.30693101560887E-16,0.));
#356=CARTESIAN_POINT('Origin',(0.,0.,0.1));
#357=CARTESIAN_POINT('Origin',(0.,0.,4.86));
#358=CARTESIAN_POINT('',(-3.,-3.67394039744206E-16,4.86));
#359=CARTESIAN_POINT('Origin',(0.,0.,4.86));
#360=CARTESIAN_POINT('',(-3.,-3.67394039744206E-16,4.76));
#361=CARTESIAN_POINT('',(-3.,-3.67394039744206E-16,4.86));
#362=CARTESIAN_POINT('Origin',(0.,0.,4.76));
#363=CARTESIAN_POINT('Origin',(0.,0.,0.));
#364=CARTESIAN_POINT('',(-3.,-3.67394039744206E-16,0.1));
#365=CARTESIAN_POINT('Origin',(0.,0.,0.1));
#366=CARTESIAN_POINT('',(-3.,-3.67394039744206E-16,0.));
#367=CARTESIAN_POINT('',(-3.,-3.67394039744206E-16,0.));
#368=CARTESIAN_POINT('Origin',(0.,0.,0.));
#369=CARTESIAN_POINT('Origin',(0.,0.,4.86));
#370=CARTESIAN_POINT('',(2.,-2.44929359829471E-16,4.86));
#371=CARTESIAN_POINT('Origin',(0.,0.,4.86));
#372=CARTESIAN_POINT('',(2.,-2.44929359829471E-16,0.));
#373=CARTESIAN_POINT('',(2.,-2.44929359829471E-16,4.86));
#374=CARTESIAN_POINT('Origin',(0.,0.,0.));
#375=CARTESIAN_POINT('Origin',(0.,0.,1.));
#376=CARTESIAN_POINT('Origin',(0.,0.,4.86));
#377=CARTESIAN_POINT('Origin',(0.,0.,0.));
#378=CARTESIAN_POINT('Origin',(0.,0.,4.76));
#379=CARTESIAN_POINT('Origin',(0.,0.,0.1));
#380=CARTESIAN_POINT('Origin',(0.,0.,4.86));
#381=CARTESIAN_POINT('Origin',(0.,0.,0.));
#382=UNCERTAINTY_MEASURE_WITH_UNIT(LENGTH_MEASURE(0.01),#386,
'DISTANCE_ACCURACY_VALUE',
'Maximum model space distance between geometric entities at asserted c
onnectivities');
#383=UNCERTAINTY_MEASURE_WITH_UNIT(LENGTH_MEASURE(0.01),#386,
'DISTANCE_ACCURACY_VALUE',
'Maximum model space distance between geometric entities at asserted c
onnectivities');
#384=(
GEOMETRIC_REPRESENTATION_CONTEXT(3)
GLOBAL_UNCERTAINTY_ASSIGNED_CONTEXT((#382))
GLOBAL_UNIT_ASSIGNED_CONTEXT((#386,#388,#389))
REPRESENTATION_CONTEXT('','3D')
);
#385=(
GEOMETRIC_REPRESENTATION_CONTEXT(3)
GLOBAL_UNCERTAINTY_ASSIGNED_CONTEXT((#383))
GLOBAL_UNIT_ASSIGNED_CONTEXT((#386,#388,#389))
REPRESENTATION_CONTEXT('','3D')
);
#386=(
LENGTH_UNIT()
NAMED_UNIT(*)
SI_UNIT(.MILLI.,.METRE.)
);
#387=(
LENGTH_UNIT()
NAMED_UNIT(*)
SI_UNIT($,.METRE.)
);
#388=(
NAMED_UNIT(*)
PLANE_ANGLE_UNIT()
SI_UNIT($,.RADIAN.)
);
#389=(
NAMED_UNIT(*)
SI_UNIT($,.STERADIAN.)
SOLID_ANGLE_UNIT()
);
#390=SHAPE_DEFINITION_REPRESENTATION(#391,#392);
#391=PRODUCT_DEFINITION_SHAPE('',$,#394);
#392=SHAPE_REPRESENTATION('',(#222),#384);
#393=PRODUCT_DEFINITION_CONTEXT('part definition',#398,'design');
#394=PRODUCT_DEFINITION('Bearing_ideler_Belt Tension',
'Ender3-V2_Bearing_ideler_Belt Tension v1',#395,#393);
#395=PRODUCT_DEFINITION_FORMATION('',$,#400);
#396=PRODUCT_RELATED_PRODUCT_CATEGORY(
'Ender3-V2_Bearing_ideler_Belt Tension v1',
'Ender3-V2_Bearing_ideler_Belt Tension v1',(#400));
#397=APPLICATION_PROTOCOL_DEFINITION('international standard',
'automotive_design',2009,#398);
#398=APPLICATION_CONTEXT(
'Core Data for Automotive Mechanical Design Process');
#399=PRODUCT_CONTEXT('part definition',#398,'mechanical');
#400=PRODUCT('Bearing_ideler_Belt Tension',
'Ender3-V2_Bearing_ideler_Belt Tension v1',$,(#399));
#401=PRESENTATION_STYLE_ASSIGNMENT((#403));
#402=PRESENTATION_STYLE_ASSIGNMENT((#404));
#403=SURFACE_STYLE_USAGE(.BOTH.,#405);
#404=SURFACE_STYLE_USAGE(.BOTH.,#406);
#405=SURFACE_SIDE_STYLE('',(#407));
#406=SURFACE_SIDE_STYLE('',(#408));
#407=SURFACE_STYLE_FILL_AREA(#409);
#408=SURFACE_STYLE_FILL_AREA(#410);
#409=FILL_AREA_STYLE('Plate',(#411));
#410=FILL_AREA_STYLE('Opaque(160,160,160)',(#412));
#411=FILL_AREA_STYLE_COLOUR('Plate',#413);
#412=FILL_AREA_STYLE_COLOUR('Opaque(160,160,160)',#414);
#413=COLOUR_RGB('Plate',0.6,0.6,0.6);
#414=COLOUR_RGB('Opaque(160,160,160)',0.627450980392157,0.627450980392157,
0.627450980392157);
ENDSEC;
END-ISO-10303-21;
