ISO-10303-21;
HEADER;
/* Generated by software containing ST-Developer
 * from STEP Tools, Inc. (www.steptools.com) 
 */

FILE_DESCRIPTION(
/* description */ (''),
/* implementation_level */ '2;1');

FILE_NAME(
/* name */ 'Fitting_brass_Z Axis_Acme Screw.step',
/* time_stamp */ '2026-05-05T23:30:27-07:00',
/* author */ (''),
/* organization */ (''),
/* preprocessor_version */ 'ST-DEVELOPER v20.1',
/* originating_system */ 'Autodesk Translation Framework v15.8.0.0',
/* authorisation */ '');

FILE_SCHEMA (('AUTOMOTIVE_DESIGN { 1 0 10303 214 3 1 1 }'));
ENDSEC;

DATA;
#10=MECHANICAL_DESIGN_GEOMETRIC_PRESENTATION_REPRESENTATION('',(#13),#668);
#11=SHAPE_REPRESENTATION_RELATIONSHIP('SRR','None',#675,#12);
#12=ADVANCED_BREP_SHAPE_REPRESENTATION('',(#14),#667);
#13=STYLED_ITEM('',(#685),#14);
#14=MANIFOLD_SOLID_BREP('Body1',#365);
#15=FACE_BOUND('',#78,.T.);
#16=FACE_BOUND('',#80,.T.);
#17=FACE_BOUND('',#82,.T.);
#18=FACE_BOUND('',#83,.T.);
#19=FACE_BOUND('',#84,.T.);
#20=FACE_BOUND('',#86,.T.);
#21=FACE_BOUND('',#87,.T.);
#22=FACE_BOUND('',#88,.T.);
#23=PLANE('',#410);
#24=PLANE('',#411);
#25=PLANE('',#412);
#26=PLANE('',#414);
#27=PLANE('',#419);
#28=PLANE('',#420);
#29=B_SPLINE_CURVE_WITH_KNOTS('',3,(#594,#595,#596,#597),.UNSPECIFIED.,
 .F.,.F.,(4,4),(2.96818042924329E-17,0.000309073211692911),
 .UNSPECIFIED.);
#30=B_SPLINE_CURVE_WITH_KNOTS('',3,(#600,#601,#602,#603),.UNSPECIFIED.,
 .F.,.F.,(4,4),(8.23299537554298E-16,0.000309073211693764),
 .UNSPECIFIED.);
#31=B_SPLINE_CURVE_WITH_KNOTS('',3,(#629,#630,#631,#632),.UNSPECIFIED.,
 .F.,.F.,(4,4),(1.64084215622096E-15,0.000309073211691628),
 .UNSPECIFIED.);
#32=B_SPLINE_CURVE_WITH_KNOTS('',3,(#634,#635,#636,#637),.UNSPECIFIED.,
 .F.,.F.,(4,4),(1.8351829121196E-17,0.00030907321168984),.UNSPECIFIED.);
#33=B_SPLINE_CURVE_WITH_KNOTS('',3,(#642,#643,#644,#645),.UNSPECIFIED.,
 .F.,.F.,(4,4),(1.07871663059486E-15,0.000309073211691066),
 .UNSPECIFIED.);
#34=B_SPLINE_CURVE_WITH_KNOTS('',3,(#646,#647,#648,#649),.UNSPECIFIED.,
 .F.,.F.,(4,4),(2.4532694666934E-18,0.000309073211692921),.UNSPECIFIED.);
#35=B_SPLINE_CURVE_WITH_KNOTS('',3,(#651,#652,#653,#654),.UNSPECIFIED.,
 .F.,.F.,(4,4),(2.49878471762058E-16,0.00030907321169319),.UNSPECIFIED.);
#36=B_SPLINE_CURVE_WITH_KNOTS('',3,(#656,#657,#658,#659),.UNSPECIFIED.,
 .F.,.F.,(4,4),(2.16840434497101E-18,0.000309073211690382),
 .UNSPECIFIED.);
#37=CONICAL_SURFACE('',#383,4.19999999991205,0.785398163397448);
#38=CONICAL_SURFACE('',#385,4.1999999999689,0.785398163397448);
#39=CONICAL_SURFACE('',#387,4.97500000005857,0.785398163539557);
#40=CONICAL_SURFACE('',#391,4.97499999988804,0.785398163397448);
#41=CONICAL_SURFACE('',#405,11.92,0.785398163397);
#42=CONICAL_SURFACE('',#417,11.9199999999987,0.785398163396997);
#43=CONICAL_SURFACE('',#421,11.92,0.785398163396997);
#44=CONICAL_SURFACE('',#422,11.9199999999987,0.785398163396998);
#45=FACE_OUTER_BOUND('',#66,.T.);
#46=FACE_OUTER_BOUND('',#67,.T.);
#47=FACE_OUTER_BOUND('',#68,.T.);
#48=FACE_OUTER_BOUND('',#69,.T.);
#49=FACE_OUTER_BOUND('',#70,.T.);
#50=FACE_OUTER_BOUND('',#71,.T.);
#51=FACE_OUTER_BOUND('',#72,.T.);
#52=FACE_OUTER_BOUND('',#73,.T.);
#53=FACE_OUTER_BOUND('',#74,.T.);
#54=FACE_OUTER_BOUND('',#75,.T.);
#55=FACE_OUTER_BOUND('',#76,.T.);
#56=FACE_OUTER_BOUND('',#77,.T.);
#57=FACE_OUTER_BOUND('',#79,.T.);
#58=FACE_OUTER_BOUND('',#81,.T.);
#59=FACE_OUTER_BOUND('',#85,.T.);
#60=FACE_OUTER_BOUND('',#89,.T.);
#61=FACE_OUTER_BOUND('',#90,.T.);
#62=FACE_OUTER_BOUND('',#91,.T.);
#63=FACE_OUTER_BOUND('',#92,.T.);
#64=FACE_OUTER_BOUND('',#93,.T.);
#65=FACE_OUTER_BOUND('',#94,.T.);
#66=EDGE_LOOP('',(#237,#238,#239,#240,#241));
#67=EDGE_LOOP('',(#242,#243,#244,#245,#246));
#68=EDGE_LOOP('',(#247,#248,#249,#250));
#69=EDGE_LOOP('',(#251,#252,#253,#254,#255));
#70=EDGE_LOOP('',(#256,#257,#258,#259,#260));
#71=EDGE_LOOP('',(#261,#262,#263,#264,#265));
#72=EDGE_LOOP('',(#266,#267,#268,#269,#270));
#73=EDGE_LOOP('',(#271,#272,#273,#274));
#74=EDGE_LOOP('',(#275,#276,#277,#278));
#75=EDGE_LOOP('',(#279,#280,#281,#282));
#76=EDGE_LOOP('',(#283,#284,#285,#286));
#77=EDGE_LOOP('',(#287));
#78=EDGE_LOOP('',(#288));
#79=EDGE_LOOP('',(#289));
#80=EDGE_LOOP('',(#290));
#81=EDGE_LOOP('',(#291,#292,#293,#294));
#82=EDGE_LOOP('',(#295));
#83=EDGE_LOOP('',(#296));
#84=EDGE_LOOP('',(#297));
#85=EDGE_LOOP('',(#298,#299,#300,#301));
#86=EDGE_LOOP('',(#302));
#87=EDGE_LOOP('',(#303));
#88=EDGE_LOOP('',(#304));
#89=EDGE_LOOP('',(#305,#306,#307,#308));
#90=EDGE_LOOP('',(#309,#310,#311,#312,#313,#314,#315,#316));
#91=EDGE_LOOP('',(#317,#318,#319,#320,#321,#322,#323,#324));
#92=EDGE_LOOP('',(#325,#326,#327,#328));
#93=EDGE_LOOP('',(#329,#330,#331,#332));
#94=EDGE_LOOP('',(#333,#334,#335,#336));
#95=LINE('',#543,#112);
#96=LINE('',#547,#113);
#97=LINE('',#551,#114);
#98=LINE('',#558,#115);
#99=LINE('',#566,#116);
#100=LINE('',#571,#117);
#101=LINE('',#575,#118);
#102=LINE('',#581,#119);
#103=LINE('',#587,#120);
#104=LINE('',#606,#121);
#105=LINE('',#609,#122);
#106=LINE('',#614,#123);
#107=LINE('',#616,#124);
#108=LINE('',#623,#125);
#109=LINE('',#626,#126);
#110=LINE('',#641,#127);
#111=LINE('',#660,#128);
#112=VECTOR('',#433,4.);
#113=VECTOR('',#438,4.19999999991205);
#114=VECTOR('',#443,4.1999999999689);
#115=VECTOR('',#450,4.97500000005857);
#116=VECTOR('',#459,4.97499999988804);
#117=VECTOR('',#466,4.975);
#118=VECTOR('',#471,4.975);
#119=VECTOR('',#478,1.2295);
#120=VECTOR('',#485,1.2295);
#121=VECTOR('',#496,1000.);
#122=VECTOR('',#499,1000.);
#123=VECTOR('',#506,1000.);
#124=VECTOR('',#507,1000.);
#125=VECTOR('',#514,1000.);
#126=VECTOR('',#517,1000.);
#127=VECTOR('',#524,1000.);
#128=VECTOR('',#527,1000.);
#129=CIRCLE('',#380,4.);
#130=CIRCLE('',#381,4.);
#131=CIRCLE('',#382,4.);
#132=CIRCLE('',#384,4.1999999999689);
#133=CIRCLE('',#386,4.20000000002574);
#134=CIRCLE('',#388,4.97500000005857);
#135=CIRCLE('',#389,4.77499999999509);
#136=CIRCLE('',#390,4.97500000005857);
#137=CIRCLE('',#392,4.97499999994488);
#138=CIRCLE('',#393,4.77499999993825);
#139=CIRCLE('',#394,4.97499999994488);
#140=CIRCLE('',#396,4.975);
#141=CIRCLE('',#398,4.975);
#142=CIRCLE('',#400,1.2295);
#143=CIRCLE('',#401,1.2295);
#144=CIRCLE('',#403,1.2295);
#145=CIRCLE('',#404,1.2295);
#146=CIRCLE('',#406,11.7200000000001);
#147=CIRCLE('',#407,11.92);
#148=CIRCLE('',#409,11.92);
#149=CIRCLE('',#413,11.7200000000001);
#150=CIRCLE('',#415,11.7200000000001);
#151=CIRCLE('',#416,11.7200000000001);
#152=CIRCLE('',#418,11.9199999999987);
#153=CIRCLE('',#423,11.9199999999987);
#154=VERTEX_POINT('',#538);
#155=VERTEX_POINT('',#539);
#156=VERTEX_POINT('',#542);
#157=VERTEX_POINT('',#546);
#158=VERTEX_POINT('',#550);
#159=VERTEX_POINT('',#554);
#160=VERTEX_POINT('',#555);
#161=VERTEX_POINT('',#557);
#162=VERTEX_POINT('',#562);
#163=VERTEX_POINT('',#563);
#164=VERTEX_POINT('',#565);
#165=VERTEX_POINT('',#570);
#166=VERTEX_POINT('',#574);
#167=VERTEX_POINT('',#578);
#168=VERTEX_POINT('',#580);
#169=VERTEX_POINT('',#584);
#170=VERTEX_POINT('',#586);
#171=VERTEX_POINT('',#590);
#172=VERTEX_POINT('',#591);
#173=VERTEX_POINT('',#593);
#174=VERTEX_POINT('',#598);
#175=VERTEX_POINT('',#605);
#176=VERTEX_POINT('',#607);
#177=VERTEX_POINT('',#613);
#178=VERTEX_POINT('',#615);
#179=VERTEX_POINT('',#619);
#180=VERTEX_POINT('',#620);
#181=VERTEX_POINT('',#622);
#182=VERTEX_POINT('',#624);
#183=VERTEX_POINT('',#628);
#184=VERTEX_POINT('',#633);
#185=VERTEX_POINT('',#640);
#186=VERTEX_POINT('',#655);
#187=EDGE_CURVE('',#154,#155,#129,.T.);
#188=EDGE_CURVE('',#155,#154,#130,.T.);
#189=EDGE_CURVE('',#155,#156,#95,.T.);
#190=EDGE_CURVE('',#156,#156,#131,.T.);
#191=EDGE_CURVE('',#154,#157,#96,.T.);
#192=EDGE_CURVE('',#157,#157,#132,.T.);
#193=EDGE_CURVE('',#156,#158,#97,.T.);
#194=EDGE_CURVE('',#158,#158,#133,.T.);
#195=EDGE_CURVE('',#159,#160,#134,.T.);
#196=EDGE_CURVE('',#160,#161,#98,.T.);
#197=EDGE_CURVE('',#161,#161,#135,.T.);
#198=EDGE_CURVE('',#160,#159,#136,.T.);
#199=EDGE_CURVE('',#162,#163,#137,.T.);
#200=EDGE_CURVE('',#163,#164,#99,.T.);
#201=EDGE_CURVE('',#164,#164,#138,.T.);
#202=EDGE_CURVE('',#163,#162,#139,.T.);
#203=EDGE_CURVE('',#159,#165,#100,.T.);
#204=EDGE_CURVE('',#165,#165,#140,.T.);
#205=EDGE_CURVE('',#162,#166,#101,.T.);
#206=EDGE_CURVE('',#166,#166,#141,.T.);
#207=EDGE_CURVE('',#167,#167,#142,.T.);
#208=EDGE_CURVE('',#167,#168,#102,.T.);
#209=EDGE_CURVE('',#168,#168,#143,.T.);
#210=EDGE_CURVE('',#169,#169,#144,.T.);
#211=EDGE_CURVE('',#169,#170,#103,.T.);
#212=EDGE_CURVE('',#170,#170,#145,.T.);
#213=EDGE_CURVE('',#171,#172,#146,.T.);
#214=EDGE_CURVE('',#173,#172,#29,.T.);
#215=EDGE_CURVE('',#173,#174,#147,.T.);
#216=EDGE_CURVE('',#174,#171,#30,.T.);
#217=EDGE_CURVE('',#175,#173,#104,.T.);
#218=EDGE_CURVE('',#176,#175,#148,.T.);
#219=EDGE_CURVE('',#174,#176,#105,.T.);
#220=EDGE_CURVE('',#172,#177,#106,.T.);
#221=EDGE_CURVE('',#178,#171,#107,.T.);
#222=EDGE_CURVE('',#177,#178,#149,.T.);
#223=EDGE_CURVE('',#179,#180,#150,.T.);
#224=EDGE_CURVE('',#180,#181,#108,.T.);
#225=EDGE_CURVE('',#181,#182,#151,.T.);
#226=EDGE_CURVE('',#182,#179,#109,.T.);
#227=EDGE_CURVE('',#183,#177,#31,.T.);
#228=EDGE_CURVE('',#178,#184,#32,.T.);
#229=EDGE_CURVE('',#184,#183,#152,.T.);
#230=EDGE_CURVE('',#183,#185,#110,.T.);
#231=EDGE_CURVE('',#185,#181,#33,.T.);
#232=EDGE_CURVE('',#180,#175,#34,.T.);
#233=EDGE_CURVE('',#176,#179,#35,.T.);
#234=EDGE_CURVE('',#182,#186,#36,.T.);
#235=EDGE_CURVE('',#186,#184,#111,.T.);
#236=EDGE_CURVE('',#185,#186,#153,.T.);
#237=ORIENTED_EDGE('',*,*,#187,.F.);
#238=ORIENTED_EDGE('',*,*,#188,.F.);
#239=ORIENTED_EDGE('',*,*,#189,.T.);
#240=ORIENTED_EDGE('',*,*,#190,.F.);
#241=ORIENTED_EDGE('',*,*,#189,.F.);
#242=ORIENTED_EDGE('',*,*,#187,.T.);
#243=ORIENTED_EDGE('',*,*,#188,.T.);
#244=ORIENTED_EDGE('',*,*,#191,.T.);
#245=ORIENTED_EDGE('',*,*,#192,.F.);
#246=ORIENTED_EDGE('',*,*,#191,.F.);
#247=ORIENTED_EDGE('',*,*,#190,.T.);
#248=ORIENTED_EDGE('',*,*,#193,.T.);
#249=ORIENTED_EDGE('',*,*,#194,.F.);
#250=ORIENTED_EDGE('',*,*,#193,.F.);
#251=ORIENTED_EDGE('',*,*,#195,.T.);
#252=ORIENTED_EDGE('',*,*,#196,.T.);
#253=ORIENTED_EDGE('',*,*,#197,.F.);
#254=ORIENTED_EDGE('',*,*,#196,.F.);
#255=ORIENTED_EDGE('',*,*,#198,.T.);
#256=ORIENTED_EDGE('',*,*,#199,.T.);
#257=ORIENTED_EDGE('',*,*,#200,.T.);
#258=ORIENTED_EDGE('',*,*,#201,.F.);
#259=ORIENTED_EDGE('',*,*,#200,.F.);
#260=ORIENTED_EDGE('',*,*,#202,.T.);
#261=ORIENTED_EDGE('',*,*,#195,.F.);
#262=ORIENTED_EDGE('',*,*,#203,.T.);
#263=ORIENTED_EDGE('',*,*,#204,.T.);
#264=ORIENTED_EDGE('',*,*,#203,.F.);
#265=ORIENTED_EDGE('',*,*,#198,.F.);
#266=ORIENTED_EDGE('',*,*,#199,.F.);
#267=ORIENTED_EDGE('',*,*,#205,.T.);
#268=ORIENTED_EDGE('',*,*,#206,.T.);
#269=ORIENTED_EDGE('',*,*,#205,.F.);
#270=ORIENTED_EDGE('',*,*,#202,.F.);
#271=ORIENTED_EDGE('',*,*,#207,.T.);
#272=ORIENTED_EDGE('',*,*,#208,.T.);
#273=ORIENTED_EDGE('',*,*,#209,.F.);
#274=ORIENTED_EDGE('',*,*,#208,.F.);
#275=ORIENTED_EDGE('',*,*,#210,.T.);
#276=ORIENTED_EDGE('',*,*,#211,.T.);
#277=ORIENTED_EDGE('',*,*,#212,.F.);
#278=ORIENTED_EDGE('',*,*,#211,.F.);
#279=ORIENTED_EDGE('',*,*,#213,.T.);
#280=ORIENTED_EDGE('',*,*,#214,.F.);
#281=ORIENTED_EDGE('',*,*,#215,.T.);
#282=ORIENTED_EDGE('',*,*,#216,.T.);
#283=ORIENTED_EDGE('',*,*,#215,.F.);
#284=ORIENTED_EDGE('',*,*,#217,.F.);
#285=ORIENTED_EDGE('',*,*,#218,.F.);
#286=ORIENTED_EDGE('',*,*,#219,.F.);
#287=ORIENTED_EDGE('',*,*,#197,.T.);
#288=ORIENTED_EDGE('',*,*,#192,.T.);
#289=ORIENTED_EDGE('',*,*,#201,.T.);
#290=ORIENTED_EDGE('',*,*,#194,.T.);
#291=ORIENTED_EDGE('',*,*,#220,.F.);
#292=ORIENTED_EDGE('',*,*,#213,.F.);
#293=ORIENTED_EDGE('',*,*,#221,.F.);
#294=ORIENTED_EDGE('',*,*,#222,.F.);
#295=ORIENTED_EDGE('',*,*,#204,.F.);
#296=ORIENTED_EDGE('',*,*,#207,.F.);
#297=ORIENTED_EDGE('',*,*,#210,.F.);
#298=ORIENTED_EDGE('',*,*,#223,.T.);
#299=ORIENTED_EDGE('',*,*,#224,.T.);
#300=ORIENTED_EDGE('',*,*,#225,.T.);
#301=ORIENTED_EDGE('',*,*,#226,.T.);
#302=ORIENTED_EDGE('',*,*,#206,.F.);
#303=ORIENTED_EDGE('',*,*,#209,.T.);
#304=ORIENTED_EDGE('',*,*,#212,.T.);
#305=ORIENTED_EDGE('',*,*,#227,.T.);
#306=ORIENTED_EDGE('',*,*,#222,.T.);
#307=ORIENTED_EDGE('',*,*,#228,.T.);
#308=ORIENTED_EDGE('',*,*,#229,.T.);
#309=ORIENTED_EDGE('',*,*,#227,.F.);
#310=ORIENTED_EDGE('',*,*,#230,.T.);
#311=ORIENTED_EDGE('',*,*,#231,.T.);
#312=ORIENTED_EDGE('',*,*,#224,.F.);
#313=ORIENTED_EDGE('',*,*,#232,.T.);
#314=ORIENTED_EDGE('',*,*,#217,.T.);
#315=ORIENTED_EDGE('',*,*,#214,.T.);
#316=ORIENTED_EDGE('',*,*,#220,.T.);
#317=ORIENTED_EDGE('',*,*,#233,.T.);
#318=ORIENTED_EDGE('',*,*,#226,.F.);
#319=ORIENTED_EDGE('',*,*,#234,.T.);
#320=ORIENTED_EDGE('',*,*,#235,.T.);
#321=ORIENTED_EDGE('',*,*,#228,.F.);
#322=ORIENTED_EDGE('',*,*,#221,.T.);
#323=ORIENTED_EDGE('',*,*,#216,.F.);
#324=ORIENTED_EDGE('',*,*,#219,.T.);
#325=ORIENTED_EDGE('',*,*,#233,.F.);
#326=ORIENTED_EDGE('',*,*,#218,.T.);
#327=ORIENTED_EDGE('',*,*,#232,.F.);
#328=ORIENTED_EDGE('',*,*,#223,.F.);
#329=ORIENTED_EDGE('',*,*,#231,.F.);
#330=ORIENTED_EDGE('',*,*,#236,.T.);
#331=ORIENTED_EDGE('',*,*,#234,.F.);
#332=ORIENTED_EDGE('',*,*,#225,.F.);
#333=ORIENTED_EDGE('',*,*,#229,.F.);
#334=ORIENTED_EDGE('',*,*,#235,.F.);
#335=ORIENTED_EDGE('',*,*,#236,.F.);
#336=ORIENTED_EDGE('',*,*,#230,.F.);
#337=CYLINDRICAL_SURFACE('',#379,4.);
#338=CYLINDRICAL_SURFACE('',#395,4.975);
#339=CYLINDRICAL_SURFACE('',#397,4.975);
#340=CYLINDRICAL_SURFACE('',#399,1.2295);
#341=CYLINDRICAL_SURFACE('',#402,1.2295);
#342=CYLINDRICAL_SURFACE('',#408,11.92);
#343=CYLINDRICAL_SURFACE('',#424,11.92);
#344=ADVANCED_FACE('',(#45),#337,.F.);
#345=ADVANCED_FACE('',(#46),#37,.F.);
#346=ADVANCED_FACE('',(#47),#38,.F.);
#347=ADVANCED_FACE('',(#48),#39,.T.);
#348=ADVANCED_FACE('',(#49),#40,.T.);
#349=ADVANCED_FACE('',(#50),#338,.T.);
#350=ADVANCED_FACE('',(#51),#339,.T.);
#351=ADVANCED_FACE('',(#52),#340,.F.);
#352=ADVANCED_FACE('',(#53),#341,.F.);
#353=ADVANCED_FACE('',(#54),#41,.T.);
#354=ADVANCED_FACE('',(#55),#342,.T.);
#355=ADVANCED_FACE('',(#56,#15),#23,.T.);
#356=ADVANCED_FACE('',(#57,#16),#24,.T.);
#357=ADVANCED_FACE('',(#58,#17,#18,#19),#25,.F.);
#358=ADVANCED_FACE('',(#59,#20,#21,#22),#26,.T.);
#359=ADVANCED_FACE('',(#60),#42,.T.);
#360=ADVANCED_FACE('',(#61),#27,.T.);
#361=ADVANCED_FACE('',(#62),#28,.T.);
#362=ADVANCED_FACE('',(#63),#43,.T.);
#363=ADVANCED_FACE('',(#64),#44,.T.);
#364=ADVANCED_FACE('',(#65),#343,.T.);
#365=CLOSED_SHELL('',(#344,#345,#346,#347,#348,#349,#350,#351,#352,#353,
#354,#355,#356,#357,#358,#359,#360,#361,#362,#363,#364));
#366=DERIVED_UNIT_ELEMENT(#368,1.);
#367=DERIVED_UNIT_ELEMENT(#670,-3.);
#368=(
MASS_UNIT()
NAMED_UNIT(*)
SI_UNIT(.KILO.,.GRAM.)
);
#369=DERIVED_UNIT((#366,#367));
#370=MEASURE_REPRESENTATION_ITEM('density measure',
POSITIVE_RATIO_MEASURE(7850.),#369);
#371=PROPERTY_DEFINITION_REPRESENTATION(#376,#373);
#372=PROPERTY_DEFINITION_REPRESENTATION(#377,#374);
#373=REPRESENTATION('material name',(#375),#667);
#374=REPRESENTATION('density',(#370),#667);
#375=DESCRIPTIVE_REPRESENTATION_ITEM('Steel','Steel');
#376=PROPERTY_DEFINITION('material property','material name',#677);
#377=PROPERTY_DEFINITION('material property','density of part',#677);
#378=AXIS2_PLACEMENT_3D('',#536,#425,#426);
#379=AXIS2_PLACEMENT_3D('',#537,#427,#428);
#380=AXIS2_PLACEMENT_3D('',#540,#429,#430);
#381=AXIS2_PLACEMENT_3D('',#541,#431,#432);
#382=AXIS2_PLACEMENT_3D('',#544,#434,#435);
#383=AXIS2_PLACEMENT_3D('',#545,#436,#437);
#384=AXIS2_PLACEMENT_3D('',#548,#439,#440);
#385=AXIS2_PLACEMENT_3D('',#549,#441,#442);
#386=AXIS2_PLACEMENT_3D('',#552,#444,#445);
#387=AXIS2_PLACEMENT_3D('',#553,#446,#447);
#388=AXIS2_PLACEMENT_3D('',#556,#448,#449);
#389=AXIS2_PLACEMENT_3D('',#559,#451,#452);
#390=AXIS2_PLACEMENT_3D('',#560,#453,#454);
#391=AXIS2_PLACEMENT_3D('',#561,#455,#456);
#392=AXIS2_PLACEMENT_3D('',#564,#457,#458);
#393=AXIS2_PLACEMENT_3D('',#567,#460,#461);
#394=AXIS2_PLACEMENT_3D('',#568,#462,#463);
#395=AXIS2_PLACEMENT_3D('',#569,#464,#465);
#396=AXIS2_PLACEMENT_3D('',#572,#467,#468);
#397=AXIS2_PLACEMENT_3D('',#573,#469,#470);
#398=AXIS2_PLACEMENT_3D('',#576,#472,#473);
#399=AXIS2_PLACEMENT_3D('',#577,#474,#475);
#400=AXIS2_PLACEMENT_3D('',#579,#476,#477);
#401=AXIS2_PLACEMENT_3D('',#582,#479,#480);
#402=AXIS2_PLACEMENT_3D('',#583,#481,#482);
#403=AXIS2_PLACEMENT_3D('',#585,#483,#484);
#404=AXIS2_PLACEMENT_3D('',#588,#486,#487);
#405=AXIS2_PLACEMENT_3D('',#589,#488,#489);
#406=AXIS2_PLACEMENT_3D('',#592,#490,#491);
#407=AXIS2_PLACEMENT_3D('',#599,#492,#493);
#408=AXIS2_PLACEMENT_3D('',#604,#494,#495);
#409=AXIS2_PLACEMENT_3D('',#608,#497,#498);
#410=AXIS2_PLACEMENT_3D('',#610,#500,#501);
#411=AXIS2_PLACEMENT_3D('',#611,#502,#503);
#412=AXIS2_PLACEMENT_3D('',#612,#504,#505);
#413=AXIS2_PLACEMENT_3D('',#617,#508,#509);
#414=AXIS2_PLACEMENT_3D('',#618,#510,#511);
#415=AXIS2_PLACEMENT_3D('',#621,#512,#513);
#416=AXIS2_PLACEMENT_3D('',#625,#515,#516);
#417=AXIS2_PLACEMENT_3D('',#627,#518,#519);
#418=AXIS2_PLACEMENT_3D('',#638,#520,#521);
#419=AXIS2_PLACEMENT_3D('',#639,#522,#523);
#420=AXIS2_PLACEMENT_3D('',#650,#525,#526);
#421=AXIS2_PLACEMENT_3D('',#661,#528,#529);
#422=AXIS2_PLACEMENT_3D('',#662,#530,#531);
#423=AXIS2_PLACEMENT_3D('',#663,#532,#533);
#424=AXIS2_PLACEMENT_3D('',#664,#534,#535);
#425=DIRECTION('axis',(0.,0.,1.));
#426=DIRECTION('refdir',(1.,0.,0.));
#427=DIRECTION('center_axis',(0.,0.,1.));
#428=DIRECTION('ref_axis',(1.,0.,0.));
#429=DIRECTION('center_axis',(0.,0.,1.));
#430=DIRECTION('ref_axis',(1.,0.,0.));
#431=DIRECTION('center_axis',(0.,0.,1.));
#432=DIRECTION('ref_axis',(1.,0.,0.));
#433=DIRECTION('',(0.,0.,1.));
#434=DIRECTION('center_axis',(0.,0.,-1.));
#435=DIRECTION('ref_axis',(1.,0.,0.));
#436=DIRECTION('center_axis',(0.,0.,-1.));
#437=DIRECTION('ref_axis',(-1.,0.,0.));
#438=DIRECTION('',(0.707106781186547,-8.65956056235493E-17,-0.707106781186548));
#439=DIRECTION('center_axis',(0.,0.,1.));
#440=DIRECTION('ref_axis',(-1.,0.,0.));
#441=DIRECTION('center_axis',(0.,0.,1.));
#442=DIRECTION('ref_axis',(1.,0.,0.));
#443=DIRECTION('',(-0.707106781186547,-8.65956056235493E-17,0.707106781186548));
#444=DIRECTION('center_axis',(0.,0.,-1.));
#445=DIRECTION('ref_axis',(1.,0.,0.));
#446=DIRECTION('center_axis',(0.,0.,1.));
#447=DIRECTION('ref_axis',(1.,0.,0.));
#448=DIRECTION('center_axis',(0.,0.,-1.));
#449=DIRECTION('ref_axis',(1.,0.,0.));
#450=DIRECTION('',(0.707106781287034,8.65956056358553E-17,-0.707106781086061));
#451=DIRECTION('center_axis',(0.,0.,-1.));
#452=DIRECTION('ref_axis',(1.,0.,0.));
#453=DIRECTION('center_axis',(0.,0.,-1.));
#454=DIRECTION('ref_axis',(1.,0.,0.));
#455=DIRECTION('center_axis',(0.,0.,-1.));
#456=DIRECTION('ref_axis',(-1.,0.,0.));
#457=DIRECTION('center_axis',(0.,0.,1.));
#458=DIRECTION('ref_axis',(-1.,0.,0.));
#459=DIRECTION('',(-0.707106781186547,8.65956056235493E-17,0.707106781186548));
#460=DIRECTION('center_axis',(0.,0.,1.));
#461=DIRECTION('ref_axis',(-1.,0.,0.));
#462=DIRECTION('center_axis',(0.,0.,1.));
#463=DIRECTION('ref_axis',(-1.,0.,0.));
#464=DIRECTION('center_axis',(0.,0.,-1.));
#465=DIRECTION('ref_axis',(-1.,0.,0.));
#466=DIRECTION('',(0.,0.,1.));
#467=DIRECTION('center_axis',(0.,0.,-1.));
#468=DIRECTION('ref_axis',(-1.,0.,0.));
#469=DIRECTION('center_axis',(0.,0.,1.));
#470=DIRECTION('ref_axis',(1.,0.,0.));
#471=DIRECTION('',(0.,0.,-1.));
#472=DIRECTION('center_axis',(0.,0.,1.));
#473=DIRECTION('ref_axis',(1.,0.,0.));
#474=DIRECTION('center_axis',(0.,0.,1.));
#475=DIRECTION('ref_axis',(1.,0.,0.));
#476=DIRECTION('center_axis',(0.,0.,-1.));
#477=DIRECTION('ref_axis',(1.,0.,0.));
#478=DIRECTION('',(0.,0.,1.));
#479=DIRECTION('center_axis',(0.,0.,-1.));
#480=DIRECTION('ref_axis',(1.,0.,0.));
#481=DIRECTION('center_axis',(0.,0.,1.));
#482=DIRECTION('ref_axis',(1.,0.,0.));
#483=DIRECTION('center_axis',(0.,0.,-1.));
#484=DIRECTION('ref_axis',(1.,0.,0.));
#485=DIRECTION('',(0.,0.,1.));
#486=DIRECTION('center_axis',(0.,0.,-1.));
#487=DIRECTION('ref_axis',(1.,0.,0.));
#488=DIRECTION('center_axis',(0.,0.,1.));
#489=DIRECTION('ref_axis',(1.,0.,0.));
#490=DIRECTION('center_axis',(0.,0.,1.));
#491=DIRECTION('ref_axis',(1.,0.,0.));
#492=DIRECTION('center_axis',(0.,0.,-1.));
#493=DIRECTION('ref_axis',(0.851515852793629,-0.524328859058071,0.));
#494=DIRECTION('center_axis',(0.,0.,1.));
#495=DIRECTION('ref_axis',(1.,0.,0.));
#496=DIRECTION('',(0.,0.,-1.));
#497=DIRECTION('center_axis',(0.,0.,1.));
#498=DIRECTION('ref_axis',(0.85151585279232,-0.524328859060197,0.));
#499=DIRECTION('',(0.,0.,1.));
#500=DIRECTION('center_axis',(0.,0.,-1.));
#501=DIRECTION('ref_axis',(-1.,0.,0.));
#502=DIRECTION('center_axis',(0.,0.,1.));
#503=DIRECTION('ref_axis',(1.,0.,0.));
#504=DIRECTION('center_axis',(0.,0.,1.));
#505=DIRECTION('ref_axis',(1.,0.,0.));
#506=DIRECTION('',(-1.,0.,0.));
#507=DIRECTION('',(1.,0.,0.));
#508=DIRECTION('center_axis',(0.,0.,1.));
#509=DIRECTION('ref_axis',(1.,0.,0.));
#510=DIRECTION('center_axis',(0.,0.,1.));
#511=DIRECTION('ref_axis',(1.,0.,0.));
#512=DIRECTION('center_axis',(-9.53822966593813E-18,-1.54901902265651E-17,
1.));
#513=DIRECTION('ref_axis',(3.5527136788005E-15,1.,1.54901902265651E-17));
#514=DIRECTION('',(-1.,0.,0.));
#515=DIRECTION('center_axis',(9.53822966593915E-18,1.54901902265668E-17,
1.));
#516=DIRECTION('ref_axis',(-1.4774899195008E-34,1.,-1.54901902265668E-17));
#517=DIRECTION('',(1.,0.,0.));
#518=DIRECTION('center_axis',(0.,0.,1.));
#519=DIRECTION('ref_axis',(-1.,1.22464679914735E-16,0.));
#520=DIRECTION('center_axis',(0.,0.,-1.));
#521=DIRECTION('ref_axis',(-0.851515852793156,0.52432885905884,0.));
#522=DIRECTION('center_axis',(0.,1.,0.));
#523=DIRECTION('ref_axis',(0.,0.,1.));
#524=DIRECTION('',(0.,0.,1.));
#525=DIRECTION('center_axis',(0.,-1.,0.));
#526=DIRECTION('ref_axis',(0.,0.,-1.));
#527=DIRECTION('',(0.,0.,-1.));
#528=DIRECTION('center_axis',(9.53822966593813E-18,1.54901902265651E-17,
-1.));
#529=DIRECTION('ref_axis',(-1.47748991950048E-34,1.,1.54901902265651E-17));
#530=DIRECTION('center_axis',(-9.53822966593915E-18,-1.54901902265668E-17,
-1.));
#531=DIRECTION('ref_axis',(-1.4774899195008E-34,1.,-1.54901902265668E-17));
#532=DIRECTION('center_axis',(0.,0.,1.));
#533=DIRECTION('ref_axis',(-0.85151585279232,0.524328859060197,0.));
#534=DIRECTION('center_axis',(0.,0.,1.));
#535=DIRECTION('ref_axis',(-1.,1.22464679914735E-16,0.));
#536=CARTESIAN_POINT('',(0.,0.,0.));
#537=CARTESIAN_POINT('Origin',(0.,0.,3.52));
#538=CARTESIAN_POINT('',(4.,5.02105187648464E-16,-4.8));
#539=CARTESIAN_POINT('',(-4.,-4.89858719658941E-16,-4.8));
#540=CARTESIAN_POINT('Origin',(0.,0.,-4.8));
#541=CARTESIAN_POINT('Origin',(0.,0.,-4.8));
#542=CARTESIAN_POINT('',(-4.,-4.89858719658941E-16,5.18));
#543=CARTESIAN_POINT('',(-4.,-4.89858719658941E-16,3.52));
#544=CARTESIAN_POINT('Origin',(0.,0.,5.18));
#545=CARTESIAN_POINT('Origin',(0.,0.,-4.99999999988177));
#546=CARTESIAN_POINT('',(4.1999999999689,-5.14351655638079E-16,-4.99999999993861));
#547=CARTESIAN_POINT('',(4.19999999991205,-5.14351655631118E-16,-4.99999999988177));
#548=CARTESIAN_POINT('Origin',(0.,0.,-4.99999999993861));
#549=CARTESIAN_POINT('Origin',(0.,0.,5.37999999994554));
#550=CARTESIAN_POINT('',(-4.20000000002574,-5.1435165564504E-16,5.38000000000238));
#551=CARTESIAN_POINT('',(-4.1999999999689,-5.1435165563808E-16,5.37999999994554));
#552=CARTESIAN_POINT('Origin',(0.,0.,5.38000000000238));
#553=CARTESIAN_POINT('Origin',(0.,0.,-4.79999999998881));
#554=CARTESIAN_POINT('',(4.97500000005857,6.09261782582981E-16,-4.79999999998881));
#555=CARTESIAN_POINT('',(-4.97500000005857,-6.09261782582981E-16,-4.79999999998881));
#556=CARTESIAN_POINT('Origin',(0.,0.,-4.79999999998881));
#557=CARTESIAN_POINT('',(-4.77499999999509,-5.8476884659226E-16,-4.99999999999545));
#558=CARTESIAN_POINT('',(-4.97500000005857,-6.09261782582981E-16,-4.79999999998881));
#559=CARTESIAN_POINT('Origin',(0.,0.,-4.99999999999545));
#560=CARTESIAN_POINT('Origin',(0.,0.,-4.79999999998881));
#561=CARTESIAN_POINT('Origin',(0.,0.,5.18000000010943));
#562=CARTESIAN_POINT('',(-4.97499999994488,6.09261782572433E-16,5.17999999999574));
#563=CARTESIAN_POINT('',(4.97499999997331,-6.09261782572539E-16,5.18000000002417));
#564=CARTESIAN_POINT('Origin',(0.,0.,5.17999999999574));
#565=CARTESIAN_POINT('',(4.77499999993825,-5.84768846585298E-16,5.38000000005923));
#566=CARTESIAN_POINT('',(4.97499999988804,-6.09261782562097E-16,5.18000000010943));
#567=CARTESIAN_POINT('Origin',(0.,0.,5.38000000005923));
#568=CARTESIAN_POINT('Origin',(0.,0.,5.17999999999574));
#569=CARTESIAN_POINT('Origin',(0.,0.,0.));
#570=CARTESIAN_POINT('',(4.975,-6.09261782575808E-16,0.));
#571=CARTESIAN_POINT('',(4.975,-6.09261782575808E-16,0.));
#572=CARTESIAN_POINT('Origin',(0.,0.,0.));
#573=CARTESIAN_POINT('Origin',(0.,0.,3.52));
#574=CARTESIAN_POINT('',(-4.975,-6.09261782575808E-16,3.52));
#575=CARTESIAN_POINT('',(-4.975,-6.09261782575808E-16,3.52));
#576=CARTESIAN_POINT('Origin',(0.,0.,3.52));
#577=CARTESIAN_POINT('Origin',(-9.,0.,-25.3303032913));
#578=CARTESIAN_POINT('',(-10.2295,-1.50570323955167E-16,0.));
#579=CARTESIAN_POINT('Origin',(-9.,0.,0.));
#580=CARTESIAN_POINT('',(-10.2295,-1.50570323955167E-16,3.52));
#581=CARTESIAN_POINT('',(-10.2295,-1.50570323955167E-16,-25.3303032913));
#582=CARTESIAN_POINT('Origin',(-9.,0.,3.52));
#583=CARTESIAN_POINT('Origin',(9.,0.,-25.3303032913));
#584=CARTESIAN_POINT('',(7.7705,-1.50570323955167E-16,0.));
#585=CARTESIAN_POINT('Origin',(9.,0.,0.));
#586=CARTESIAN_POINT('',(7.7705,-1.50570323955167E-16,3.52));
#587=CARTESIAN_POINT('',(7.7705,-1.50570323955167E-16,-25.3303032913));
#588=CARTESIAN_POINT('Origin',(9.,0.,3.52));
#589=CARTESIAN_POINT('Origin',(0.,0.,0.200000000000067));
#590=CARTESIAN_POINT('',(9.91442887916402,-6.25,-2.36900131791425E-14));
#591=CARTESIAN_POINT('',(9.91442887916402,6.25,-2.3622882860453E-14));
#592=CARTESIAN_POINT('Origin',(0.,0.,-2.17111485040222E-14));
#593=CARTESIAN_POINT('',(10.150068965283,6.25,0.2000000000001));
#594=CARTESIAN_POINT('Ctrl Pts',(10.150068965283,6.25,0.2000000000001));
#595=CARTESIAN_POINT('Ctrl Pts',(10.0716293265091,6.25,0.13320740409682));
#596=CARTESIAN_POINT('Ctrl Pts',(9.99308454968368,6.25,0.0665380589855396));
#597=CARTESIAN_POINT('Ctrl Pts',(9.91442887916402,6.25,-2.3622882860453E-14));
#598=CARTESIAN_POINT('',(10.150068965283,-6.25,0.2000000000001));
#599=CARTESIAN_POINT('Origin',(0.,0.,0.200000000000066));
#600=CARTESIAN_POINT('Ctrl Pts',(10.150068965283,-6.25,0.2000000000001));
#601=CARTESIAN_POINT('Ctrl Pts',(10.0716293265095,-6.25,0.133207404097188));
#602=CARTESIAN_POINT('Ctrl Pts',(9.9930845496839,-6.25,0.0665380589857232));
#603=CARTESIAN_POINT('Ctrl Pts',(9.91442887916402,-6.25,-2.36900131791425E-14));
#604=CARTESIAN_POINT('Origin',(0.,0.,0.));
#605=CARTESIAN_POINT('',(10.150068965283,6.25,3.31999999999993));
#606=CARTESIAN_POINT('',(10.150068965283,6.25,0.));
#607=CARTESIAN_POINT('',(10.150068965283,-6.25,3.3199999999999));
#608=CARTESIAN_POINT('Origin',(0.,0.,3.31999999999993));
#609=CARTESIAN_POINT('',(10.150068965283,-6.25,0.));
#610=CARTESIAN_POINT('Origin',(0.,0.,-5.));
#611=CARTESIAN_POINT('Origin',(0.,0.,5.38));
#612=CARTESIAN_POINT('Origin',(0.,0.,0.));
#613=CARTESIAN_POINT('',(-9.91442887916402,6.25,-2.36888362495655E-14));
#614=CARTESIAN_POINT('',(0.,6.25,0.));
#615=CARTESIAN_POINT('',(-9.91442887916404,-6.25,-1.23279291145937E-14));
#616=CARTESIAN_POINT('',(0.,-6.25,0.));
#617=CARTESIAN_POINT('Origin',(0.,0.,-2.17111485040222E-14));
#618=CARTESIAN_POINT('Origin',(0.,0.,3.52));
#619=CARTESIAN_POINT('',(9.91442887916402,-6.25,3.52000000000002));
#620=CARTESIAN_POINT('',(9.91442887916402,6.25,3.52000000000002));
#621=CARTESIAN_POINT('Origin',(-1.90764593318847E-18,-3.0980380453144E-18,
3.52000000000002));
#622=CARTESIAN_POINT('',(-9.91442887916402,6.25,3.52000000000002));
#623=CARTESIAN_POINT('',(0.,6.25,3.52));
#624=CARTESIAN_POINT('',(-9.91442887916402,-6.25,3.52000000000002));
#625=CARTESIAN_POINT('Origin',(1.90764593317651E-18,3.09803804529498E-18,
3.52000000000002));
#626=CARTESIAN_POINT('',(0.,-6.25,3.52));
#627=CARTESIAN_POINT('Origin',(0.,0.,0.199999999998792));
#628=CARTESIAN_POINT('',(-10.1500689652807,6.25,0.199999999998186));
#629=CARTESIAN_POINT('Ctrl Pts',(-10.1500689652807,6.25,0.199999999998186));
#630=CARTESIAN_POINT('Ctrl Pts',(-10.0716293265085,6.25,0.133207404096268));
#631=CARTESIAN_POINT('Ctrl Pts',(-9.99308454968336,6.25,0.0665380589852636));
#632=CARTESIAN_POINT('Ctrl Pts',(-9.91442887916402,6.25,-2.36888362495655E-14));
#633=CARTESIAN_POINT('',(-10.1500689652806,-6.25,0.19999999999809));
#634=CARTESIAN_POINT('Ctrl Pts',(-9.91442887916404,-6.25,-1.23279291145937E-14));
#635=CARTESIAN_POINT('Ctrl Pts',(-9.9930845496831,-6.25,0.0665380589850473));
#636=CARTESIAN_POINT('Ctrl Pts',(-10.071629326508,-6.25,0.133207404095835));
#637=CARTESIAN_POINT('Ctrl Pts',(-10.1500689652806,-6.25,0.19999999999809));
#638=CARTESIAN_POINT('Origin',(0.,0.,0.199999999998791));
#639=CARTESIAN_POINT('Origin',(10.150068965283,6.25,0.));
#640=CARTESIAN_POINT('',(-10.1500689652807,6.25,3.32000000000181));
#641=CARTESIAN_POINT('',(-10.15006896528,6.25,0.));
#642=CARTESIAN_POINT('Ctrl Pts',(-10.1500689652807,6.25,3.32000000000181));
#643=CARTESIAN_POINT('Ctrl Pts',(-10.0716293265082,6.25,3.38679259590398));
#644=CARTESIAN_POINT('Ctrl Pts',(-9.99308454968321,6.25,3.45346194101486));
#645=CARTESIAN_POINT('Ctrl Pts',(-9.91442887916402,6.25,3.52000000000002));
#646=CARTESIAN_POINT('Ctrl Pts',(9.91442887916402,6.25,3.52000000000002));
#647=CARTESIAN_POINT('Ctrl Pts',(9.99308454968368,6.25,3.45346194101446));
#648=CARTESIAN_POINT('Ctrl Pts',(10.0716293265091,6.25,3.38679259590318));
#649=CARTESIAN_POINT('Ctrl Pts',(10.150068965283,6.25,3.31999999999993));
#650=CARTESIAN_POINT('Origin',(-10.15006896528,-6.25,0.));
#651=CARTESIAN_POINT('Ctrl Pts',(10.150068965283,-6.25,3.3199999999999));
#652=CARTESIAN_POINT('Ctrl Pts',(10.0716293265093,-6.25,3.38679259590306));
#653=CARTESIAN_POINT('Ctrl Pts',(9.99308454968375,-6.25,3.4534619410144));
#654=CARTESIAN_POINT('Ctrl Pts',(9.91442887916402,-6.25,3.52000000000002));
#655=CARTESIAN_POINT('',(-10.1500689652807,-6.25,3.32000000000121));
#656=CARTESIAN_POINT('Ctrl Pts',(-9.91442887916402,-6.25,3.52000000000002));
#657=CARTESIAN_POINT('Ctrl Pts',(-9.9930845496831,-6.25,3.45346194101495));
#658=CARTESIAN_POINT('Ctrl Pts',(-10.071629326508,-6.25,3.38679259590417));
#659=CARTESIAN_POINT('Ctrl Pts',(-10.1500689652807,-6.25,3.32000000000121));
#660=CARTESIAN_POINT('',(-10.15006896528,-6.25,0.));
#661=CARTESIAN_POINT('Origin',(-2.29624526625911E-49,-3.72912765019954E-49,
3.31999999999993));
#662=CARTESIAN_POINT('Origin',(2.29624526625936E-49,3.72912765019994E-49,
3.32000000000121));
#663=CARTESIAN_POINT('Origin',(0.,0.,3.32000000000121));
#664=CARTESIAN_POINT('Origin',(0.,0.,0.));
#665=UNCERTAINTY_MEASURE_WITH_UNIT(LENGTH_MEASURE(0.01),#669,
'DISTANCE_ACCURACY_VALUE',
'Maximum model space distance between geometric entities at asserted c
onnectivities');
#666=UNCERTAINTY_MEASURE_WITH_UNIT(LENGTH_MEASURE(0.01),#669,
'DISTANCE_ACCURACY_VALUE',
'Maximum model space distance between geometric entities at asserted c
onnectivities');
#667=(
GEOMETRIC_REPRESENTATION_CONTEXT(3)
GLOBAL_UNCERTAINTY_ASSIGNED_CONTEXT((#665))
GLOBAL_UNIT_ASSIGNED_CONTEXT((#669,#671,#672))
REPRESENTATION_CONTEXT('','3D')
);
#668=(
GEOMETRIC_REPRESENTATION_CONTEXT(3)
GLOBAL_UNCERTAINTY_ASSIGNED_CONTEXT((#666))
GLOBAL_UNIT_ASSIGNED_CONTEXT((#669,#671,#672))
REPRESENTATION_CONTEXT('','3D')
);
#669=(
LENGTH_UNIT()
NAMED_UNIT(*)
SI_UNIT(.MILLI.,.METRE.)
);
#670=(
LENGTH_UNIT()
NAMED_UNIT(*)
SI_UNIT($,.METRE.)
);
#671=(
NAMED_UNIT(*)
PLANE_ANGLE_UNIT()
SI_UNIT($,.RADIAN.)
);
#672=(
NAMED_UNIT(*)
SI_UNIT($,.STERADIAN.)
SOLID_ANGLE_UNIT()
);
#673=SHAPE_DEFINITION_REPRESENTATION(#674,#675);
#674=PRODUCT_DEFINITION_SHAPE('',$,#677);
#675=SHAPE_REPRESENTATION('',(#378),#667);
#676=PRODUCT_DEFINITION_CONTEXT('part definition',#681,'design');
#677=PRODUCT_DEFINITION('Fitting_brass_Z Axis_Acme Screw',
'Fitting_brass_Z Axis_Acme Screw v2',#678,#676);
#678=PRODUCT_DEFINITION_FORMATION('',$,#683);
#679=PRODUCT_RELATED_PRODUCT_CATEGORY(
'Fitting_brass_Z Axis_Acme Screw v2',
'Fitting_brass_Z Axis_Acme Screw v2',(#683));
#680=APPLICATION_PROTOCOL_DEFINITION('international standard',
'automotive_design',2009,#681);
#681=APPLICATION_CONTEXT(
'Core Data for Automotive Mechanical Design Process');
#682=PRODUCT_CONTEXT('part definition',#681,'mechanical');
#683=PRODUCT('Fitting_brass_Z Axis_Acme Screw',
'Fitting_brass_Z Axis_Acme Screw v2',$,(#682));
#684=PRESENTATION_STYLE_ASSIGNMENT((#686));
#685=PRESENTATION_STYLE_ASSIGNMENT((#687));
#686=SURFACE_STYLE_USAGE(.BOTH.,#688);
#687=SURFACE_STYLE_USAGE(.BOTH.,#689);
#688=SURFACE_SIDE_STYLE('',(#690));
#689=SURFACE_SIDE_STYLE('',(#691));
#690=SURFACE_STYLE_FILL_AREA(#692);
#691=SURFACE_STYLE_FILL_AREA(#693);
#692=FILL_AREA_STYLE('Plate',(#694));
#693=FILL_AREA_STYLE('Opaque(160,160,160)',(#695));
#694=FILL_AREA_STYLE_COLOUR('Plate',#696);
#695=FILL_AREA_STYLE_COLOUR('Opaque(160,160,160)',#697);
#696=COLOUR_RGB('Plate',0.6,0.6,0.6);
#697=COLOUR_RGB('Opaque(160,160,160)',0.627450980392157,0.627450980392157,
0.627450980392157);
ENDSEC;
END-ISO-10303-21;
