ISO-10303-21;
HEADER;
/* Generated by software containing ST-Developer
 * from STEP Tools, Inc. (www.steptools.com) 
 */

FILE_DESCRIPTION(
/* description */ (''),
/* implementation_level */ '2;1');

FILE_NAME(
/* name */ 'Roller.step',
/* time_stamp */ '2026-05-05T23:30:35-07:00',
/* author */ (''),
/* organization */ (''),
/* preprocessor_version */ 'ST-DEVELOPER v20.1',
/* originating_system */ 'Autodesk Translation Framework v15.8.0.0',
/* authorisation */ '');

FILE_SCHEMA (('AUTOMOTIVE_DESIGN { 1 0 10303 214 3 1 1 }'));
ENDSEC;

DATA;
#10=MECHANICAL_DESIGN_GEOMETRIC_PRESENTATION_REPRESENTATION('',(#13),#455);
#11=SHAPE_REPRESENTATION_RELATIONSHIP('SRR','None',#462,#12);
#12=ADVANCED_BREP_SHAPE_REPRESENTATION('',(#14),#454);
#13=STYLED_ITEM('',(#472),#14);
#14=MANIFOLD_SOLID_BREP('Body1',#248);
#15=FACE_BOUND('',#62,.T.);
#16=FACE_BOUND('',#64,.T.);
#17=FACE_BOUND('',#66,.T.);
#18=FACE_BOUND('',#68,.T.);
#19=FACE_BOUND('',#70,.T.);
#20=FACE_BOUND('',#72,.T.);
#21=FACE_BOUND('',#74,.T.);
#22=FACE_BOUND('',#76,.T.);
#23=PLANE('',#291);
#24=PLANE('',#292);
#25=PLANE('',#293);
#26=PLANE('',#294);
#27=PLANE('',#295);
#28=PLANE('',#296);
#29=PLANE('',#297);
#30=PLANE('',#298);
#31=CONICAL_SURFACE('',#266,12.0399999999996,0.785398163397);
#32=CONICAL_SURFACE('',#268,12.0399999999996,0.785398163397);
#33=FACE_OUTER_BOUND('',#51,.T.);
#34=FACE_OUTER_BOUND('',#52,.T.);
#35=FACE_OUTER_BOUND('',#53,.T.);
#36=FACE_OUTER_BOUND('',#54,.T.);
#37=FACE_OUTER_BOUND('',#55,.T.);
#38=FACE_OUTER_BOUND('',#56,.T.);
#39=FACE_OUTER_BOUND('',#57,.T.);
#40=FACE_OUTER_BOUND('',#58,.T.);
#41=FACE_OUTER_BOUND('',#59,.T.);
#42=FACE_OUTER_BOUND('',#60,.T.);
#43=FACE_OUTER_BOUND('',#61,.T.);
#44=FACE_OUTER_BOUND('',#63,.T.);
#45=FACE_OUTER_BOUND('',#65,.T.);
#46=FACE_OUTER_BOUND('',#67,.T.);
#47=FACE_OUTER_BOUND('',#69,.T.);
#48=FACE_OUTER_BOUND('',#71,.T.);
#49=FACE_OUTER_BOUND('',#73,.T.);
#50=FACE_OUTER_BOUND('',#75,.T.);
#51=EDGE_LOOP('',(#164,#165,#166,#167,#168));
#52=EDGE_LOOP('',(#169,#170,#171,#172));
#53=EDGE_LOOP('',(#173,#174,#175,#176,#177));
#54=EDGE_LOOP('',(#178,#179,#180,#181));
#55=EDGE_LOOP('',(#182,#183,#184,#185));
#56=EDGE_LOOP('',(#186,#187,#188,#189));
#57=EDGE_LOOP('',(#190,#191,#192,#193));
#58=EDGE_LOOP('',(#194,#195,#196,#197));
#59=EDGE_LOOP('',(#198,#199,#200,#201));
#60=EDGE_LOOP('',(#202,#203,#204,#205));
#61=EDGE_LOOP('',(#206));
#62=EDGE_LOOP('',(#207));
#63=EDGE_LOOP('',(#208));
#64=EDGE_LOOP('',(#209));
#65=EDGE_LOOP('',(#210));
#66=EDGE_LOOP('',(#211));
#67=EDGE_LOOP('',(#212));
#68=EDGE_LOOP('',(#213));
#69=EDGE_LOOP('',(#214));
#70=EDGE_LOOP('',(#215));
#71=EDGE_LOOP('',(#216));
#72=EDGE_LOOP('',(#217));
#73=EDGE_LOOP('',(#218));
#74=EDGE_LOOP('',(#219));
#75=EDGE_LOOP('',(#220));
#76=EDGE_LOOP('',(#221));
#77=LINE('',#391,#87);
#78=LINE('',#396,#88);
#79=LINE('',#400,#89);
#80=LINE('',#406,#90);
#81=LINE('',#412,#91);
#82=LINE('',#418,#92);
#83=LINE('',#424,#93);
#84=LINE('',#430,#94);
#85=LINE('',#436,#95);
#86=LINE('',#442,#96);
#87=VECTOR('',#305,12.04);
#88=VECTOR('',#312,12.0399999999996);
#89=VECTOR('',#317,12.0399999999996);
#90=VECTOR('',#324,8.);
#91=VECTOR('',#331,8.);
#92=VECTOR('',#338,7.8);
#93=VECTOR('',#345,7.8);
#94=VECTOR('',#352,4.27);
#95=VECTOR('',#359,4.27);
#96=VECTOR('',#366,2.48);
#97=CIRCLE('',#263,12.04);
#98=CIRCLE('',#264,12.04);
#99=CIRCLE('',#265,12.04);
#100=CIRCLE('',#267,10.0400000000004);
#101=CIRCLE('',#269,10.0400000000004);
#102=CIRCLE('',#271,8.);
#103=CIRCLE('',#272,8.);
#104=CIRCLE('',#274,8.);
#105=CIRCLE('',#275,8.);
#106=CIRCLE('',#277,7.8);
#107=CIRCLE('',#278,7.8);
#108=CIRCLE('',#280,7.8);
#109=CIRCLE('',#281,7.8);
#110=CIRCLE('',#283,4.27);
#111=CIRCLE('',#284,4.27);
#112=CIRCLE('',#286,4.27);
#113=CIRCLE('',#287,4.27);
#114=CIRCLE('',#289,2.48);
#115=CIRCLE('',#290,2.48);
#116=VERTEX_POINT('',#387);
#117=VERTEX_POINT('',#388);
#118=VERTEX_POINT('',#390);
#119=VERTEX_POINT('',#395);
#120=VERTEX_POINT('',#399);
#121=VERTEX_POINT('',#403);
#122=VERTEX_POINT('',#405);
#123=VERTEX_POINT('',#409);
#124=VERTEX_POINT('',#411);
#125=VERTEX_POINT('',#415);
#126=VERTEX_POINT('',#417);
#127=VERTEX_POINT('',#421);
#128=VERTEX_POINT('',#423);
#129=VERTEX_POINT('',#427);
#130=VERTEX_POINT('',#429);
#131=VERTEX_POINT('',#433);
#132=VERTEX_POINT('',#435);
#133=VERTEX_POINT('',#439);
#134=VERTEX_POINT('',#441);
#135=EDGE_CURVE('',#116,#117,#97,.T.);
#136=EDGE_CURVE('',#117,#118,#77,.T.);
#137=EDGE_CURVE('',#118,#118,#98,.T.);
#138=EDGE_CURVE('',#117,#116,#99,.T.);
#139=EDGE_CURVE('',#118,#119,#78,.T.);
#140=EDGE_CURVE('',#119,#119,#100,.T.);
#141=EDGE_CURVE('',#116,#120,#79,.T.);
#142=EDGE_CURVE('',#120,#120,#101,.T.);
#143=EDGE_CURVE('',#121,#121,#102,.T.);
#144=EDGE_CURVE('',#121,#122,#80,.T.);
#145=EDGE_CURVE('',#122,#122,#103,.T.);
#146=EDGE_CURVE('',#123,#123,#104,.T.);
#147=EDGE_CURVE('',#123,#124,#81,.T.);
#148=EDGE_CURVE('',#124,#124,#105,.T.);
#149=EDGE_CURVE('',#125,#125,#106,.T.);
#150=EDGE_CURVE('',#125,#126,#82,.T.);
#151=EDGE_CURVE('',#126,#126,#107,.T.);
#152=EDGE_CURVE('',#127,#127,#108,.T.);
#153=EDGE_CURVE('',#127,#128,#83,.T.);
#154=EDGE_CURVE('',#128,#128,#109,.T.);
#155=EDGE_CURVE('',#129,#129,#110,.T.);
#156=EDGE_CURVE('',#129,#130,#84,.T.);
#157=EDGE_CURVE('',#130,#130,#111,.T.);
#158=EDGE_CURVE('',#131,#131,#112,.T.);
#159=EDGE_CURVE('',#131,#132,#85,.T.);
#160=EDGE_CURVE('',#132,#132,#113,.T.);
#161=EDGE_CURVE('',#133,#133,#114,.T.);
#162=EDGE_CURVE('',#133,#134,#86,.T.);
#163=EDGE_CURVE('',#134,#134,#115,.T.);
#164=ORIENTED_EDGE('',*,*,#135,.T.);
#165=ORIENTED_EDGE('',*,*,#136,.T.);
#166=ORIENTED_EDGE('',*,*,#137,.T.);
#167=ORIENTED_EDGE('',*,*,#136,.F.);
#168=ORIENTED_EDGE('',*,*,#138,.T.);
#169=ORIENTED_EDGE('',*,*,#137,.F.);
#170=ORIENTED_EDGE('',*,*,#139,.T.);
#171=ORIENTED_EDGE('',*,*,#140,.T.);
#172=ORIENTED_EDGE('',*,*,#139,.F.);
#173=ORIENTED_EDGE('',*,*,#135,.F.);
#174=ORIENTED_EDGE('',*,*,#141,.T.);
#175=ORIENTED_EDGE('',*,*,#142,.T.);
#176=ORIENTED_EDGE('',*,*,#141,.F.);
#177=ORIENTED_EDGE('',*,*,#138,.F.);
#178=ORIENTED_EDGE('',*,*,#143,.F.);
#179=ORIENTED_EDGE('',*,*,#144,.T.);
#180=ORIENTED_EDGE('',*,*,#145,.T.);
#181=ORIENTED_EDGE('',*,*,#144,.F.);
#182=ORIENTED_EDGE('',*,*,#146,.F.);
#183=ORIENTED_EDGE('',*,*,#147,.T.);
#184=ORIENTED_EDGE('',*,*,#148,.F.);
#185=ORIENTED_EDGE('',*,*,#147,.F.);
#186=ORIENTED_EDGE('',*,*,#149,.T.);
#187=ORIENTED_EDGE('',*,*,#150,.T.);
#188=ORIENTED_EDGE('',*,*,#151,.T.);
#189=ORIENTED_EDGE('',*,*,#150,.F.);
#190=ORIENTED_EDGE('',*,*,#152,.F.);
#191=ORIENTED_EDGE('',*,*,#153,.T.);
#192=ORIENTED_EDGE('',*,*,#154,.T.);
#193=ORIENTED_EDGE('',*,*,#153,.F.);
#194=ORIENTED_EDGE('',*,*,#155,.T.);
#195=ORIENTED_EDGE('',*,*,#156,.T.);
#196=ORIENTED_EDGE('',*,*,#157,.T.);
#197=ORIENTED_EDGE('',*,*,#156,.F.);
#198=ORIENTED_EDGE('',*,*,#158,.T.);
#199=ORIENTED_EDGE('',*,*,#159,.T.);
#200=ORIENTED_EDGE('',*,*,#160,.F.);
#201=ORIENTED_EDGE('',*,*,#159,.F.);
#202=ORIENTED_EDGE('',*,*,#161,.T.);
#203=ORIENTED_EDGE('',*,*,#162,.T.);
#204=ORIENTED_EDGE('',*,*,#163,.F.);
#205=ORIENTED_EDGE('',*,*,#162,.F.);
#206=ORIENTED_EDGE('',*,*,#140,.F.);
#207=ORIENTED_EDGE('',*,*,#145,.F.);
#208=ORIENTED_EDGE('',*,*,#142,.F.);
#209=ORIENTED_EDGE('',*,*,#146,.T.);
#210=ORIENTED_EDGE('',*,*,#143,.T.);
#211=ORIENTED_EDGE('',*,*,#151,.F.);
#212=ORIENTED_EDGE('',*,*,#148,.T.);
#213=ORIENTED_EDGE('',*,*,#152,.T.);
#214=ORIENTED_EDGE('',*,*,#149,.F.);
#215=ORIENTED_EDGE('',*,*,#155,.F.);
#216=ORIENTED_EDGE('',*,*,#154,.F.);
#217=ORIENTED_EDGE('',*,*,#160,.T.);
#218=ORIENTED_EDGE('',*,*,#157,.F.);
#219=ORIENTED_EDGE('',*,*,#161,.F.);
#220=ORIENTED_EDGE('',*,*,#158,.F.);
#221=ORIENTED_EDGE('',*,*,#163,.T.);
#222=CYLINDRICAL_SURFACE('',#262,12.04);
#223=CYLINDRICAL_SURFACE('',#270,8.);
#224=CYLINDRICAL_SURFACE('',#273,8.);
#225=CYLINDRICAL_SURFACE('',#276,7.8);
#226=CYLINDRICAL_SURFACE('',#279,7.8);
#227=CYLINDRICAL_SURFACE('',#282,4.27);
#228=CYLINDRICAL_SURFACE('',#285,4.27);
#229=CYLINDRICAL_SURFACE('',#288,2.48);
#230=ADVANCED_FACE('',(#33),#222,.T.);
#231=ADVANCED_FACE('',(#34),#31,.T.);
#232=ADVANCED_FACE('',(#35),#32,.T.);
#233=ADVANCED_FACE('',(#36),#223,.F.);
#234=ADVANCED_FACE('',(#37),#224,.F.);
#235=ADVANCED_FACE('',(#38),#225,.T.);
#236=ADVANCED_FACE('',(#39),#226,.T.);
#237=ADVANCED_FACE('',(#40),#227,.T.);
#238=ADVANCED_FACE('',(#41),#228,.T.);
#239=ADVANCED_FACE('',(#42),#229,.F.);
#240=ADVANCED_FACE('',(#43,#15),#23,.F.);
#241=ADVANCED_FACE('',(#44,#16),#24,.T.);
#242=ADVANCED_FACE('',(#45,#17),#25,.F.);
#243=ADVANCED_FACE('',(#46,#18),#26,.T.);
#244=ADVANCED_FACE('',(#47,#19),#27,.F.);
#245=ADVANCED_FACE('',(#48,#20),#28,.T.);
#246=ADVANCED_FACE('',(#49,#21),#29,.F.);
#247=ADVANCED_FACE('',(#50,#22),#30,.T.);
#248=CLOSED_SHELL('',(#230,#231,#232,#233,#234,#235,#236,#237,#238,#239,
#240,#241,#242,#243,#244,#245,#246,#247));
#249=DERIVED_UNIT_ELEMENT(#251,1.);
#250=DERIVED_UNIT_ELEMENT(#457,-3.);
#251=(
MASS_UNIT()
NAMED_UNIT(*)
SI_UNIT(.KILO.,.GRAM.)
);
#252=DERIVED_UNIT((#249,#250));
#253=MEASURE_REPRESENTATION_ITEM('density measure',
POSITIVE_RATIO_MEASURE(7850.),#252);
#254=PROPERTY_DEFINITION_REPRESENTATION(#259,#256);
#255=PROPERTY_DEFINITION_REPRESENTATION(#260,#257);
#256=REPRESENTATION('material name',(#258),#454);
#257=REPRESENTATION('density',(#253),#454);
#258=DESCRIPTIVE_REPRESENTATION_ITEM('Steel','Steel');
#259=PROPERTY_DEFINITION('material property','material name',#464);
#260=PROPERTY_DEFINITION('material property','density of part',#464);
#261=AXIS2_PLACEMENT_3D('',#385,#299,#300);
#262=AXIS2_PLACEMENT_3D('',#386,#301,#302);
#263=AXIS2_PLACEMENT_3D('',#389,#303,#304);
#264=AXIS2_PLACEMENT_3D('',#392,#306,#307);
#265=AXIS2_PLACEMENT_3D('',#393,#308,#309);
#266=AXIS2_PLACEMENT_3D('',#394,#310,#311);
#267=AXIS2_PLACEMENT_3D('',#397,#313,#314);
#268=AXIS2_PLACEMENT_3D('',#398,#315,#316);
#269=AXIS2_PLACEMENT_3D('',#401,#318,#319);
#270=AXIS2_PLACEMENT_3D('',#402,#320,#321);
#271=AXIS2_PLACEMENT_3D('',#404,#322,#323);
#272=AXIS2_PLACEMENT_3D('',#407,#325,#326);
#273=AXIS2_PLACEMENT_3D('',#408,#327,#328);
#274=AXIS2_PLACEMENT_3D('',#410,#329,#330);
#275=AXIS2_PLACEMENT_3D('',#413,#332,#333);
#276=AXIS2_PLACEMENT_3D('',#414,#334,#335);
#277=AXIS2_PLACEMENT_3D('',#416,#336,#337);
#278=AXIS2_PLACEMENT_3D('',#419,#339,#340);
#279=AXIS2_PLACEMENT_3D('',#420,#341,#342);
#280=AXIS2_PLACEMENT_3D('',#422,#343,#344);
#281=AXIS2_PLACEMENT_3D('',#425,#346,#347);
#282=AXIS2_PLACEMENT_3D('',#426,#348,#349);
#283=AXIS2_PLACEMENT_3D('',#428,#350,#351);
#284=AXIS2_PLACEMENT_3D('',#431,#353,#354);
#285=AXIS2_PLACEMENT_3D('',#432,#355,#356);
#286=AXIS2_PLACEMENT_3D('',#434,#357,#358);
#287=AXIS2_PLACEMENT_3D('',#437,#360,#361);
#288=AXIS2_PLACEMENT_3D('',#438,#362,#363);
#289=AXIS2_PLACEMENT_3D('',#440,#364,#365);
#290=AXIS2_PLACEMENT_3D('',#443,#367,#368);
#291=AXIS2_PLACEMENT_3D('',#444,#369,#370);
#292=AXIS2_PLACEMENT_3D('',#445,#371,#372);
#293=AXIS2_PLACEMENT_3D('',#446,#373,#374);
#294=AXIS2_PLACEMENT_3D('',#447,#375,#376);
#295=AXIS2_PLACEMENT_3D('',#448,#377,#378);
#296=AXIS2_PLACEMENT_3D('',#449,#379,#380);
#297=AXIS2_PLACEMENT_3D('',#450,#381,#382);
#298=AXIS2_PLACEMENT_3D('',#451,#383,#384);
#299=DIRECTION('axis',(0.,0.,1.));
#300=DIRECTION('refdir',(1.,0.,0.));
#301=DIRECTION('center_axis',(0.,0.,1.));
#302=DIRECTION('ref_axis',(1.,0.,0.));
#303=DIRECTION('center_axis',(0.,0.,-1.));
#304=DIRECTION('ref_axis',(1.,0.,0.));
#305=DIRECTION('',(0.,0.,-1.));
#306=DIRECTION('center_axis',(0.,0.,1.));
#307=DIRECTION('ref_axis',(1.,0.,0.));
#308=DIRECTION('center_axis',(0.,0.,-1.));
#309=DIRECTION('ref_axis',(1.,0.,0.));
#310=DIRECTION('center_axis',(0.,0.,1.));
#311=DIRECTION('ref_axis',(1.,0.,0.));
#312=DIRECTION('',(0.707106781186231,8.65956056235105E-17,-0.707106781186865));
#313=DIRECTION('center_axis',(0.,0.,1.));
#314=DIRECTION('ref_axis',(1.,0.,0.));
#315=DIRECTION('center_axis',(0.,-7.20400114608335E-17,-1.));
#316=DIRECTION('ref_axis',(0.,1.,-7.20400114608335E-17));
#317=DIRECTION('',(8.65956056235105E-17,0.707106781186231,0.707106781186864));
#318=DIRECTION('center_axis',(0.,-7.20400114608335E-17,-1.));
#319=DIRECTION('ref_axis',(0.,1.,-7.20400114608335E-17));
#320=DIRECTION('center_axis',(0.,0.,-1.));
#321=DIRECTION('ref_axis',(-1.,0.,0.));
#322=DIRECTION('center_axis',(0.,0.,-1.));
#323=DIRECTION('ref_axis',(-1.,0.,0.));
#324=DIRECTION('',(0.,0.,-1.));
#325=DIRECTION('center_axis',(0.,0.,-1.));
#326=DIRECTION('ref_axis',(-1.,0.,0.));
#327=DIRECTION('center_axis',(0.,0.,-1.));
#328=DIRECTION('ref_axis',(-1.,0.,0.));
#329=DIRECTION('center_axis',(0.,0.,-1.));
#330=DIRECTION('ref_axis',(-1.,0.,0.));
#331=DIRECTION('',(0.,0.,-1.));
#332=DIRECTION('center_axis',(0.,0.,1.));
#333=DIRECTION('ref_axis',(-1.,0.,0.));
#334=DIRECTION('center_axis',(0.,0.,-1.));
#335=DIRECTION('ref_axis',(-1.,0.,0.));
#336=DIRECTION('center_axis',(0.,0.,1.));
#337=DIRECTION('ref_axis',(-1.,0.,0.));
#338=DIRECTION('',(0.,0.,1.));
#339=DIRECTION('center_axis',(0.,0.,-1.));
#340=DIRECTION('ref_axis',(-1.,0.,0.));
#341=DIRECTION('center_axis',(0.,0.,-1.));
#342=DIRECTION('ref_axis',(-1.,0.,0.));
#343=DIRECTION('center_axis',(0.,0.,-1.));
#344=DIRECTION('ref_axis',(-1.,0.,0.));
#345=DIRECTION('',(0.,0.,1.));
#346=DIRECTION('center_axis',(0.,0.,-1.));
#347=DIRECTION('ref_axis',(-1.,0.,0.));
#348=DIRECTION('center_axis',(0.,0.,1.));
#349=DIRECTION('ref_axis',(1.,0.,0.));
#350=DIRECTION('center_axis',(0.,0.,-1.));
#351=DIRECTION('ref_axis',(1.,0.,0.));
#352=DIRECTION('',(0.,0.,-1.));
#353=DIRECTION('center_axis',(0.,0.,1.));
#354=DIRECTION('ref_axis',(1.,0.,0.));
#355=DIRECTION('center_axis',(0.,0.,1.));
#356=DIRECTION('ref_axis',(1.,0.,0.));
#357=DIRECTION('center_axis',(0.,0.,-1.));
#358=DIRECTION('ref_axis',(1.,0.,0.));
#359=DIRECTION('',(0.,0.,-1.));
#360=DIRECTION('center_axis',(0.,0.,-1.));
#361=DIRECTION('ref_axis',(1.,0.,0.));
#362=DIRECTION('center_axis',(0.,0.,1.));
#363=DIRECTION('ref_axis',(1.,0.,0.));
#364=DIRECTION('center_axis',(0.,0.,-1.));
#365=DIRECTION('ref_axis',(1.,0.,0.));
#366=DIRECTION('',(0.,0.,1.));
#367=DIRECTION('center_axis',(0.,0.,-1.));
#368=DIRECTION('ref_axis',(1.,0.,0.));
#369=DIRECTION('center_axis',(0.,0.,1.));
#370=DIRECTION('ref_axis',(1.,0.,0.));
#371=DIRECTION('center_axis',(0.,0.,1.));
#372=DIRECTION('ref_axis',(1.,0.,0.));
#373=DIRECTION('center_axis',(0.,0.,1.));
#374=DIRECTION('ref_axis',(1.,0.,0.));
#375=DIRECTION('center_axis',(0.,0.,1.));
#376=DIRECTION('ref_axis',(1.,0.,0.));
#377=DIRECTION('center_axis',(0.,0.,1.));
#378=DIRECTION('ref_axis',(1.,0.,0.));
#379=DIRECTION('center_axis',(0.,0.,1.));
#380=DIRECTION('ref_axis',(1.,0.,0.));
#381=DIRECTION('center_axis',(0.,0.,1.));
#382=DIRECTION('ref_axis',(1.,0.,0.));
#383=DIRECTION('center_axis',(0.,0.,1.));
#384=DIRECTION('ref_axis',(1.,0.,0.));
#385=CARTESIAN_POINT('',(0.,0.,0.));
#386=CARTESIAN_POINT('Origin',(0.,0.,0.));
#387=CARTESIAN_POINT('',(-1.47447474617336E-15,-12.0399999999996,8.25999999999955));
#388=CARTESIAN_POINT('',(-12.04,-1.47447474617341E-15,8.26));
#389=CARTESIAN_POINT('Origin',(0.,0.,8.26));
#390=CARTESIAN_POINT('',(-12.04,-1.47447474617341E-15,2.));
#391=CARTESIAN_POINT('',(-12.04,-1.47447474617341E-15,0.));
#392=CARTESIAN_POINT('Origin',(0.,0.,2.));
#393=CARTESIAN_POINT('Origin',(0.,0.,8.26));
#394=CARTESIAN_POINT('Origin',(0.,0.,2.00000000000045));
#395=CARTESIAN_POINT('',(-10.0400000000004,-1.229545386344E-15,-4.49917880729345E-13));
#396=CARTESIAN_POINT('',(-12.0399999999996,-1.47447474617336E-15,2.00000000000045));
#397=CARTESIAN_POINT('Origin',(0.,0.,-4.49293380277993E-13));
#398=CARTESIAN_POINT('Origin',(0.,0.,8.25999999999955));
#399=CARTESIAN_POINT('',(-1.229545386344E-15,-10.0400000000004,10.2600000000005));
#400=CARTESIAN_POINT('',(-1.47447474617336E-15,-12.0399999999996,8.25999999999955));
#401=CARTESIAN_POINT('Origin',(0.,1.44080022921732E-16,10.2600000000004));
#402=CARTESIAN_POINT('Origin',(0.,0.,0.));
#403=CARTESIAN_POINT('',(8.,-9.79717439317883E-16,0.2));
#404=CARTESIAN_POINT('Origin',(0.,0.,0.2));
#405=CARTESIAN_POINT('',(8.,-9.79717439317883E-16,0.));
#406=CARTESIAN_POINT('',(8.,-9.79717439317883E-16,0.));
#407=CARTESIAN_POINT('Origin',(0.,0.,0.));
#408=CARTESIAN_POINT('Origin',(0.,0.,10.26));
#409=CARTESIAN_POINT('',(8.,-9.79717439317883E-16,10.26));
#410=CARTESIAN_POINT('Origin',(0.,0.,10.26));
#411=CARTESIAN_POINT('',(8.,-9.79717439317883E-16,10.06));
#412=CARTESIAN_POINT('',(8.,-9.79717439317883E-16,10.26));
#413=CARTESIAN_POINT('Origin',(0.,0.,10.06));
#414=CARTESIAN_POINT('Origin',(0.,0.,0.));
#415=CARTESIAN_POINT('',(7.8,-9.55224503334935E-16,0.));
#416=CARTESIAN_POINT('Origin',(0.,0.,0.));
#417=CARTESIAN_POINT('',(7.8,-9.55224503334935E-16,0.2));
#418=CARTESIAN_POINT('',(7.8,-9.55224503334935E-16,0.));
#419=CARTESIAN_POINT('Origin',(0.,0.,0.2));
#420=CARTESIAN_POINT('Origin',(0.,0.,10.26));
#421=CARTESIAN_POINT('',(7.8,-9.55224503334935E-16,10.06));
#422=CARTESIAN_POINT('Origin',(0.,0.,10.06));
#423=CARTESIAN_POINT('',(7.8,-9.55224503334935E-16,10.26));
#424=CARTESIAN_POINT('',(7.8,-9.55224503334935E-16,10.26));
#425=CARTESIAN_POINT('Origin',(0.,0.,10.26));
#426=CARTESIAN_POINT('Origin',(0.,0.,0.));
#427=CARTESIAN_POINT('',(-4.27,-5.2292418323592E-16,0.));
#428=CARTESIAN_POINT('Origin',(0.,0.,0.));
#429=CARTESIAN_POINT('',(-4.27,-5.2292418323592E-16,-0.1));
#430=CARTESIAN_POINT('',(-4.27,-5.2292418323592E-16,0.));
#431=CARTESIAN_POINT('Origin',(0.,0.,-0.1));
#432=CARTESIAN_POINT('Origin',(0.,0.,10.26));
#433=CARTESIAN_POINT('',(-4.27,-5.2292418323592E-16,10.36));
#434=CARTESIAN_POINT('Origin',(0.,0.,10.36));
#435=CARTESIAN_POINT('',(-4.27,-5.2292418323592E-16,10.26));
#436=CARTESIAN_POINT('',(-4.27,-5.2292418323592E-16,10.26));
#437=CARTESIAN_POINT('Origin',(0.,0.,10.26));
#438=CARTESIAN_POINT('Origin',(0.,0.,-25.30628178485));
#439=CARTESIAN_POINT('',(-2.48,-3.03712406188544E-16,-0.0999999999999979));
#440=CARTESIAN_POINT('Origin',(0.,0.,-0.0999999999999994));
#441=CARTESIAN_POINT('',(-2.48,-3.03712406188544E-16,10.36));
#442=CARTESIAN_POINT('',(-2.48,-3.03712406188544E-16,-25.30628178485));
#443=CARTESIAN_POINT('Origin',(0.,0.,10.36));
#444=CARTESIAN_POINT('Origin',(0.,0.,0.));
#445=CARTESIAN_POINT('Origin',(0.,0.,10.26));
#446=CARTESIAN_POINT('Origin',(0.,0.,0.2));
#447=CARTESIAN_POINT('Origin',(0.,0.,10.06));
#448=CARTESIAN_POINT('Origin',(0.,0.,0.));
#449=CARTESIAN_POINT('Origin',(0.,0.,10.26));
#450=CARTESIAN_POINT('Origin',(0.,0.,-0.1));
#451=CARTESIAN_POINT('Origin',(0.,0.,10.36));
#452=UNCERTAINTY_MEASURE_WITH_UNIT(LENGTH_MEASURE(0.01),#456,
'DISTANCE_ACCURACY_VALUE',
'Maximum model space distance between geometric entities at asserted c
onnectivities');
#453=UNCERTAINTY_MEASURE_WITH_UNIT(LENGTH_MEASURE(0.01),#456,
'DISTANCE_ACCURACY_VALUE',
'Maximum model space distance between geometric entities at asserted c
onnectivities');
#454=(
GEOMETRIC_REPRESENTATION_CONTEXT(3)
GLOBAL_UNCERTAINTY_ASSIGNED_CONTEXT((#452))
GLOBAL_UNIT_ASSIGNED_CONTEXT((#456,#458,#459))
REPRESENTATION_CONTEXT('','3D')
);
#455=(
GEOMETRIC_REPRESENTATION_CONTEXT(3)
GLOBAL_UNCERTAINTY_ASSIGNED_CONTEXT((#453))
GLOBAL_UNIT_ASSIGNED_CONTEXT((#456,#458,#459))
REPRESENTATION_CONTEXT('','3D')
);
#456=(
LENGTH_UNIT()
NAMED_UNIT(*)
SI_UNIT(.MILLI.,.METRE.)
);
#457=(
LENGTH_UNIT()
NAMED_UNIT(*)
SI_UNIT($,.METRE.)
);
#458=(
NAMED_UNIT(*)
PLANE_ANGLE_UNIT()
SI_UNIT($,.RADIAN.)
);
#459=(
NAMED_UNIT(*)
SI_UNIT($,.STERADIAN.)
SOLID_ANGLE_UNIT()
);
#460=SHAPE_DEFINITION_REPRESENTATION(#461,#462);
#461=PRODUCT_DEFINITION_SHAPE('',$,#464);
#462=SHAPE_REPRESENTATION('',(#261),#454);
#463=PRODUCT_DEFINITION_CONTEXT('part definition',#468,'design');
#464=PRODUCT_DEFINITION('Roller_Polymer_Axis','Roller v1',#465,#463);
#465=PRODUCT_DEFINITION_FORMATION('',$,#470);
#466=PRODUCT_RELATED_PRODUCT_CATEGORY('Roller v1','Roller v1',(#470));
#467=APPLICATION_PROTOCOL_DEFINITION('international standard',
'automotive_design',2009,#468);
#468=APPLICATION_CONTEXT(
'Core Data for Automotive Mechanical Design Process');
#469=PRODUCT_CONTEXT('part definition',#468,'mechanical');
#470=PRODUCT('Roller_Polymer_Axis','Roller v1',$,(#469));
#471=PRESENTATION_STYLE_ASSIGNMENT((#473));
#472=PRESENTATION_STYLE_ASSIGNMENT((#474));
#473=SURFACE_STYLE_USAGE(.BOTH.,#475);
#474=SURFACE_STYLE_USAGE(.BOTH.,#476);
#475=SURFACE_SIDE_STYLE('',(#477));
#476=SURFACE_SIDE_STYLE('',(#478));
#477=SURFACE_STYLE_FILL_AREA(#479);
#478=SURFACE_STYLE_FILL_AREA(#480);
#479=FILL_AREA_STYLE('Plate',(#481));
#480=FILL_AREA_STYLE('Opaque(160,160,160)',(#482));
#481=FILL_AREA_STYLE_COLOUR('Plate',#483);
#482=FILL_AREA_STYLE_COLOUR('Opaque(160,160,160)',#484);
#483=COLOUR_RGB('Plate',0.6,0.6,0.6);
#484=COLOUR_RGB('Opaque(160,160,160)',0.627450980392157,0.627450980392157,
0.627450980392157);
ENDSEC;
END-ISO-10303-21;
