ISO-10303-21;
HEADER;
/* Generated by software containing ST-Developer
 * from STEP Tools, Inc. (www.steptools.com) 
 */

FILE_DESCRIPTION(
/* description */ (''),
/* implementation_level */ '2;1');

FILE_NAME(
/* name */ 'SpoilBoard.step',
/* time_stamp */ '2026-05-05T23:30:42-07:00',
/* author */ (''),
/* organization */ (''),
/* preprocessor_version */ 'ST-DEVELOPER v20.1',
/* originating_system */ 'Autodesk Translation Framework v15.8.0.0',
/* authorisation */ '');

FILE_SCHEMA (('AUTOMOTIVE_DESIGN { 1 0 10303 214 3 1 1 }'));
ENDSEC;

DATA;
#10=MECHANICAL_DESIGN_GEOMETRIC_PRESENTATION_REPRESENTATION('',(#13),#1548);
#11=SHAPE_REPRESENTATION_RELATIONSHIP('SRR','None',#1555,#12);
#12=ADVANCED_BREP_SHAPE_REPRESENTATION('',(#14),#1547);
#13=STYLED_ITEM('',(#1565),#14);
#14=MANIFOLD_SOLID_BREP('Body1',#912);
#15=FACE_BOUND('',#172,.T.);
#16=FACE_BOUND('',#173,.T.);
#17=FACE_BOUND('',#174,.T.);
#18=FACE_BOUND('',#175,.T.);
#19=FACE_BOUND('',#176,.T.);
#20=FACE_BOUND('',#177,.T.);
#21=FACE_BOUND('',#178,.T.);
#22=FACE_BOUND('',#179,.T.);
#23=FACE_BOUND('',#180,.T.);
#24=FACE_BOUND('',#181,.T.);
#25=FACE_BOUND('',#182,.T.);
#26=FACE_BOUND('',#183,.T.);
#27=FACE_BOUND('',#184,.T.);
#28=FACE_BOUND('',#185,.T.);
#29=FACE_BOUND('',#186,.T.);
#30=FACE_BOUND('',#187,.T.);
#31=FACE_BOUND('',#188,.T.);
#32=FACE_BOUND('',#189,.T.);
#33=FACE_BOUND('',#190,.T.);
#34=FACE_BOUND('',#191,.T.);
#35=FACE_BOUND('',#192,.T.);
#36=FACE_BOUND('',#193,.T.);
#37=FACE_BOUND('',#194,.T.);
#38=FACE_BOUND('',#195,.T.);
#39=FACE_BOUND('',#196,.T.);
#40=FACE_BOUND('',#197,.T.);
#41=FACE_BOUND('',#198,.T.);
#42=FACE_BOUND('',#199,.T.);
#43=FACE_BOUND('',#200,.T.);
#44=FACE_BOUND('',#201,.T.);
#45=FACE_BOUND('',#202,.T.);
#46=FACE_BOUND('',#203,.T.);
#47=FACE_BOUND('',#204,.T.);
#48=FACE_BOUND('',#205,.T.);
#49=FACE_BOUND('',#206,.T.);
#50=FACE_BOUND('',#208,.T.);
#51=FACE_BOUND('',#209,.T.);
#52=FACE_BOUND('',#210,.T.);
#53=FACE_BOUND('',#211,.T.);
#54=FACE_BOUND('',#212,.T.);
#55=FACE_BOUND('',#213,.T.);
#56=FACE_BOUND('',#214,.T.);
#57=FACE_BOUND('',#215,.T.);
#58=FACE_BOUND('',#216,.T.);
#59=FACE_BOUND('',#217,.T.);
#60=FACE_BOUND('',#218,.T.);
#61=FACE_BOUND('',#219,.T.);
#62=FACE_BOUND('',#220,.T.);
#63=FACE_BOUND('',#221,.T.);
#64=FACE_BOUND('',#222,.T.);
#65=FACE_BOUND('',#223,.T.);
#66=FACE_BOUND('',#224,.T.);
#67=FACE_BOUND('',#225,.T.);
#68=FACE_BOUND('',#226,.T.);
#69=FACE_BOUND('',#227,.T.);
#70=FACE_BOUND('',#228,.T.);
#71=FACE_BOUND('',#229,.T.);
#72=FACE_BOUND('',#230,.T.);
#73=FACE_BOUND('',#231,.T.);
#74=FACE_BOUND('',#232,.T.);
#75=FACE_BOUND('',#233,.T.);
#76=FACE_BOUND('',#234,.T.);
#77=FACE_BOUND('',#235,.T.);
#78=FACE_BOUND('',#236,.T.);
#79=FACE_BOUND('',#237,.T.);
#80=FACE_BOUND('',#238,.T.);
#81=FACE_BOUND('',#239,.T.);
#82=FACE_BOUND('',#240,.T.);
#83=FACE_BOUND('',#241,.T.);
#84=FACE_BOUND('',#242,.T.);
#85=PLANE('',#1031);
#86=PLANE('',#1032);
#87=PLANE('',#1033);
#88=PLANE('',#1034);
#89=PLANE('',#1035);
#90=PLANE('',#1036);
#91=FACE_OUTER_BOUND('',#132,.T.);
#92=FACE_OUTER_BOUND('',#133,.T.);
#93=FACE_OUTER_BOUND('',#134,.T.);
#94=FACE_OUTER_BOUND('',#135,.T.);
#95=FACE_OUTER_BOUND('',#136,.T.);
#96=FACE_OUTER_BOUND('',#137,.T.);
#97=FACE_OUTER_BOUND('',#138,.T.);
#98=FACE_OUTER_BOUND('',#139,.T.);
#99=FACE_OUTER_BOUND('',#140,.T.);
#100=FACE_OUTER_BOUND('',#141,.T.);
#101=FACE_OUTER_BOUND('',#142,.T.);
#102=FACE_OUTER_BOUND('',#143,.T.);
#103=FACE_OUTER_BOUND('',#144,.T.);
#104=FACE_OUTER_BOUND('',#145,.T.);
#105=FACE_OUTER_BOUND('',#146,.T.);
#106=FACE_OUTER_BOUND('',#147,.T.);
#107=FACE_OUTER_BOUND('',#148,.T.);
#108=FACE_OUTER_BOUND('',#149,.T.);
#109=FACE_OUTER_BOUND('',#150,.T.);
#110=FACE_OUTER_BOUND('',#151,.T.);
#111=FACE_OUTER_BOUND('',#152,.T.);
#112=FACE_OUTER_BOUND('',#153,.T.);
#113=FACE_OUTER_BOUND('',#154,.T.);
#114=FACE_OUTER_BOUND('',#155,.T.);
#115=FACE_OUTER_BOUND('',#156,.T.);
#116=FACE_OUTER_BOUND('',#157,.T.);
#117=FACE_OUTER_BOUND('',#158,.T.);
#118=FACE_OUTER_BOUND('',#159,.T.);
#119=FACE_OUTER_BOUND('',#160,.T.);
#120=FACE_OUTER_BOUND('',#161,.T.);
#121=FACE_OUTER_BOUND('',#162,.T.);
#122=FACE_OUTER_BOUND('',#163,.T.);
#123=FACE_OUTER_BOUND('',#164,.T.);
#124=FACE_OUTER_BOUND('',#165,.T.);
#125=FACE_OUTER_BOUND('',#166,.T.);
#126=FACE_OUTER_BOUND('',#167,.T.);
#127=FACE_OUTER_BOUND('',#168,.T.);
#128=FACE_OUTER_BOUND('',#169,.T.);
#129=FACE_OUTER_BOUND('',#170,.T.);
#130=FACE_OUTER_BOUND('',#171,.T.);
#131=FACE_OUTER_BOUND('',#207,.T.);
#132=EDGE_LOOP('',(#602,#603,#604,#605));
#133=EDGE_LOOP('',(#606,#607,#608,#609));
#134=EDGE_LOOP('',(#610,#611,#612,#613));
#135=EDGE_LOOP('',(#614,#615,#616,#617));
#136=EDGE_LOOP('',(#618,#619,#620,#621));
#137=EDGE_LOOP('',(#622,#623,#624,#625));
#138=EDGE_LOOP('',(#626,#627,#628,#629));
#139=EDGE_LOOP('',(#630,#631,#632,#633));
#140=EDGE_LOOP('',(#634,#635,#636,#637));
#141=EDGE_LOOP('',(#638,#639,#640,#641));
#142=EDGE_LOOP('',(#642,#643,#644,#645));
#143=EDGE_LOOP('',(#646,#647,#648,#649));
#144=EDGE_LOOP('',(#650,#651,#652,#653));
#145=EDGE_LOOP('',(#654,#655,#656,#657));
#146=EDGE_LOOP('',(#658,#659,#660,#661));
#147=EDGE_LOOP('',(#662,#663,#664,#665));
#148=EDGE_LOOP('',(#666,#667,#668,#669));
#149=EDGE_LOOP('',(#670,#671,#672,#673));
#150=EDGE_LOOP('',(#674,#675,#676,#677));
#151=EDGE_LOOP('',(#678,#679,#680,#681));
#152=EDGE_LOOP('',(#682,#683,#684,#685));
#153=EDGE_LOOP('',(#686,#687,#688,#689));
#154=EDGE_LOOP('',(#690,#691,#692,#693));
#155=EDGE_LOOP('',(#694,#695,#696,#697));
#156=EDGE_LOOP('',(#698,#699,#700,#701));
#157=EDGE_LOOP('',(#702,#703,#704,#705));
#158=EDGE_LOOP('',(#706,#707,#708,#709));
#159=EDGE_LOOP('',(#710,#711,#712,#713));
#160=EDGE_LOOP('',(#714,#715,#716,#717));
#161=EDGE_LOOP('',(#718,#719,#720,#721));
#162=EDGE_LOOP('',(#722,#723,#724,#725));
#163=EDGE_LOOP('',(#726,#727,#728,#729));
#164=EDGE_LOOP('',(#730,#731,#732,#733));
#165=EDGE_LOOP('',(#734,#735,#736,#737));
#166=EDGE_LOOP('',(#738,#739,#740,#741));
#167=EDGE_LOOP('',(#742,#743,#744,#745));
#168=EDGE_LOOP('',(#746,#747,#748,#749));
#169=EDGE_LOOP('',(#750,#751,#752,#753));
#170=EDGE_LOOP('',(#754,#755,#756,#757));
#171=EDGE_LOOP('',(#758,#759,#760,#761));
#172=EDGE_LOOP('',(#762));
#173=EDGE_LOOP('',(#763));
#174=EDGE_LOOP('',(#764));
#175=EDGE_LOOP('',(#765));
#176=EDGE_LOOP('',(#766));
#177=EDGE_LOOP('',(#767));
#178=EDGE_LOOP('',(#768));
#179=EDGE_LOOP('',(#769));
#180=EDGE_LOOP('',(#770));
#181=EDGE_LOOP('',(#771));
#182=EDGE_LOOP('',(#772));
#183=EDGE_LOOP('',(#773));
#184=EDGE_LOOP('',(#774));
#185=EDGE_LOOP('',(#775));
#186=EDGE_LOOP('',(#776));
#187=EDGE_LOOP('',(#777));
#188=EDGE_LOOP('',(#778));
#189=EDGE_LOOP('',(#779));
#190=EDGE_LOOP('',(#780));
#191=EDGE_LOOP('',(#781));
#192=EDGE_LOOP('',(#782));
#193=EDGE_LOOP('',(#783));
#194=EDGE_LOOP('',(#784));
#195=EDGE_LOOP('',(#785));
#196=EDGE_LOOP('',(#786));
#197=EDGE_LOOP('',(#787));
#198=EDGE_LOOP('',(#788));
#199=EDGE_LOOP('',(#789));
#200=EDGE_LOOP('',(#790));
#201=EDGE_LOOP('',(#791));
#202=EDGE_LOOP('',(#792));
#203=EDGE_LOOP('',(#793));
#204=EDGE_LOOP('',(#794));
#205=EDGE_LOOP('',(#795));
#206=EDGE_LOOP('',(#796));
#207=EDGE_LOOP('',(#797,#798,#799,#800));
#208=EDGE_LOOP('',(#801));
#209=EDGE_LOOP('',(#802));
#210=EDGE_LOOP('',(#803));
#211=EDGE_LOOP('',(#804));
#212=EDGE_LOOP('',(#805));
#213=EDGE_LOOP('',(#806));
#214=EDGE_LOOP('',(#807));
#215=EDGE_LOOP('',(#808));
#216=EDGE_LOOP('',(#809));
#217=EDGE_LOOP('',(#810));
#218=EDGE_LOOP('',(#811));
#219=EDGE_LOOP('',(#812));
#220=EDGE_LOOP('',(#813));
#221=EDGE_LOOP('',(#814));
#222=EDGE_LOOP('',(#815));
#223=EDGE_LOOP('',(#816));
#224=EDGE_LOOP('',(#817));
#225=EDGE_LOOP('',(#818));
#226=EDGE_LOOP('',(#819));
#227=EDGE_LOOP('',(#820));
#228=EDGE_LOOP('',(#821));
#229=EDGE_LOOP('',(#822));
#230=EDGE_LOOP('',(#823));
#231=EDGE_LOOP('',(#824));
#232=EDGE_LOOP('',(#825));
#233=EDGE_LOOP('',(#826));
#234=EDGE_LOOP('',(#827));
#235=EDGE_LOOP('',(#828));
#236=EDGE_LOOP('',(#829));
#237=EDGE_LOOP('',(#830));
#238=EDGE_LOOP('',(#831));
#239=EDGE_LOOP('',(#832));
#240=EDGE_LOOP('',(#833));
#241=EDGE_LOOP('',(#834));
#242=EDGE_LOOP('',(#835));
#243=LINE('',#1313,#290);
#244=LINE('',#1319,#291);
#245=LINE('',#1325,#292);
#246=LINE('',#1331,#293);
#247=LINE('',#1337,#294);
#248=LINE('',#1343,#295);
#249=LINE('',#1349,#296);
#250=LINE('',#1355,#297);
#251=LINE('',#1361,#298);
#252=LINE('',#1367,#299);
#253=LINE('',#1373,#300);
#254=LINE('',#1379,#301);
#255=LINE('',#1385,#302);
#256=LINE('',#1391,#303);
#257=LINE('',#1397,#304);
#258=LINE('',#1403,#305);
#259=LINE('',#1409,#306);
#260=LINE('',#1415,#307);
#261=LINE('',#1421,#308);
#262=LINE('',#1427,#309);
#263=LINE('',#1433,#310);
#264=LINE('',#1439,#311);
#265=LINE('',#1445,#312);
#266=LINE('',#1451,#313);
#267=LINE('',#1457,#314);
#268=LINE('',#1463,#315);
#269=LINE('',#1469,#316);
#270=LINE('',#1475,#317);
#271=LINE('',#1481,#318);
#272=LINE('',#1487,#319);
#273=LINE('',#1493,#320);
#274=LINE('',#1499,#321);
#275=LINE('',#1505,#322);
#276=LINE('',#1511,#323);
#277=LINE('',#1517,#324);
#278=LINE('',#1522,#325);
#279=LINE('',#1524,#326);
#280=LINE('',#1526,#327);
#281=LINE('',#1527,#328);
#282=LINE('',#1530,#329);
#283=LINE('',#1532,#330);
#284=LINE('',#1533,#331);
#285=LINE('',#1536,#332);
#286=LINE('',#1538,#333);
#287=LINE('',#1539,#334);
#288=LINE('',#1541,#335);
#289=LINE('',#1542,#336);
#290=VECTOR('',#1043,4.);
#291=VECTOR('',#1050,4.);
#292=VECTOR('',#1057,3.99999999999999);
#293=VECTOR('',#1064,4.);
#294=VECTOR('',#1071,3.99999999999999);
#295=VECTOR('',#1078,3.99999999999999);
#296=VECTOR('',#1085,4.);
#297=VECTOR('',#1092,4.);
#298=VECTOR('',#1099,4.);
#299=VECTOR('',#1106,3.99999999999999);
#300=VECTOR('',#1113,3.99999999999999);
#301=VECTOR('',#1120,3.99999999999999);
#302=VECTOR('',#1127,3.99999999999999);
#303=VECTOR('',#1134,4.00000000000002);
#304=VECTOR('',#1141,3.99999999999999);
#305=VECTOR('',#1148,4.);
#306=VECTOR('',#1155,4.);
#307=VECTOR('',#1162,3.99999999999999);
#308=VECTOR('',#1169,3.99999999999999);
#309=VECTOR('',#1176,3.99999999999999);
#310=VECTOR('',#1183,4.);
#311=VECTOR('',#1190,3.99999999999999);
#312=VECTOR('',#1197,3.99999999999999);
#313=VECTOR('',#1204,4.);
#314=VECTOR('',#1211,4.00000000000002);
#315=VECTOR('',#1218,4.);
#316=VECTOR('',#1225,3.99999999999999);
#317=VECTOR('',#1232,4.00000000000002);
#318=VECTOR('',#1239,4.00000000000001);
#319=VECTOR('',#1246,3.99999999999999);
#320=VECTOR('',#1253,4.00000000000001);
#321=VECTOR('',#1260,3.99999999999999);
#322=VECTOR('',#1267,3.99999999999999);
#323=VECTOR('',#1274,3.99999999999999);
#324=VECTOR('',#1281,3.99999999999999);
#325=VECTOR('',#1286,10.);
#326=VECTOR('',#1287,10.);
#327=VECTOR('',#1288,10.);
#328=VECTOR('',#1289,10.);
#329=VECTOR('',#1292,10.);
#330=VECTOR('',#1293,10.);
#331=VECTOR('',#1294,10.);
#332=VECTOR('',#1297,10.);
#333=VECTOR('',#1298,10.);
#334=VECTOR('',#1299,10.);
#335=VECTOR('',#1302,10.);
#336=VECTOR('',#1303,10.);
#337=CIRCLE('',#927,4.);
#338=CIRCLE('',#928,4.);
#339=CIRCLE('',#930,4.);
#340=CIRCLE('',#931,4.);
#341=CIRCLE('',#933,3.99999999999999);
#342=CIRCLE('',#934,3.99999999999999);
#343=CIRCLE('',#936,4.);
#344=CIRCLE('',#937,4.);
#345=CIRCLE('',#939,3.99999999999999);
#346=CIRCLE('',#940,3.99999999999999);
#347=CIRCLE('',#942,3.99999999999999);
#348=CIRCLE('',#943,3.99999999999999);
#349=CIRCLE('',#945,4.);
#350=CIRCLE('',#946,4.);
#351=CIRCLE('',#948,4.);
#352=CIRCLE('',#949,4.);
#353=CIRCLE('',#951,4.);
#354=CIRCLE('',#952,4.);
#355=CIRCLE('',#954,3.99999999999999);
#356=CIRCLE('',#955,3.99999999999999);
#357=CIRCLE('',#957,3.99999999999999);
#358=CIRCLE('',#958,3.99999999999999);
#359=CIRCLE('',#960,3.99999999999999);
#360=CIRCLE('',#961,3.99999999999999);
#361=CIRCLE('',#963,3.99999999999999);
#362=CIRCLE('',#964,3.99999999999999);
#363=CIRCLE('',#966,4.00000000000002);
#364=CIRCLE('',#967,4.00000000000002);
#365=CIRCLE('',#969,3.99999999999999);
#366=CIRCLE('',#970,3.99999999999999);
#367=CIRCLE('',#972,4.);
#368=CIRCLE('',#973,4.);
#369=CIRCLE('',#975,4.);
#370=CIRCLE('',#976,4.);
#371=CIRCLE('',#978,3.99999999999999);
#372=CIRCLE('',#979,3.99999999999999);
#373=CIRCLE('',#981,3.99999999999999);
#374=CIRCLE('',#982,3.99999999999999);
#375=CIRCLE('',#984,3.99999999999999);
#376=CIRCLE('',#985,3.99999999999999);
#377=CIRCLE('',#987,4.);
#378=CIRCLE('',#988,4.);
#379=CIRCLE('',#990,3.99999999999999);
#380=CIRCLE('',#991,3.99999999999999);
#381=CIRCLE('',#993,3.99999999999999);
#382=CIRCLE('',#994,3.99999999999999);
#383=CIRCLE('',#996,4.);
#384=CIRCLE('',#997,4.);
#385=CIRCLE('',#999,4.00000000000002);
#386=CIRCLE('',#1000,4.00000000000002);
#387=CIRCLE('',#1002,4.);
#388=CIRCLE('',#1003,4.);
#389=CIRCLE('',#1005,3.99999999999999);
#390=CIRCLE('',#1006,3.99999999999999);
#391=CIRCLE('',#1008,4.00000000000002);
#392=CIRCLE('',#1009,4.00000000000002);
#393=CIRCLE('',#1011,4.00000000000001);
#394=CIRCLE('',#1012,4.00000000000001);
#395=CIRCLE('',#1014,3.99999999999999);
#396=CIRCLE('',#1015,3.99999999999999);
#397=CIRCLE('',#1017,4.00000000000001);
#398=CIRCLE('',#1018,4.00000000000001);
#399=CIRCLE('',#1020,3.99999999999999);
#400=CIRCLE('',#1021,3.99999999999999);
#401=CIRCLE('',#1023,3.99999999999999);
#402=CIRCLE('',#1024,3.99999999999999);
#403=CIRCLE('',#1026,3.99999999999999);
#404=CIRCLE('',#1027,3.99999999999999);
#405=CIRCLE('',#1029,3.99999999999999);
#406=CIRCLE('',#1030,3.99999999999999);
#407=VERTEX_POINT('',#1310);
#408=VERTEX_POINT('',#1312);
#409=VERTEX_POINT('',#1316);
#410=VERTEX_POINT('',#1318);
#411=VERTEX_POINT('',#1322);
#412=VERTEX_POINT('',#1324);
#413=VERTEX_POINT('',#1328);
#414=VERTEX_POINT('',#1330);
#415=VERTEX_POINT('',#1334);
#416=VERTEX_POINT('',#1336);
#417=VERTEX_POINT('',#1340);
#418=VERTEX_POINT('',#1342);
#419=VERTEX_POINT('',#1346);
#420=VERTEX_POINT('',#1348);
#421=VERTEX_POINT('',#1352);
#422=VERTEX_POINT('',#1354);
#423=VERTEX_POINT('',#1358);
#424=VERTEX_POINT('',#1360);
#425=VERTEX_POINT('',#1364);
#426=VERTEX_POINT('',#1366);
#427=VERTEX_POINT('',#1370);
#428=VERTEX_POINT('',#1372);
#429=VERTEX_POINT('',#1376);
#430=VERTEX_POINT('',#1378);
#431=VERTEX_POINT('',#1382);
#432=VERTEX_POINT('',#1384);
#433=VERTEX_POINT('',#1388);
#434=VERTEX_POINT('',#1390);
#435=VERTEX_POINT('',#1394);
#436=VERTEX_POINT('',#1396);
#437=VERTEX_POINT('',#1400);
#438=VERTEX_POINT('',#1402);
#439=VERTEX_POINT('',#1406);
#440=VERTEX_POINT('',#1408);
#441=VERTEX_POINT('',#1412);
#442=VERTEX_POINT('',#1414);
#443=VERTEX_POINT('',#1418);
#444=VERTEX_POINT('',#1420);
#445=VERTEX_POINT('',#1424);
#446=VERTEX_POINT('',#1426);
#447=VERTEX_POINT('',#1430);
#448=VERTEX_POINT('',#1432);
#449=VERTEX_POINT('',#1436);
#450=VERTEX_POINT('',#1438);
#451=VERTEX_POINT('',#1442);
#452=VERTEX_POINT('',#1444);
#453=VERTEX_POINT('',#1448);
#454=VERTEX_POINT('',#1450);
#455=VERTEX_POINT('',#1454);
#456=VERTEX_POINT('',#1456);
#457=VERTEX_POINT('',#1460);
#458=VERTEX_POINT('',#1462);
#459=VERTEX_POINT('',#1466);
#460=VERTEX_POINT('',#1468);
#461=VERTEX_POINT('',#1472);
#462=VERTEX_POINT('',#1474);
#463=VERTEX_POINT('',#1478);
#464=VERTEX_POINT('',#1480);
#465=VERTEX_POINT('',#1484);
#466=VERTEX_POINT('',#1486);
#467=VERTEX_POINT('',#1490);
#468=VERTEX_POINT('',#1492);
#469=VERTEX_POINT('',#1496);
#470=VERTEX_POINT('',#1498);
#471=VERTEX_POINT('',#1502);
#472=VERTEX_POINT('',#1504);
#473=VERTEX_POINT('',#1508);
#474=VERTEX_POINT('',#1510);
#475=VERTEX_POINT('',#1514);
#476=VERTEX_POINT('',#1516);
#477=VERTEX_POINT('',#1520);
#478=VERTEX_POINT('',#1521);
#479=VERTEX_POINT('',#1523);
#480=VERTEX_POINT('',#1525);
#481=VERTEX_POINT('',#1529);
#482=VERTEX_POINT('',#1531);
#483=VERTEX_POINT('',#1535);
#484=VERTEX_POINT('',#1537);
#485=EDGE_CURVE('',#407,#407,#337,.T.);
#486=EDGE_CURVE('',#407,#408,#243,.T.);
#487=EDGE_CURVE('',#408,#408,#338,.T.);
#488=EDGE_CURVE('',#409,#409,#339,.T.);
#489=EDGE_CURVE('',#409,#410,#244,.T.);
#490=EDGE_CURVE('',#410,#410,#340,.T.);
#491=EDGE_CURVE('',#411,#411,#341,.T.);
#492=EDGE_CURVE('',#411,#412,#245,.T.);
#493=EDGE_CURVE('',#412,#412,#342,.T.);
#494=EDGE_CURVE('',#413,#413,#343,.T.);
#495=EDGE_CURVE('',#413,#414,#246,.T.);
#496=EDGE_CURVE('',#414,#414,#344,.T.);
#497=EDGE_CURVE('',#415,#415,#345,.T.);
#498=EDGE_CURVE('',#415,#416,#247,.T.);
#499=EDGE_CURVE('',#416,#416,#346,.T.);
#500=EDGE_CURVE('',#417,#417,#347,.T.);
#501=EDGE_CURVE('',#417,#418,#248,.T.);
#502=EDGE_CURVE('',#418,#418,#348,.T.);
#503=EDGE_CURVE('',#419,#419,#349,.T.);
#504=EDGE_CURVE('',#419,#420,#249,.T.);
#505=EDGE_CURVE('',#420,#420,#350,.T.);
#506=EDGE_CURVE('',#421,#421,#351,.T.);
#507=EDGE_CURVE('',#421,#422,#250,.T.);
#508=EDGE_CURVE('',#422,#422,#352,.T.);
#509=EDGE_CURVE('',#423,#423,#353,.T.);
#510=EDGE_CURVE('',#423,#424,#251,.T.);
#511=EDGE_CURVE('',#424,#424,#354,.T.);
#512=EDGE_CURVE('',#425,#425,#355,.T.);
#513=EDGE_CURVE('',#425,#426,#252,.T.);
#514=EDGE_CURVE('',#426,#426,#356,.T.);
#515=EDGE_CURVE('',#427,#427,#357,.T.);
#516=EDGE_CURVE('',#427,#428,#253,.T.);
#517=EDGE_CURVE('',#428,#428,#358,.T.);
#518=EDGE_CURVE('',#429,#429,#359,.T.);
#519=EDGE_CURVE('',#429,#430,#254,.T.);
#520=EDGE_CURVE('',#430,#430,#360,.T.);
#521=EDGE_CURVE('',#431,#431,#361,.T.);
#522=EDGE_CURVE('',#431,#432,#255,.T.);
#523=EDGE_CURVE('',#432,#432,#362,.T.);
#524=EDGE_CURVE('',#433,#433,#363,.T.);
#525=EDGE_CURVE('',#433,#434,#256,.T.);
#526=EDGE_CURVE('',#434,#434,#364,.T.);
#527=EDGE_CURVE('',#435,#435,#365,.T.);
#528=EDGE_CURVE('',#435,#436,#257,.T.);
#529=EDGE_CURVE('',#436,#436,#366,.T.);
#530=EDGE_CURVE('',#437,#437,#367,.T.);
#531=EDGE_CURVE('',#437,#438,#258,.T.);
#532=EDGE_CURVE('',#438,#438,#368,.T.);
#533=EDGE_CURVE('',#439,#439,#369,.T.);
#534=EDGE_CURVE('',#439,#440,#259,.T.);
#535=EDGE_CURVE('',#440,#440,#370,.T.);
#536=EDGE_CURVE('',#441,#441,#371,.T.);
#537=EDGE_CURVE('',#441,#442,#260,.T.);
#538=EDGE_CURVE('',#442,#442,#372,.T.);
#539=EDGE_CURVE('',#443,#443,#373,.T.);
#540=EDGE_CURVE('',#443,#444,#261,.T.);
#541=EDGE_CURVE('',#444,#444,#374,.T.);
#542=EDGE_CURVE('',#445,#445,#375,.T.);
#543=EDGE_CURVE('',#445,#446,#262,.T.);
#544=EDGE_CURVE('',#446,#446,#376,.T.);
#545=EDGE_CURVE('',#447,#447,#377,.T.);
#546=EDGE_CURVE('',#447,#448,#263,.T.);
#547=EDGE_CURVE('',#448,#448,#378,.T.);
#548=EDGE_CURVE('',#449,#449,#379,.T.);
#549=EDGE_CURVE('',#449,#450,#264,.T.);
#550=EDGE_CURVE('',#450,#450,#380,.T.);
#551=EDGE_CURVE('',#451,#451,#381,.T.);
#552=EDGE_CURVE('',#451,#452,#265,.T.);
#553=EDGE_CURVE('',#452,#452,#382,.T.);
#554=EDGE_CURVE('',#453,#453,#383,.T.);
#555=EDGE_CURVE('',#453,#454,#266,.T.);
#556=EDGE_CURVE('',#454,#454,#384,.T.);
#557=EDGE_CURVE('',#455,#455,#385,.T.);
#558=EDGE_CURVE('',#455,#456,#267,.T.);
#559=EDGE_CURVE('',#456,#456,#386,.T.);
#560=EDGE_CURVE('',#457,#457,#387,.T.);
#561=EDGE_CURVE('',#457,#458,#268,.T.);
#562=EDGE_CURVE('',#458,#458,#388,.T.);
#563=EDGE_CURVE('',#459,#459,#389,.T.);
#564=EDGE_CURVE('',#459,#460,#269,.T.);
#565=EDGE_CURVE('',#460,#460,#390,.T.);
#566=EDGE_CURVE('',#461,#461,#391,.T.);
#567=EDGE_CURVE('',#461,#462,#270,.T.);
#568=EDGE_CURVE('',#462,#462,#392,.T.);
#569=EDGE_CURVE('',#463,#463,#393,.T.);
#570=EDGE_CURVE('',#463,#464,#271,.T.);
#571=EDGE_CURVE('',#464,#464,#394,.T.);
#572=EDGE_CURVE('',#465,#465,#395,.T.);
#573=EDGE_CURVE('',#465,#466,#272,.T.);
#574=EDGE_CURVE('',#466,#466,#396,.T.);
#575=EDGE_CURVE('',#467,#467,#397,.T.);
#576=EDGE_CURVE('',#467,#468,#273,.T.);
#577=EDGE_CURVE('',#468,#468,#398,.T.);
#578=EDGE_CURVE('',#469,#469,#399,.T.);
#579=EDGE_CURVE('',#469,#470,#274,.T.);
#580=EDGE_CURVE('',#470,#470,#400,.T.);
#581=EDGE_CURVE('',#471,#471,#401,.T.);
#582=EDGE_CURVE('',#471,#472,#275,.T.);
#583=EDGE_CURVE('',#472,#472,#402,.T.);
#584=EDGE_CURVE('',#473,#473,#403,.T.);
#585=EDGE_CURVE('',#473,#474,#276,.T.);
#586=EDGE_CURVE('',#474,#474,#404,.T.);
#587=EDGE_CURVE('',#475,#475,#405,.T.);
#588=EDGE_CURVE('',#475,#476,#277,.T.);
#589=EDGE_CURVE('',#476,#476,#406,.T.);
#590=EDGE_CURVE('',#477,#478,#278,.T.);
#591=EDGE_CURVE('',#478,#479,#279,.T.);
#592=EDGE_CURVE('',#480,#479,#280,.T.);
#593=EDGE_CURVE('',#477,#480,#281,.T.);
#594=EDGE_CURVE('',#481,#477,#282,.T.);
#595=EDGE_CURVE('',#482,#480,#283,.T.);
#596=EDGE_CURVE('',#481,#482,#284,.T.);
#597=EDGE_CURVE('',#483,#481,#285,.T.);
#598=EDGE_CURVE('',#484,#482,#286,.T.);
#599=EDGE_CURVE('',#483,#484,#287,.T.);
#600=EDGE_CURVE('',#478,#483,#288,.T.);
#601=EDGE_CURVE('',#479,#484,#289,.T.);
#602=ORIENTED_EDGE('',*,*,#485,.F.);
#603=ORIENTED_EDGE('',*,*,#486,.T.);
#604=ORIENTED_EDGE('',*,*,#487,.F.);
#605=ORIENTED_EDGE('',*,*,#486,.F.);
#606=ORIENTED_EDGE('',*,*,#488,.F.);
#607=ORIENTED_EDGE('',*,*,#489,.T.);
#608=ORIENTED_EDGE('',*,*,#490,.F.);
#609=ORIENTED_EDGE('',*,*,#489,.F.);
#610=ORIENTED_EDGE('',*,*,#491,.F.);
#611=ORIENTED_EDGE('',*,*,#492,.T.);
#612=ORIENTED_EDGE('',*,*,#493,.F.);
#613=ORIENTED_EDGE('',*,*,#492,.F.);
#614=ORIENTED_EDGE('',*,*,#494,.F.);
#615=ORIENTED_EDGE('',*,*,#495,.T.);
#616=ORIENTED_EDGE('',*,*,#496,.F.);
#617=ORIENTED_EDGE('',*,*,#495,.F.);
#618=ORIENTED_EDGE('',*,*,#497,.F.);
#619=ORIENTED_EDGE('',*,*,#498,.T.);
#620=ORIENTED_EDGE('',*,*,#499,.F.);
#621=ORIENTED_EDGE('',*,*,#498,.F.);
#622=ORIENTED_EDGE('',*,*,#500,.F.);
#623=ORIENTED_EDGE('',*,*,#501,.T.);
#624=ORIENTED_EDGE('',*,*,#502,.F.);
#625=ORIENTED_EDGE('',*,*,#501,.F.);
#626=ORIENTED_EDGE('',*,*,#503,.F.);
#627=ORIENTED_EDGE('',*,*,#504,.T.);
#628=ORIENTED_EDGE('',*,*,#505,.F.);
#629=ORIENTED_EDGE('',*,*,#504,.F.);
#630=ORIENTED_EDGE('',*,*,#506,.F.);
#631=ORIENTED_EDGE('',*,*,#507,.T.);
#632=ORIENTED_EDGE('',*,*,#508,.F.);
#633=ORIENTED_EDGE('',*,*,#507,.F.);
#634=ORIENTED_EDGE('',*,*,#509,.F.);
#635=ORIENTED_EDGE('',*,*,#510,.T.);
#636=ORIENTED_EDGE('',*,*,#511,.F.);
#637=ORIENTED_EDGE('',*,*,#510,.F.);
#638=ORIENTED_EDGE('',*,*,#512,.F.);
#639=ORIENTED_EDGE('',*,*,#513,.T.);
#640=ORIENTED_EDGE('',*,*,#514,.F.);
#641=ORIENTED_EDGE('',*,*,#513,.F.);
#642=ORIENTED_EDGE('',*,*,#515,.F.);
#643=ORIENTED_EDGE('',*,*,#516,.T.);
#644=ORIENTED_EDGE('',*,*,#517,.F.);
#645=ORIENTED_EDGE('',*,*,#516,.F.);
#646=ORIENTED_EDGE('',*,*,#518,.F.);
#647=ORIENTED_EDGE('',*,*,#519,.T.);
#648=ORIENTED_EDGE('',*,*,#520,.F.);
#649=ORIENTED_EDGE('',*,*,#519,.F.);
#650=ORIENTED_EDGE('',*,*,#521,.F.);
#651=ORIENTED_EDGE('',*,*,#522,.T.);
#652=ORIENTED_EDGE('',*,*,#523,.F.);
#653=ORIENTED_EDGE('',*,*,#522,.F.);
#654=ORIENTED_EDGE('',*,*,#524,.F.);
#655=ORIENTED_EDGE('',*,*,#525,.T.);
#656=ORIENTED_EDGE('',*,*,#526,.F.);
#657=ORIENTED_EDGE('',*,*,#525,.F.);
#658=ORIENTED_EDGE('',*,*,#527,.F.);
#659=ORIENTED_EDGE('',*,*,#528,.T.);
#660=ORIENTED_EDGE('',*,*,#529,.F.);
#661=ORIENTED_EDGE('',*,*,#528,.F.);
#662=ORIENTED_EDGE('',*,*,#530,.F.);
#663=ORIENTED_EDGE('',*,*,#531,.T.);
#664=ORIENTED_EDGE('',*,*,#532,.F.);
#665=ORIENTED_EDGE('',*,*,#531,.F.);
#666=ORIENTED_EDGE('',*,*,#533,.F.);
#667=ORIENTED_EDGE('',*,*,#534,.T.);
#668=ORIENTED_EDGE('',*,*,#535,.F.);
#669=ORIENTED_EDGE('',*,*,#534,.F.);
#670=ORIENTED_EDGE('',*,*,#536,.F.);
#671=ORIENTED_EDGE('',*,*,#537,.T.);
#672=ORIENTED_EDGE('',*,*,#538,.F.);
#673=ORIENTED_EDGE('',*,*,#537,.F.);
#674=ORIENTED_EDGE('',*,*,#539,.F.);
#675=ORIENTED_EDGE('',*,*,#540,.T.);
#676=ORIENTED_EDGE('',*,*,#541,.F.);
#677=ORIENTED_EDGE('',*,*,#540,.F.);
#678=ORIENTED_EDGE('',*,*,#542,.F.);
#679=ORIENTED_EDGE('',*,*,#543,.T.);
#680=ORIENTED_EDGE('',*,*,#544,.F.);
#681=ORIENTED_EDGE('',*,*,#543,.F.);
#682=ORIENTED_EDGE('',*,*,#545,.F.);
#683=ORIENTED_EDGE('',*,*,#546,.T.);
#684=ORIENTED_EDGE('',*,*,#547,.F.);
#685=ORIENTED_EDGE('',*,*,#546,.F.);
#686=ORIENTED_EDGE('',*,*,#548,.F.);
#687=ORIENTED_EDGE('',*,*,#549,.T.);
#688=ORIENTED_EDGE('',*,*,#550,.F.);
#689=ORIENTED_EDGE('',*,*,#549,.F.);
#690=ORIENTED_EDGE('',*,*,#551,.F.);
#691=ORIENTED_EDGE('',*,*,#552,.T.);
#692=ORIENTED_EDGE('',*,*,#553,.F.);
#693=ORIENTED_EDGE('',*,*,#552,.F.);
#694=ORIENTED_EDGE('',*,*,#554,.F.);
#695=ORIENTED_EDGE('',*,*,#555,.T.);
#696=ORIENTED_EDGE('',*,*,#556,.F.);
#697=ORIENTED_EDGE('',*,*,#555,.F.);
#698=ORIENTED_EDGE('',*,*,#557,.F.);
#699=ORIENTED_EDGE('',*,*,#558,.T.);
#700=ORIENTED_EDGE('',*,*,#559,.F.);
#701=ORIENTED_EDGE('',*,*,#558,.F.);
#702=ORIENTED_EDGE('',*,*,#560,.F.);
#703=ORIENTED_EDGE('',*,*,#561,.T.);
#704=ORIENTED_EDGE('',*,*,#562,.F.);
#705=ORIENTED_EDGE('',*,*,#561,.F.);
#706=ORIENTED_EDGE('',*,*,#563,.F.);
#707=ORIENTED_EDGE('',*,*,#564,.T.);
#708=ORIENTED_EDGE('',*,*,#565,.F.);
#709=ORIENTED_EDGE('',*,*,#564,.F.);
#710=ORIENTED_EDGE('',*,*,#566,.F.);
#711=ORIENTED_EDGE('',*,*,#567,.T.);
#712=ORIENTED_EDGE('',*,*,#568,.F.);
#713=ORIENTED_EDGE('',*,*,#567,.F.);
#714=ORIENTED_EDGE('',*,*,#569,.F.);
#715=ORIENTED_EDGE('',*,*,#570,.T.);
#716=ORIENTED_EDGE('',*,*,#571,.F.);
#717=ORIENTED_EDGE('',*,*,#570,.F.);
#718=ORIENTED_EDGE('',*,*,#572,.F.);
#719=ORIENTED_EDGE('',*,*,#573,.T.);
#720=ORIENTED_EDGE('',*,*,#574,.F.);
#721=ORIENTED_EDGE('',*,*,#573,.F.);
#722=ORIENTED_EDGE('',*,*,#575,.F.);
#723=ORIENTED_EDGE('',*,*,#576,.T.);
#724=ORIENTED_EDGE('',*,*,#577,.F.);
#725=ORIENTED_EDGE('',*,*,#576,.F.);
#726=ORIENTED_EDGE('',*,*,#578,.F.);
#727=ORIENTED_EDGE('',*,*,#579,.T.);
#728=ORIENTED_EDGE('',*,*,#580,.F.);
#729=ORIENTED_EDGE('',*,*,#579,.F.);
#730=ORIENTED_EDGE('',*,*,#581,.F.);
#731=ORIENTED_EDGE('',*,*,#582,.T.);
#732=ORIENTED_EDGE('',*,*,#583,.F.);
#733=ORIENTED_EDGE('',*,*,#582,.F.);
#734=ORIENTED_EDGE('',*,*,#584,.F.);
#735=ORIENTED_EDGE('',*,*,#585,.T.);
#736=ORIENTED_EDGE('',*,*,#586,.F.);
#737=ORIENTED_EDGE('',*,*,#585,.F.);
#738=ORIENTED_EDGE('',*,*,#587,.F.);
#739=ORIENTED_EDGE('',*,*,#588,.T.);
#740=ORIENTED_EDGE('',*,*,#589,.F.);
#741=ORIENTED_EDGE('',*,*,#588,.F.);
#742=ORIENTED_EDGE('',*,*,#590,.T.);
#743=ORIENTED_EDGE('',*,*,#591,.T.);
#744=ORIENTED_EDGE('',*,*,#592,.F.);
#745=ORIENTED_EDGE('',*,*,#593,.F.);
#746=ORIENTED_EDGE('',*,*,#594,.T.);
#747=ORIENTED_EDGE('',*,*,#593,.T.);
#748=ORIENTED_EDGE('',*,*,#595,.F.);
#749=ORIENTED_EDGE('',*,*,#596,.F.);
#750=ORIENTED_EDGE('',*,*,#597,.T.);
#751=ORIENTED_EDGE('',*,*,#596,.T.);
#752=ORIENTED_EDGE('',*,*,#598,.F.);
#753=ORIENTED_EDGE('',*,*,#599,.F.);
#754=ORIENTED_EDGE('',*,*,#600,.T.);
#755=ORIENTED_EDGE('',*,*,#599,.T.);
#756=ORIENTED_EDGE('',*,*,#601,.F.);
#757=ORIENTED_EDGE('',*,*,#591,.F.);
#758=ORIENTED_EDGE('',*,*,#601,.T.);
#759=ORIENTED_EDGE('',*,*,#598,.T.);
#760=ORIENTED_EDGE('',*,*,#595,.T.);
#761=ORIENTED_EDGE('',*,*,#592,.T.);
#762=ORIENTED_EDGE('',*,*,#500,.T.);
#763=ORIENTED_EDGE('',*,*,#503,.T.);
#764=ORIENTED_EDGE('',*,*,#506,.T.);
#765=ORIENTED_EDGE('',*,*,#509,.T.);
#766=ORIENTED_EDGE('',*,*,#512,.T.);
#767=ORIENTED_EDGE('',*,*,#515,.T.);
#768=ORIENTED_EDGE('',*,*,#518,.T.);
#769=ORIENTED_EDGE('',*,*,#521,.T.);
#770=ORIENTED_EDGE('',*,*,#524,.T.);
#771=ORIENTED_EDGE('',*,*,#527,.T.);
#772=ORIENTED_EDGE('',*,*,#530,.T.);
#773=ORIENTED_EDGE('',*,*,#533,.T.);
#774=ORIENTED_EDGE('',*,*,#536,.T.);
#775=ORIENTED_EDGE('',*,*,#539,.T.);
#776=ORIENTED_EDGE('',*,*,#542,.T.);
#777=ORIENTED_EDGE('',*,*,#587,.T.);
#778=ORIENTED_EDGE('',*,*,#584,.T.);
#779=ORIENTED_EDGE('',*,*,#581,.T.);
#780=ORIENTED_EDGE('',*,*,#578,.T.);
#781=ORIENTED_EDGE('',*,*,#575,.T.);
#782=ORIENTED_EDGE('',*,*,#572,.T.);
#783=ORIENTED_EDGE('',*,*,#569,.T.);
#784=ORIENTED_EDGE('',*,*,#566,.T.);
#785=ORIENTED_EDGE('',*,*,#563,.T.);
#786=ORIENTED_EDGE('',*,*,#560,.T.);
#787=ORIENTED_EDGE('',*,*,#557,.T.);
#788=ORIENTED_EDGE('',*,*,#554,.T.);
#789=ORIENTED_EDGE('',*,*,#551,.T.);
#790=ORIENTED_EDGE('',*,*,#548,.T.);
#791=ORIENTED_EDGE('',*,*,#545,.T.);
#792=ORIENTED_EDGE('',*,*,#497,.T.);
#793=ORIENTED_EDGE('',*,*,#494,.T.);
#794=ORIENTED_EDGE('',*,*,#491,.T.);
#795=ORIENTED_EDGE('',*,*,#488,.T.);
#796=ORIENTED_EDGE('',*,*,#485,.T.);
#797=ORIENTED_EDGE('',*,*,#600,.F.);
#798=ORIENTED_EDGE('',*,*,#590,.F.);
#799=ORIENTED_EDGE('',*,*,#594,.F.);
#800=ORIENTED_EDGE('',*,*,#597,.F.);
#801=ORIENTED_EDGE('',*,*,#502,.T.);
#802=ORIENTED_EDGE('',*,*,#505,.T.);
#803=ORIENTED_EDGE('',*,*,#508,.T.);
#804=ORIENTED_EDGE('',*,*,#511,.T.);
#805=ORIENTED_EDGE('',*,*,#514,.T.);
#806=ORIENTED_EDGE('',*,*,#517,.T.);
#807=ORIENTED_EDGE('',*,*,#520,.T.);
#808=ORIENTED_EDGE('',*,*,#523,.T.);
#809=ORIENTED_EDGE('',*,*,#526,.T.);
#810=ORIENTED_EDGE('',*,*,#529,.T.);
#811=ORIENTED_EDGE('',*,*,#532,.T.);
#812=ORIENTED_EDGE('',*,*,#535,.T.);
#813=ORIENTED_EDGE('',*,*,#538,.T.);
#814=ORIENTED_EDGE('',*,*,#541,.T.);
#815=ORIENTED_EDGE('',*,*,#544,.T.);
#816=ORIENTED_EDGE('',*,*,#589,.T.);
#817=ORIENTED_EDGE('',*,*,#586,.T.);
#818=ORIENTED_EDGE('',*,*,#583,.T.);
#819=ORIENTED_EDGE('',*,*,#580,.T.);
#820=ORIENTED_EDGE('',*,*,#577,.T.);
#821=ORIENTED_EDGE('',*,*,#574,.T.);
#822=ORIENTED_EDGE('',*,*,#571,.T.);
#823=ORIENTED_EDGE('',*,*,#568,.T.);
#824=ORIENTED_EDGE('',*,*,#565,.T.);
#825=ORIENTED_EDGE('',*,*,#562,.T.);
#826=ORIENTED_EDGE('',*,*,#559,.T.);
#827=ORIENTED_EDGE('',*,*,#556,.T.);
#828=ORIENTED_EDGE('',*,*,#553,.T.);
#829=ORIENTED_EDGE('',*,*,#550,.T.);
#830=ORIENTED_EDGE('',*,*,#547,.T.);
#831=ORIENTED_EDGE('',*,*,#499,.T.);
#832=ORIENTED_EDGE('',*,*,#496,.T.);
#833=ORIENTED_EDGE('',*,*,#493,.T.);
#834=ORIENTED_EDGE('',*,*,#490,.T.);
#835=ORIENTED_EDGE('',*,*,#487,.T.);
#836=CYLINDRICAL_SURFACE('',#926,4.);
#837=CYLINDRICAL_SURFACE('',#929,4.);
#838=CYLINDRICAL_SURFACE('',#932,3.99999999999999);
#839=CYLINDRICAL_SURFACE('',#935,4.);
#840=CYLINDRICAL_SURFACE('',#938,3.99999999999999);
#841=CYLINDRICAL_SURFACE('',#941,3.99999999999999);
#842=CYLINDRICAL_SURFACE('',#944,4.);
#843=CYLINDRICAL_SURFACE('',#947,4.);
#844=CYLINDRICAL_SURFACE('',#950,4.);
#845=CYLINDRICAL_SURFACE('',#953,3.99999999999999);
#846=CYLINDRICAL_SURFACE('',#956,3.99999999999999);
#847=CYLINDRICAL_SURFACE('',#959,3.99999999999999);
#848=CYLINDRICAL_SURFACE('',#962,3.99999999999999);
#849=CYLINDRICAL_SURFACE('',#965,4.00000000000002);
#850=CYLINDRICAL_SURFACE('',#968,3.99999999999999);
#851=CYLINDRICAL_SURFACE('',#971,4.);
#852=CYLINDRICAL_SURFACE('',#974,4.);
#853=CYLINDRICAL_SURFACE('',#977,3.99999999999999);
#854=CYLINDRICAL_SURFACE('',#980,3.99999999999999);
#855=CYLINDRICAL_SURFACE('',#983,3.99999999999999);
#856=CYLINDRICAL_SURFACE('',#986,4.);
#857=CYLINDRICAL_SURFACE('',#989,3.99999999999999);
#858=CYLINDRICAL_SURFACE('',#992,3.99999999999999);
#859=CYLINDRICAL_SURFACE('',#995,4.);
#860=CYLINDRICAL_SURFACE('',#998,4.00000000000002);
#861=CYLINDRICAL_SURFACE('',#1001,4.);
#862=CYLINDRICAL_SURFACE('',#1004,3.99999999999999);
#863=CYLINDRICAL_SURFACE('',#1007,4.00000000000002);
#864=CYLINDRICAL_SURFACE('',#1010,4.00000000000001);
#865=CYLINDRICAL_SURFACE('',#1013,3.99999999999999);
#866=CYLINDRICAL_SURFACE('',#1016,4.00000000000001);
#867=CYLINDRICAL_SURFACE('',#1019,3.99999999999999);
#868=CYLINDRICAL_SURFACE('',#1022,3.99999999999999);
#869=CYLINDRICAL_SURFACE('',#1025,3.99999999999999);
#870=CYLINDRICAL_SURFACE('',#1028,3.99999999999999);
#871=ADVANCED_FACE('',(#91),#836,.F.);
#872=ADVANCED_FACE('',(#92),#837,.F.);
#873=ADVANCED_FACE('',(#93),#838,.F.);
#874=ADVANCED_FACE('',(#94),#839,.F.);
#875=ADVANCED_FACE('',(#95),#840,.F.);
#876=ADVANCED_FACE('',(#96),#841,.F.);
#877=ADVANCED_FACE('',(#97),#842,.F.);
#878=ADVANCED_FACE('',(#98),#843,.F.);
#879=ADVANCED_FACE('',(#99),#844,.F.);
#880=ADVANCED_FACE('',(#100),#845,.F.);
#881=ADVANCED_FACE('',(#101),#846,.F.);
#882=ADVANCED_FACE('',(#102),#847,.F.);
#883=ADVANCED_FACE('',(#103),#848,.F.);
#884=ADVANCED_FACE('',(#104),#849,.F.);
#885=ADVANCED_FACE('',(#105),#850,.F.);
#886=ADVANCED_FACE('',(#106),#851,.F.);
#887=ADVANCED_FACE('',(#107),#852,.F.);
#888=ADVANCED_FACE('',(#108),#853,.F.);
#889=ADVANCED_FACE('',(#109),#854,.F.);
#890=ADVANCED_FACE('',(#110),#855,.F.);
#891=ADVANCED_FACE('',(#111),#856,.F.);
#892=ADVANCED_FACE('',(#112),#857,.F.);
#893=ADVANCED_FACE('',(#113),#858,.F.);
#894=ADVANCED_FACE('',(#114),#859,.F.);
#895=ADVANCED_FACE('',(#115),#860,.F.);
#896=ADVANCED_FACE('',(#116),#861,.F.);
#897=ADVANCED_FACE('',(#117),#862,.F.);
#898=ADVANCED_FACE('',(#118),#863,.F.);
#899=ADVANCED_FACE('',(#119),#864,.F.);
#900=ADVANCED_FACE('',(#120),#865,.F.);
#901=ADVANCED_FACE('',(#121),#866,.F.);
#902=ADVANCED_FACE('',(#122),#867,.F.);
#903=ADVANCED_FACE('',(#123),#868,.F.);
#904=ADVANCED_FACE('',(#124),#869,.F.);
#905=ADVANCED_FACE('',(#125),#870,.F.);
#906=ADVANCED_FACE('',(#126),#85,.T.);
#907=ADVANCED_FACE('',(#127),#86,.T.);
#908=ADVANCED_FACE('',(#128),#87,.T.);
#909=ADVANCED_FACE('',(#129),#88,.T.);
#910=ADVANCED_FACE('',(#130,#15,#16,#17,#18,#19,#20,#21,#22,#23,#24,#25,
#26,#27,#28,#29,#30,#31,#32,#33,#34,#35,#36,#37,#38,#39,#40,#41,#42,#43,
#44,#45,#46,#47,#48,#49),#89,.T.);
#911=ADVANCED_FACE('',(#131,#50,#51,#52,#53,#54,#55,#56,#57,#58,#59,#60,
#61,#62,#63,#64,#65,#66,#67,#68,#69,#70,#71,#72,#73,#74,#75,#76,#77,#78,
#79,#80,#81,#82,#83,#84),#90,.F.);
#912=CLOSED_SHELL('',(#871,#872,#873,#874,#875,#876,#877,#878,#879,#880,
#881,#882,#883,#884,#885,#886,#887,#888,#889,#890,#891,#892,#893,#894,#895,
#896,#897,#898,#899,#900,#901,#902,#903,#904,#905,#906,#907,#908,#909,#910,
#911));
#913=DERIVED_UNIT_ELEMENT(#915,1.);
#914=DERIVED_UNIT_ELEMENT(#1550,-3.);
#915=(
MASS_UNIT()
NAMED_UNIT(*)
SI_UNIT(.KILO.,.GRAM.)
);
#916=DERIVED_UNIT((#913,#914));
#917=MEASURE_REPRESENTATION_ITEM('density measure',
POSITIVE_RATIO_MEASURE(7850.),#916);
#918=PROPERTY_DEFINITION_REPRESENTATION(#923,#920);
#919=PROPERTY_DEFINITION_REPRESENTATION(#924,#921);
#920=REPRESENTATION('material name',(#922),#1547);
#921=REPRESENTATION('density',(#917),#1547);
#922=DESCRIPTIVE_REPRESENTATION_ITEM('Steel','Steel');
#923=PROPERTY_DEFINITION('material property','material name',#1557);
#924=PROPERTY_DEFINITION('material property','density of part',#1557);
#925=AXIS2_PLACEMENT_3D('',#1308,#1037,#1038);
#926=AXIS2_PLACEMENT_3D('',#1309,#1039,#1040);
#927=AXIS2_PLACEMENT_3D('',#1311,#1041,#1042);
#928=AXIS2_PLACEMENT_3D('',#1314,#1044,#1045);
#929=AXIS2_PLACEMENT_3D('',#1315,#1046,#1047);
#930=AXIS2_PLACEMENT_3D('',#1317,#1048,#1049);
#931=AXIS2_PLACEMENT_3D('',#1320,#1051,#1052);
#932=AXIS2_PLACEMENT_3D('',#1321,#1053,#1054);
#933=AXIS2_PLACEMENT_3D('',#1323,#1055,#1056);
#934=AXIS2_PLACEMENT_3D('',#1326,#1058,#1059);
#935=AXIS2_PLACEMENT_3D('',#1327,#1060,#1061);
#936=AXIS2_PLACEMENT_3D('',#1329,#1062,#1063);
#937=AXIS2_PLACEMENT_3D('',#1332,#1065,#1066);
#938=AXIS2_PLACEMENT_3D('',#1333,#1067,#1068);
#939=AXIS2_PLACEMENT_3D('',#1335,#1069,#1070);
#940=AXIS2_PLACEMENT_3D('',#1338,#1072,#1073);
#941=AXIS2_PLACEMENT_3D('',#1339,#1074,#1075);
#942=AXIS2_PLACEMENT_3D('',#1341,#1076,#1077);
#943=AXIS2_PLACEMENT_3D('',#1344,#1079,#1080);
#944=AXIS2_PLACEMENT_3D('',#1345,#1081,#1082);
#945=AXIS2_PLACEMENT_3D('',#1347,#1083,#1084);
#946=AXIS2_PLACEMENT_3D('',#1350,#1086,#1087);
#947=AXIS2_PLACEMENT_3D('',#1351,#1088,#1089);
#948=AXIS2_PLACEMENT_3D('',#1353,#1090,#1091);
#949=AXIS2_PLACEMENT_3D('',#1356,#1093,#1094);
#950=AXIS2_PLACEMENT_3D('',#1357,#1095,#1096);
#951=AXIS2_PLACEMENT_3D('',#1359,#1097,#1098);
#952=AXIS2_PLACEMENT_3D('',#1362,#1100,#1101);
#953=AXIS2_PLACEMENT_3D('',#1363,#1102,#1103);
#954=AXIS2_PLACEMENT_3D('',#1365,#1104,#1105);
#955=AXIS2_PLACEMENT_3D('',#1368,#1107,#1108);
#956=AXIS2_PLACEMENT_3D('',#1369,#1109,#1110);
#957=AXIS2_PLACEMENT_3D('',#1371,#1111,#1112);
#958=AXIS2_PLACEMENT_3D('',#1374,#1114,#1115);
#959=AXIS2_PLACEMENT_3D('',#1375,#1116,#1117);
#960=AXIS2_PLACEMENT_3D('',#1377,#1118,#1119);
#961=AXIS2_PLACEMENT_3D('',#1380,#1121,#1122);
#962=AXIS2_PLACEMENT_3D('',#1381,#1123,#1124);
#963=AXIS2_PLACEMENT_3D('',#1383,#1125,#1126);
#964=AXIS2_PLACEMENT_3D('',#1386,#1128,#1129);
#965=AXIS2_PLACEMENT_3D('',#1387,#1130,#1131);
#966=AXIS2_PLACEMENT_3D('',#1389,#1132,#1133);
#967=AXIS2_PLACEMENT_3D('',#1392,#1135,#1136);
#968=AXIS2_PLACEMENT_3D('',#1393,#1137,#1138);
#969=AXIS2_PLACEMENT_3D('',#1395,#1139,#1140);
#970=AXIS2_PLACEMENT_3D('',#1398,#1142,#1143);
#971=AXIS2_PLACEMENT_3D('',#1399,#1144,#1145);
#972=AXIS2_PLACEMENT_3D('',#1401,#1146,#1147);
#973=AXIS2_PLACEMENT_3D('',#1404,#1149,#1150);
#974=AXIS2_PLACEMENT_3D('',#1405,#1151,#1152);
#975=AXIS2_PLACEMENT_3D('',#1407,#1153,#1154);
#976=AXIS2_PLACEMENT_3D('',#1410,#1156,#1157);
#977=AXIS2_PLACEMENT_3D('',#1411,#1158,#1159);
#978=AXIS2_PLACEMENT_3D('',#1413,#1160,#1161);
#979=AXIS2_PLACEMENT_3D('',#1416,#1163,#1164);
#980=AXIS2_PLACEMENT_3D('',#1417,#1165,#1166);
#981=AXIS2_PLACEMENT_3D('',#1419,#1167,#1168);
#982=AXIS2_PLACEMENT_3D('',#1422,#1170,#1171);
#983=AXIS2_PLACEMENT_3D('',#1423,#1172,#1173);
#984=AXIS2_PLACEMENT_3D('',#1425,#1174,#1175);
#985=AXIS2_PLACEMENT_3D('',#1428,#1177,#1178);
#986=AXIS2_PLACEMENT_3D('',#1429,#1179,#1180);
#987=AXIS2_PLACEMENT_3D('',#1431,#1181,#1182);
#988=AXIS2_PLACEMENT_3D('',#1434,#1184,#1185);
#989=AXIS2_PLACEMENT_3D('',#1435,#1186,#1187);
#990=AXIS2_PLACEMENT_3D('',#1437,#1188,#1189);
#991=AXIS2_PLACEMENT_3D('',#1440,#1191,#1192);
#992=AXIS2_PLACEMENT_3D('',#1441,#1193,#1194);
#993=AXIS2_PLACEMENT_3D('',#1443,#1195,#1196);
#994=AXIS2_PLACEMENT_3D('',#1446,#1198,#1199);
#995=AXIS2_PLACEMENT_3D('',#1447,#1200,#1201);
#996=AXIS2_PLACEMENT_3D('',#1449,#1202,#1203);
#997=AXIS2_PLACEMENT_3D('',#1452,#1205,#1206);
#998=AXIS2_PLACEMENT_3D('',#1453,#1207,#1208);
#999=AXIS2_PLACEMENT_3D('',#1455,#1209,#1210);
#1000=AXIS2_PLACEMENT_3D('',#1458,#1212,#1213);
#1001=AXIS2_PLACEMENT_3D('',#1459,#1214,#1215);
#1002=AXIS2_PLACEMENT_3D('',#1461,#1216,#1217);
#1003=AXIS2_PLACEMENT_3D('',#1464,#1219,#1220);
#1004=AXIS2_PLACEMENT_3D('',#1465,#1221,#1222);
#1005=AXIS2_PLACEMENT_3D('',#1467,#1223,#1224);
#1006=AXIS2_PLACEMENT_3D('',#1470,#1226,#1227);
#1007=AXIS2_PLACEMENT_3D('',#1471,#1228,#1229);
#1008=AXIS2_PLACEMENT_3D('',#1473,#1230,#1231);
#1009=AXIS2_PLACEMENT_3D('',#1476,#1233,#1234);
#1010=AXIS2_PLACEMENT_3D('',#1477,#1235,#1236);
#1011=AXIS2_PLACEMENT_3D('',#1479,#1237,#1238);
#1012=AXIS2_PLACEMENT_3D('',#1482,#1240,#1241);
#1013=AXIS2_PLACEMENT_3D('',#1483,#1242,#1243);
#1014=AXIS2_PLACEMENT_3D('',#1485,#1244,#1245);
#1015=AXIS2_PLACEMENT_3D('',#1488,#1247,#1248);
#1016=AXIS2_PLACEMENT_3D('',#1489,#1249,#1250);
#1017=AXIS2_PLACEMENT_3D('',#1491,#1251,#1252);
#1018=AXIS2_PLACEMENT_3D('',#1494,#1254,#1255);
#1019=AXIS2_PLACEMENT_3D('',#1495,#1256,#1257);
#1020=AXIS2_PLACEMENT_3D('',#1497,#1258,#1259);
#1021=AXIS2_PLACEMENT_3D('',#1500,#1261,#1262);
#1022=AXIS2_PLACEMENT_3D('',#1501,#1263,#1264);
#1023=AXIS2_PLACEMENT_3D('',#1503,#1265,#1266);
#1024=AXIS2_PLACEMENT_3D('',#1506,#1268,#1269);
#1025=AXIS2_PLACEMENT_3D('',#1507,#1270,#1271);
#1026=AXIS2_PLACEMENT_3D('',#1509,#1272,#1273);
#1027=AXIS2_PLACEMENT_3D('',#1512,#1275,#1276);
#1028=AXIS2_PLACEMENT_3D('',#1513,#1277,#1278);
#1029=AXIS2_PLACEMENT_3D('',#1515,#1279,#1280);
#1030=AXIS2_PLACEMENT_3D('',#1518,#1282,#1283);
#1031=AXIS2_PLACEMENT_3D('',#1519,#1284,#1285);
#1032=AXIS2_PLACEMENT_3D('',#1528,#1290,#1291);
#1033=AXIS2_PLACEMENT_3D('',#1534,#1295,#1296);
#1034=AXIS2_PLACEMENT_3D('',#1540,#1300,#1301);
#1035=AXIS2_PLACEMENT_3D('',#1543,#1304,#1305);
#1036=AXIS2_PLACEMENT_3D('',#1544,#1306,#1307);
#1037=DIRECTION('axis',(0.,0.,1.));
#1038=DIRECTION('refdir',(1.,0.,0.));
#1039=DIRECTION('center_axis',(0.,0.,-1.));
#1040=DIRECTION('ref_axis',(-1.,0.,0.));
#1041=DIRECTION('center_axis',(0.,0.,-1.));
#1042=DIRECTION('ref_axis',(-1.,0.,0.));
#1043=DIRECTION('',(0.,0.,-1.));
#1044=DIRECTION('center_axis',(0.,0.,1.));
#1045=DIRECTION('ref_axis',(-1.,0.,0.));
#1046=DIRECTION('center_axis',(0.,0.,-1.));
#1047=DIRECTION('ref_axis',(-1.,0.,0.));
#1048=DIRECTION('center_axis',(0.,0.,-1.));
#1049=DIRECTION('ref_axis',(-1.,0.,0.));
#1050=DIRECTION('',(0.,0.,-1.));
#1051=DIRECTION('center_axis',(0.,0.,1.));
#1052=DIRECTION('ref_axis',(-1.,0.,0.));
#1053=DIRECTION('center_axis',(0.,0.,-1.));
#1054=DIRECTION('ref_axis',(-1.,0.,0.));
#1055=DIRECTION('center_axis',(0.,0.,-1.));
#1056=DIRECTION('ref_axis',(-1.,0.,0.));
#1057=DIRECTION('',(0.,0.,-1.));
#1058=DIRECTION('center_axis',(0.,0.,1.));
#1059=DIRECTION('ref_axis',(-1.,0.,0.));
#1060=DIRECTION('center_axis',(0.,0.,-1.));
#1061=DIRECTION('ref_axis',(-1.,0.,0.));
#1062=DIRECTION('center_axis',(0.,0.,-1.));
#1063=DIRECTION('ref_axis',(-1.,0.,0.));
#1064=DIRECTION('',(0.,0.,-1.));
#1065=DIRECTION('center_axis',(0.,0.,1.));
#1066=DIRECTION('ref_axis',(-1.,0.,0.));
#1067=DIRECTION('center_axis',(0.,0.,-1.));
#1068=DIRECTION('ref_axis',(-1.,0.,0.));
#1069=DIRECTION('center_axis',(0.,0.,-1.));
#1070=DIRECTION('ref_axis',(-1.,0.,0.));
#1071=DIRECTION('',(0.,0.,-1.));
#1072=DIRECTION('center_axis',(0.,0.,1.));
#1073=DIRECTION('ref_axis',(-1.,0.,0.));
#1074=DIRECTION('center_axis',(0.,0.,-1.));
#1075=DIRECTION('ref_axis',(-1.,0.,0.));
#1076=DIRECTION('center_axis',(0.,0.,-1.));
#1077=DIRECTION('ref_axis',(-1.,0.,0.));
#1078=DIRECTION('',(0.,0.,-1.));
#1079=DIRECTION('center_axis',(0.,0.,1.));
#1080=DIRECTION('ref_axis',(-1.,0.,0.));
#1081=DIRECTION('center_axis',(0.,0.,-1.));
#1082=DIRECTION('ref_axis',(-1.,0.,0.));
#1083=DIRECTION('center_axis',(0.,0.,-1.));
#1084=DIRECTION('ref_axis',(-1.,0.,0.));
#1085=DIRECTION('',(0.,0.,-1.));
#1086=DIRECTION('center_axis',(0.,0.,1.));
#1087=DIRECTION('ref_axis',(-1.,0.,0.));
#1088=DIRECTION('center_axis',(0.,0.,-1.));
#1089=DIRECTION('ref_axis',(-1.,0.,0.));
#1090=DIRECTION('center_axis',(0.,0.,-1.));
#1091=DIRECTION('ref_axis',(-1.,0.,0.));
#1092=DIRECTION('',(0.,0.,-1.));
#1093=DIRECTION('center_axis',(0.,0.,1.));
#1094=DIRECTION('ref_axis',(-1.,0.,0.));
#1095=DIRECTION('center_axis',(0.,0.,-1.));
#1096=DIRECTION('ref_axis',(-1.,0.,0.));
#1097=DIRECTION('center_axis',(0.,0.,-1.));
#1098=DIRECTION('ref_axis',(-1.,0.,0.));
#1099=DIRECTION('',(0.,0.,-1.));
#1100=DIRECTION('center_axis',(0.,0.,1.));
#1101=DIRECTION('ref_axis',(-1.,0.,0.));
#1102=DIRECTION('center_axis',(0.,0.,-1.));
#1103=DIRECTION('ref_axis',(-1.,0.,0.));
#1104=DIRECTION('center_axis',(0.,0.,-1.));
#1105=DIRECTION('ref_axis',(-1.,0.,0.));
#1106=DIRECTION('',(0.,0.,-1.));
#1107=DIRECTION('center_axis',(0.,0.,1.));
#1108=DIRECTION('ref_axis',(-1.,0.,0.));
#1109=DIRECTION('center_axis',(0.,0.,-1.));
#1110=DIRECTION('ref_axis',(-1.,0.,0.));
#1111=DIRECTION('center_axis',(0.,0.,-1.));
#1112=DIRECTION('ref_axis',(-1.,0.,0.));
#1113=DIRECTION('',(0.,0.,-1.));
#1114=DIRECTION('center_axis',(0.,0.,1.));
#1115=DIRECTION('ref_axis',(-1.,0.,0.));
#1116=DIRECTION('center_axis',(0.,0.,-1.));
#1117=DIRECTION('ref_axis',(-1.,0.,0.));
#1118=DIRECTION('center_axis',(0.,0.,-1.));
#1119=DIRECTION('ref_axis',(-1.,0.,0.));
#1120=DIRECTION('',(0.,0.,-1.));
#1121=DIRECTION('center_axis',(0.,0.,1.));
#1122=DIRECTION('ref_axis',(-1.,0.,0.));
#1123=DIRECTION('center_axis',(0.,0.,-1.));
#1124=DIRECTION('ref_axis',(-1.,0.,0.));
#1125=DIRECTION('center_axis',(0.,0.,-1.));
#1126=DIRECTION('ref_axis',(-1.,0.,0.));
#1127=DIRECTION('',(0.,0.,-1.));
#1128=DIRECTION('center_axis',(0.,0.,1.));
#1129=DIRECTION('ref_axis',(-1.,0.,0.));
#1130=DIRECTION('center_axis',(0.,0.,-1.));
#1131=DIRECTION('ref_axis',(-1.,0.,0.));
#1132=DIRECTION('center_axis',(0.,0.,-1.));
#1133=DIRECTION('ref_axis',(-1.,0.,0.));
#1134=DIRECTION('',(0.,0.,-1.));
#1135=DIRECTION('center_axis',(0.,0.,1.));
#1136=DIRECTION('ref_axis',(-1.,0.,0.));
#1137=DIRECTION('center_axis',(0.,0.,-1.));
#1138=DIRECTION('ref_axis',(-1.,0.,0.));
#1139=DIRECTION('center_axis',(0.,0.,-1.));
#1140=DIRECTION('ref_axis',(-1.,0.,0.));
#1141=DIRECTION('',(0.,0.,-1.));
#1142=DIRECTION('center_axis',(0.,0.,1.));
#1143=DIRECTION('ref_axis',(-1.,0.,0.));
#1144=DIRECTION('center_axis',(0.,0.,-1.));
#1145=DIRECTION('ref_axis',(-1.,0.,0.));
#1146=DIRECTION('center_axis',(0.,0.,-1.));
#1147=DIRECTION('ref_axis',(-1.,0.,0.));
#1148=DIRECTION('',(0.,0.,-1.));
#1149=DIRECTION('center_axis',(0.,0.,1.));
#1150=DIRECTION('ref_axis',(-1.,0.,0.));
#1151=DIRECTION('center_axis',(0.,0.,-1.));
#1152=DIRECTION('ref_axis',(-1.,0.,0.));
#1153=DIRECTION('center_axis',(0.,0.,-1.));
#1154=DIRECTION('ref_axis',(-1.,0.,0.));
#1155=DIRECTION('',(0.,0.,-1.));
#1156=DIRECTION('center_axis',(0.,0.,1.));
#1157=DIRECTION('ref_axis',(-1.,0.,0.));
#1158=DIRECTION('center_axis',(0.,0.,-1.));
#1159=DIRECTION('ref_axis',(-1.,0.,0.));
#1160=DIRECTION('center_axis',(0.,0.,-1.));
#1161=DIRECTION('ref_axis',(-1.,0.,0.));
#1162=DIRECTION('',(0.,0.,-1.));
#1163=DIRECTION('center_axis',(0.,0.,1.));
#1164=DIRECTION('ref_axis',(-1.,0.,0.));
#1165=DIRECTION('center_axis',(0.,0.,-1.));
#1166=DIRECTION('ref_axis',(-1.,0.,0.));
#1167=DIRECTION('center_axis',(0.,0.,-1.));
#1168=DIRECTION('ref_axis',(-1.,0.,0.));
#1169=DIRECTION('',(0.,0.,-1.));
#1170=DIRECTION('center_axis',(0.,0.,1.));
#1171=DIRECTION('ref_axis',(-1.,0.,0.));
#1172=DIRECTION('center_axis',(0.,0.,-1.));
#1173=DIRECTION('ref_axis',(-1.,0.,0.));
#1174=DIRECTION('center_axis',(0.,0.,-1.));
#1175=DIRECTION('ref_axis',(-1.,0.,0.));
#1176=DIRECTION('',(0.,0.,-1.));
#1177=DIRECTION('center_axis',(0.,0.,1.));
#1178=DIRECTION('ref_axis',(-1.,0.,0.));
#1179=DIRECTION('center_axis',(0.,0.,-1.));
#1180=DIRECTION('ref_axis',(-1.,0.,0.));
#1181=DIRECTION('center_axis',(0.,0.,-1.));
#1182=DIRECTION('ref_axis',(-1.,0.,0.));
#1183=DIRECTION('',(0.,0.,-1.));
#1184=DIRECTION('center_axis',(0.,0.,1.));
#1185=DIRECTION('ref_axis',(-1.,0.,0.));
#1186=DIRECTION('center_axis',(0.,0.,-1.));
#1187=DIRECTION('ref_axis',(-1.,0.,0.));
#1188=DIRECTION('center_axis',(0.,0.,-1.));
#1189=DIRECTION('ref_axis',(-1.,0.,0.));
#1190=DIRECTION('',(0.,0.,-1.));
#1191=DIRECTION('center_axis',(0.,0.,1.));
#1192=DIRECTION('ref_axis',(-1.,0.,0.));
#1193=DIRECTION('center_axis',(0.,0.,-1.));
#1194=DIRECTION('ref_axis',(-1.,0.,0.));
#1195=DIRECTION('center_axis',(0.,0.,-1.));
#1196=DIRECTION('ref_axis',(-1.,0.,0.));
#1197=DIRECTION('',(0.,0.,-1.));
#1198=DIRECTION('center_axis',(0.,0.,1.));
#1199=DIRECTION('ref_axis',(-1.,0.,0.));
#1200=DIRECTION('center_axis',(0.,0.,-1.));
#1201=DIRECTION('ref_axis',(-1.,0.,0.));
#1202=DIRECTION('center_axis',(0.,0.,-1.));
#1203=DIRECTION('ref_axis',(-1.,0.,0.));
#1204=DIRECTION('',(0.,0.,-1.));
#1205=DIRECTION('center_axis',(0.,0.,1.));
#1206=DIRECTION('ref_axis',(-1.,0.,0.));
#1207=DIRECTION('center_axis',(0.,0.,-1.));
#1208=DIRECTION('ref_axis',(-1.,0.,0.));
#1209=DIRECTION('center_axis',(0.,0.,-1.));
#1210=DIRECTION('ref_axis',(-1.,0.,0.));
#1211=DIRECTION('',(0.,0.,-1.));
#1212=DIRECTION('center_axis',(0.,0.,1.));
#1213=DIRECTION('ref_axis',(-1.,0.,0.));
#1214=DIRECTION('center_axis',(0.,0.,-1.));
#1215=DIRECTION('ref_axis',(-1.,0.,0.));
#1216=DIRECTION('center_axis',(0.,0.,-1.));
#1217=DIRECTION('ref_axis',(-1.,0.,0.));
#1218=DIRECTION('',(0.,0.,-1.));
#1219=DIRECTION('center_axis',(0.,0.,1.));
#1220=DIRECTION('ref_axis',(-1.,0.,0.));
#1221=DIRECTION('center_axis',(0.,0.,-1.));
#1222=DIRECTION('ref_axis',(-1.,0.,0.));
#1223=DIRECTION('center_axis',(0.,0.,-1.));
#1224=DIRECTION('ref_axis',(-1.,0.,0.));
#1225=DIRECTION('',(0.,0.,-1.));
#1226=DIRECTION('center_axis',(0.,0.,1.));
#1227=DIRECTION('ref_axis',(-1.,0.,0.));
#1228=DIRECTION('center_axis',(0.,0.,-1.));
#1229=DIRECTION('ref_axis',(-1.,0.,0.));
#1230=DIRECTION('center_axis',(0.,0.,-1.));
#1231=DIRECTION('ref_axis',(-1.,0.,0.));
#1232=DIRECTION('',(0.,0.,-1.));
#1233=DIRECTION('center_axis',(0.,0.,1.));
#1234=DIRECTION('ref_axis',(-1.,0.,0.));
#1235=DIRECTION('center_axis',(0.,0.,-1.));
#1236=DIRECTION('ref_axis',(-1.,0.,0.));
#1237=DIRECTION('center_axis',(0.,0.,-1.));
#1238=DIRECTION('ref_axis',(-1.,0.,0.));
#1239=DIRECTION('',(0.,0.,-1.));
#1240=DIRECTION('center_axis',(0.,0.,1.));
#1241=DIRECTION('ref_axis',(-1.,0.,0.));
#1242=DIRECTION('center_axis',(0.,0.,-1.));
#1243=DIRECTION('ref_axis',(-1.,0.,0.));
#1244=DIRECTION('center_axis',(0.,0.,-1.));
#1245=DIRECTION('ref_axis',(-1.,0.,0.));
#1246=DIRECTION('',(0.,0.,-1.));
#1247=DIRECTION('center_axis',(0.,0.,1.));
#1248=DIRECTION('ref_axis',(-1.,0.,0.));
#1249=DIRECTION('center_axis',(0.,0.,-1.));
#1250=DIRECTION('ref_axis',(-1.,0.,0.));
#1251=DIRECTION('center_axis',(0.,0.,-1.));
#1252=DIRECTION('ref_axis',(-1.,0.,0.));
#1253=DIRECTION('',(0.,0.,-1.));
#1254=DIRECTION('center_axis',(0.,0.,1.));
#1255=DIRECTION('ref_axis',(-1.,0.,0.));
#1256=DIRECTION('center_axis',(0.,0.,-1.));
#1257=DIRECTION('ref_axis',(-1.,0.,0.));
#1258=DIRECTION('center_axis',(0.,0.,-1.));
#1259=DIRECTION('ref_axis',(-1.,0.,0.));
#1260=DIRECTION('',(0.,0.,-1.));
#1261=DIRECTION('center_axis',(0.,0.,1.));
#1262=DIRECTION('ref_axis',(-1.,0.,0.));
#1263=DIRECTION('center_axis',(0.,0.,-1.));
#1264=DIRECTION('ref_axis',(-1.,0.,0.));
#1265=DIRECTION('center_axis',(0.,0.,-1.));
#1266=DIRECTION('ref_axis',(-1.,0.,0.));
#1267=DIRECTION('',(0.,0.,-1.));
#1268=DIRECTION('center_axis',(0.,0.,1.));
#1269=DIRECTION('ref_axis',(-1.,0.,0.));
#1270=DIRECTION('center_axis',(0.,0.,-1.));
#1271=DIRECTION('ref_axis',(-1.,0.,0.));
#1272=DIRECTION('center_axis',(0.,0.,-1.));
#1273=DIRECTION('ref_axis',(-1.,0.,0.));
#1274=DIRECTION('',(0.,0.,-1.));
#1275=DIRECTION('center_axis',(0.,0.,1.));
#1276=DIRECTION('ref_axis',(-1.,0.,0.));
#1277=DIRECTION('center_axis',(0.,0.,-1.));
#1278=DIRECTION('ref_axis',(-1.,0.,0.));
#1279=DIRECTION('center_axis',(0.,0.,-1.));
#1280=DIRECTION('ref_axis',(-1.,0.,0.));
#1281=DIRECTION('',(0.,0.,-1.));
#1282=DIRECTION('center_axis',(0.,0.,1.));
#1283=DIRECTION('ref_axis',(-1.,0.,0.));
#1284=DIRECTION('center_axis',(0.,1.,0.));
#1285=DIRECTION('ref_axis',(-1.,0.,0.));
#1286=DIRECTION('',(-1.,0.,0.));
#1287=DIRECTION('',(0.,0.,1.));
#1288=DIRECTION('',(-1.,0.,0.));
#1289=DIRECTION('',(0.,0.,1.));
#1290=DIRECTION('center_axis',(1.,0.,0.));
#1291=DIRECTION('ref_axis',(0.,1.,0.));
#1292=DIRECTION('',(0.,1.,0.));
#1293=DIRECTION('',(0.,1.,0.));
#1294=DIRECTION('',(0.,0.,1.));
#1295=DIRECTION('center_axis',(0.,-1.,0.));
#1296=DIRECTION('ref_axis',(1.,0.,0.));
#1297=DIRECTION('',(1.,0.,0.));
#1298=DIRECTION('',(1.,0.,0.));
#1299=DIRECTION('',(0.,0.,1.));
#1300=DIRECTION('center_axis',(-1.,2.46519032881566E-33,0.));
#1301=DIRECTION('ref_axis',(-2.46519032881566E-33,-1.,0.));
#1302=DIRECTION('',(-2.46519032881566E-33,-1.,0.));
#1303=DIRECTION('',(-2.46519032881566E-33,-1.,0.));
#1304=DIRECTION('center_axis',(0.,0.,1.));
#1305=DIRECTION('ref_axis',(1.,0.,0.));
#1306=DIRECTION('center_axis',(0.,0.,1.));
#1307=DIRECTION('ref_axis',(1.,0.,0.));
#1308=CARTESIAN_POINT('',(0.,0.,0.));
#1309=CARTESIAN_POINT('Origin',(125.,30.,18.));
#1310=CARTESIAN_POINT('',(129.,30.,18.));
#1311=CARTESIAN_POINT('Origin',(125.,30.,18.));
#1312=CARTESIAN_POINT('',(129.,30.,0.));
#1313=CARTESIAN_POINT('',(129.,30.,18.));
#1314=CARTESIAN_POINT('Origin',(125.,30.,0.));
#1315=CARTESIAN_POINT('Origin',(80.,30.,18.));
#1316=CARTESIAN_POINT('',(84.,30.,18.));
#1317=CARTESIAN_POINT('Origin',(80.,30.,18.));
#1318=CARTESIAN_POINT('',(84.,30.,0.));
#1319=CARTESIAN_POINT('',(84.,30.,18.));
#1320=CARTESIAN_POINT('Origin',(80.,30.,0.));
#1321=CARTESIAN_POINT('Origin',(170.,30.,18.));
#1322=CARTESIAN_POINT('',(174.,30.,18.));
#1323=CARTESIAN_POINT('Origin',(170.,30.,18.));
#1324=CARTESIAN_POINT('',(174.,30.,0.));
#1325=CARTESIAN_POINT('',(174.,30.,18.));
#1326=CARTESIAN_POINT('Origin',(170.,30.,0.));
#1327=CARTESIAN_POINT('Origin',(35.,30.,18.));
#1328=CARTESIAN_POINT('',(39.,30.,18.));
#1329=CARTESIAN_POINT('Origin',(35.,30.,18.));
#1330=CARTESIAN_POINT('',(39.,30.,0.));
#1331=CARTESIAN_POINT('',(39.,30.,18.));
#1332=CARTESIAN_POINT('Origin',(35.,30.,0.));
#1333=CARTESIAN_POINT('Origin',(215.,30.,18.));
#1334=CARTESIAN_POINT('',(219.,30.,18.));
#1335=CARTESIAN_POINT('Origin',(215.,30.,18.));
#1336=CARTESIAN_POINT('',(219.,30.,0.));
#1337=CARTESIAN_POINT('',(219.,30.,18.));
#1338=CARTESIAN_POINT('Origin',(215.,30.,0.));
#1339=CARTESIAN_POINT('Origin',(170.,134.,18.));
#1340=CARTESIAN_POINT('',(174.,134.,18.));
#1341=CARTESIAN_POINT('Origin',(170.,134.,18.));
#1342=CARTESIAN_POINT('',(174.,134.,0.));
#1343=CARTESIAN_POINT('',(174.,134.,18.));
#1344=CARTESIAN_POINT('Origin',(170.,134.,0.));
#1345=CARTESIAN_POINT('Origin',(125.,134.,18.));
#1346=CARTESIAN_POINT('',(129.,134.,18.));
#1347=CARTESIAN_POINT('Origin',(125.,134.,18.));
#1348=CARTESIAN_POINT('',(129.,134.,0.));
#1349=CARTESIAN_POINT('',(129.,134.,18.));
#1350=CARTESIAN_POINT('Origin',(125.,134.,0.));
#1351=CARTESIAN_POINT('Origin',(125.,80.,18.));
#1352=CARTESIAN_POINT('',(129.,80.,18.));
#1353=CARTESIAN_POINT('Origin',(125.,80.,18.));
#1354=CARTESIAN_POINT('',(129.,80.,0.));
#1355=CARTESIAN_POINT('',(129.,80.,18.));
#1356=CARTESIAN_POINT('Origin',(125.,80.,0.));
#1357=CARTESIAN_POINT('Origin',(35.,188.,18.));
#1358=CARTESIAN_POINT('',(39.,188.,18.));
#1359=CARTESIAN_POINT('Origin',(35.,188.,18.));
#1360=CARTESIAN_POINT('',(39.,188.,0.));
#1361=CARTESIAN_POINT('',(39.,188.,18.));
#1362=CARTESIAN_POINT('Origin',(35.,188.,0.));
#1363=CARTESIAN_POINT('Origin',(80.,80.,18.));
#1364=CARTESIAN_POINT('',(84.,80.,18.));
#1365=CARTESIAN_POINT('Origin',(80.,80.,18.));
#1366=CARTESIAN_POINT('',(84.,80.,0.));
#1367=CARTESIAN_POINT('',(84.,80.,18.));
#1368=CARTESIAN_POINT('Origin',(80.,80.,0.));
#1369=CARTESIAN_POINT('Origin',(125.,188.,18.));
#1370=CARTESIAN_POINT('',(129.,188.,18.));
#1371=CARTESIAN_POINT('Origin',(125.,188.,18.));
#1372=CARTESIAN_POINT('',(129.,188.,0.));
#1373=CARTESIAN_POINT('',(129.,188.,18.));
#1374=CARTESIAN_POINT('Origin',(125.,188.,0.));
#1375=CARTESIAN_POINT('Origin',(215.,134.,18.));
#1376=CARTESIAN_POINT('',(219.,134.,18.));
#1377=CARTESIAN_POINT('Origin',(215.,134.,18.));
#1378=CARTESIAN_POINT('',(219.,134.,0.));
#1379=CARTESIAN_POINT('',(219.,134.,18.));
#1380=CARTESIAN_POINT('Origin',(215.,134.,0.));
#1381=CARTESIAN_POINT('Origin',(170.,188.,18.));
#1382=CARTESIAN_POINT('',(174.,188.,18.));
#1383=CARTESIAN_POINT('Origin',(170.,188.,18.));
#1384=CARTESIAN_POINT('',(174.,188.,0.));
#1385=CARTESIAN_POINT('',(174.,188.,18.));
#1386=CARTESIAN_POINT('Origin',(170.,188.,0.));
#1387=CARTESIAN_POINT('Origin',(170.,80.,18.));
#1388=CARTESIAN_POINT('',(174.,80.,18.));
#1389=CARTESIAN_POINT('Origin',(170.,80.,18.));
#1390=CARTESIAN_POINT('',(174.,80.,0.));
#1391=CARTESIAN_POINT('',(174.,80.,18.));
#1392=CARTESIAN_POINT('Origin',(170.,80.,0.));
#1393=CARTESIAN_POINT('Origin',(80.,134.,18.));
#1394=CARTESIAN_POINT('',(84.,134.,18.));
#1395=CARTESIAN_POINT('Origin',(80.,134.,18.));
#1396=CARTESIAN_POINT('',(84.,134.,0.));
#1397=CARTESIAN_POINT('',(84.,134.,18.));
#1398=CARTESIAN_POINT('Origin',(80.,134.,0.));
#1399=CARTESIAN_POINT('Origin',(35.,134.,18.));
#1400=CARTESIAN_POINT('',(39.,134.,18.));
#1401=CARTESIAN_POINT('Origin',(35.,134.,18.));
#1402=CARTESIAN_POINT('',(39.,134.,0.));
#1403=CARTESIAN_POINT('',(39.,134.,18.));
#1404=CARTESIAN_POINT('Origin',(35.,134.,0.));
#1405=CARTESIAN_POINT('Origin',(35.,80.,18.));
#1406=CARTESIAN_POINT('',(39.,80.,18.));
#1407=CARTESIAN_POINT('Origin',(35.,80.,18.));
#1408=CARTESIAN_POINT('',(39.,80.,0.));
#1409=CARTESIAN_POINT('',(39.,80.,18.));
#1410=CARTESIAN_POINT('Origin',(35.,80.,0.));
#1411=CARTESIAN_POINT('Origin',(80.,188.,18.));
#1412=CARTESIAN_POINT('',(84.,188.,18.));
#1413=CARTESIAN_POINT('Origin',(80.,188.,18.));
#1414=CARTESIAN_POINT('',(84.,188.,0.));
#1415=CARTESIAN_POINT('',(84.,188.,18.));
#1416=CARTESIAN_POINT('Origin',(80.,188.,0.));
#1417=CARTESIAN_POINT('Origin',(215.,80.,18.));
#1418=CARTESIAN_POINT('',(219.,80.,18.));
#1419=CARTESIAN_POINT('Origin',(215.,80.,18.));
#1420=CARTESIAN_POINT('',(219.,80.,0.));
#1421=CARTESIAN_POINT('',(219.,80.,18.));
#1422=CARTESIAN_POINT('Origin',(215.,80.,0.));
#1423=CARTESIAN_POINT('Origin',(215.,188.,18.));
#1424=CARTESIAN_POINT('',(219.,188.,18.));
#1425=CARTESIAN_POINT('Origin',(215.,188.,18.));
#1426=CARTESIAN_POINT('',(219.,188.,0.));
#1427=CARTESIAN_POINT('',(219.,188.,18.));
#1428=CARTESIAN_POINT('Origin',(215.,188.,0.));
#1429=CARTESIAN_POINT('Origin',(125.,242.,18.));
#1430=CARTESIAN_POINT('',(129.,242.,18.));
#1431=CARTESIAN_POINT('Origin',(125.,242.,18.));
#1432=CARTESIAN_POINT('',(129.,242.,0.));
#1433=CARTESIAN_POINT('',(129.,242.,18.));
#1434=CARTESIAN_POINT('Origin',(125.,242.,0.));
#1435=CARTESIAN_POINT('Origin',(80.,296.,18.));
#1436=CARTESIAN_POINT('',(84.,296.,18.));
#1437=CARTESIAN_POINT('Origin',(80.,296.,18.));
#1438=CARTESIAN_POINT('',(84.,296.,0.));
#1439=CARTESIAN_POINT('',(84.,296.,18.));
#1440=CARTESIAN_POINT('Origin',(80.,296.,0.));
#1441=CARTESIAN_POINT('Origin',(215.,350.,18.));
#1442=CARTESIAN_POINT('',(219.,350.,18.));
#1443=CARTESIAN_POINT('Origin',(215.,350.,18.));
#1444=CARTESIAN_POINT('',(219.,350.,0.));
#1445=CARTESIAN_POINT('',(219.,350.,18.));
#1446=CARTESIAN_POINT('Origin',(215.,350.,0.));
#1447=CARTESIAN_POINT('Origin',(35.,350.,18.));
#1448=CARTESIAN_POINT('',(39.,350.,18.));
#1449=CARTESIAN_POINT('Origin',(35.,350.,18.));
#1450=CARTESIAN_POINT('',(39.,350.,0.));
#1451=CARTESIAN_POINT('',(39.,350.,18.));
#1452=CARTESIAN_POINT('Origin',(35.,350.,0.));
#1453=CARTESIAN_POINT('Origin',(170.,350.,18.));
#1454=CARTESIAN_POINT('',(174.,350.,18.));
#1455=CARTESIAN_POINT('Origin',(170.,350.,18.));
#1456=CARTESIAN_POINT('',(174.,350.,0.));
#1457=CARTESIAN_POINT('',(174.,350.,18.));
#1458=CARTESIAN_POINT('Origin',(170.,350.,0.));
#1459=CARTESIAN_POINT('Origin',(125.,296.,18.));
#1460=CARTESIAN_POINT('',(129.,296.,18.));
#1461=CARTESIAN_POINT('Origin',(125.,296.,18.));
#1462=CARTESIAN_POINT('',(129.,296.,0.));
#1463=CARTESIAN_POINT('',(129.,296.,18.));
#1464=CARTESIAN_POINT('Origin',(125.,296.,0.));
#1465=CARTESIAN_POINT('Origin',(80.,242.,18.));
#1466=CARTESIAN_POINT('',(84.,242.,18.));
#1467=CARTESIAN_POINT('Origin',(80.,242.,18.));
#1468=CARTESIAN_POINT('',(84.,242.,0.));
#1469=CARTESIAN_POINT('',(84.,242.,18.));
#1470=CARTESIAN_POINT('Origin',(80.,242.,0.));
#1471=CARTESIAN_POINT('Origin',(170.,242.,18.));
#1472=CARTESIAN_POINT('',(174.,242.,18.));
#1473=CARTESIAN_POINT('Origin',(170.,242.,18.));
#1474=CARTESIAN_POINT('',(174.,242.,0.));
#1475=CARTESIAN_POINT('',(174.,242.,18.));
#1476=CARTESIAN_POINT('Origin',(170.,242.,0.));
#1477=CARTESIAN_POINT('Origin',(35.,296.,18.));
#1478=CARTESIAN_POINT('',(39.,296.,18.));
#1479=CARTESIAN_POINT('Origin',(35.,296.,18.));
#1480=CARTESIAN_POINT('',(39.,296.,0.));
#1481=CARTESIAN_POINT('',(39.,296.,18.));
#1482=CARTESIAN_POINT('Origin',(35.,296.,0.));
#1483=CARTESIAN_POINT('Origin',(215.,296.,18.));
#1484=CARTESIAN_POINT('',(219.,296.,18.));
#1485=CARTESIAN_POINT('Origin',(215.,296.,18.));
#1486=CARTESIAN_POINT('',(219.,296.,0.));
#1487=CARTESIAN_POINT('',(219.,296.,18.));
#1488=CARTESIAN_POINT('Origin',(215.,296.,0.));
#1489=CARTESIAN_POINT('Origin',(80.,350.,18.));
#1490=CARTESIAN_POINT('',(84.,350.,18.));
#1491=CARTESIAN_POINT('Origin',(80.,350.,18.));
#1492=CARTESIAN_POINT('',(84.,350.,0.));
#1493=CARTESIAN_POINT('',(84.,350.,18.));
#1494=CARTESIAN_POINT('Origin',(80.,350.,0.));
#1495=CARTESIAN_POINT('Origin',(125.,350.,18.));
#1496=CARTESIAN_POINT('',(129.,350.,18.));
#1497=CARTESIAN_POINT('Origin',(125.,350.,18.));
#1498=CARTESIAN_POINT('',(129.,350.,0.));
#1499=CARTESIAN_POINT('',(129.,350.,18.));
#1500=CARTESIAN_POINT('Origin',(125.,350.,0.));
#1501=CARTESIAN_POINT('Origin',(170.,296.,18.));
#1502=CARTESIAN_POINT('',(174.,296.,18.));
#1503=CARTESIAN_POINT('Origin',(170.,296.,18.));
#1504=CARTESIAN_POINT('',(174.,296.,0.));
#1505=CARTESIAN_POINT('',(174.,296.,18.));
#1506=CARTESIAN_POINT('Origin',(170.,296.,0.));
#1507=CARTESIAN_POINT('Origin',(35.,242.,18.));
#1508=CARTESIAN_POINT('',(39.,242.,18.));
#1509=CARTESIAN_POINT('Origin',(35.,242.,18.));
#1510=CARTESIAN_POINT('',(39.,242.,0.));
#1511=CARTESIAN_POINT('',(39.,242.,18.));
#1512=CARTESIAN_POINT('Origin',(35.,242.,0.));
#1513=CARTESIAN_POINT('Origin',(215.,242.,18.));
#1514=CARTESIAN_POINT('',(219.,242.,18.));
#1515=CARTESIAN_POINT('Origin',(215.,242.,18.));
#1516=CARTESIAN_POINT('',(219.,242.,0.));
#1517=CARTESIAN_POINT('',(219.,242.,18.));
#1518=CARTESIAN_POINT('Origin',(215.,242.,0.));
#1519=CARTESIAN_POINT('Origin',(250.,400.,0.));
#1520=CARTESIAN_POINT('',(250.,400.,0.));
#1521=CARTESIAN_POINT('',(9.86076131526265E-31,400.,0.));
#1522=CARTESIAN_POINT('',(250.,400.,0.));
#1523=CARTESIAN_POINT('',(9.86076131526265E-31,400.,18.));
#1524=CARTESIAN_POINT('',(9.86076131526265E-31,400.,0.));
#1525=CARTESIAN_POINT('',(250.,400.,18.));
#1526=CARTESIAN_POINT('',(250.,400.,18.));
#1527=CARTESIAN_POINT('',(250.,400.,0.));
#1528=CARTESIAN_POINT('Origin',(250.,0.,0.));
#1529=CARTESIAN_POINT('',(250.,0.,0.));
#1530=CARTESIAN_POINT('',(250.,0.,0.));
#1531=CARTESIAN_POINT('',(250.,0.,18.));
#1532=CARTESIAN_POINT('',(250.,0.,18.));
#1533=CARTESIAN_POINT('',(250.,0.,0.));
#1534=CARTESIAN_POINT('Origin',(0.,0.,0.));
#1535=CARTESIAN_POINT('',(0.,0.,0.));
#1536=CARTESIAN_POINT('',(0.,0.,0.));
#1537=CARTESIAN_POINT('',(0.,0.,18.));
#1538=CARTESIAN_POINT('',(0.,0.,18.));
#1539=CARTESIAN_POINT('',(0.,0.,0.));
#1540=CARTESIAN_POINT('Origin',(9.86076131526265E-31,400.,0.));
#1541=CARTESIAN_POINT('',(9.86076131526265E-31,400.,0.));
#1542=CARTESIAN_POINT('',(9.86076131526265E-31,400.,18.));
#1543=CARTESIAN_POINT('Origin',(125.,200.,18.));
#1544=CARTESIAN_POINT('Origin',(125.,200.,0.));
#1545=UNCERTAINTY_MEASURE_WITH_UNIT(LENGTH_MEASURE(0.01),#1549,
'DISTANCE_ACCURACY_VALUE',
'Maximum model space distance between geometric entities at asserted c
onnectivities');
#1546=UNCERTAINTY_MEASURE_WITH_UNIT(LENGTH_MEASURE(0.01),#1549,
'DISTANCE_ACCURACY_VALUE',
'Maximum model space distance between geometric entities at asserted c
onnectivities');
#1547=(
GEOMETRIC_REPRESENTATION_CONTEXT(3)
GLOBAL_UNCERTAINTY_ASSIGNED_CONTEXT((#1545))
GLOBAL_UNIT_ASSIGNED_CONTEXT((#1549,#1551,#1552))
REPRESENTATION_CONTEXT('','3D')
);
#1548=(
GEOMETRIC_REPRESENTATION_CONTEXT(3)
GLOBAL_UNCERTAINTY_ASSIGNED_CONTEXT((#1546))
GLOBAL_UNIT_ASSIGNED_CONTEXT((#1549,#1551,#1552))
REPRESENTATION_CONTEXT('','3D')
);
#1549=(
LENGTH_UNIT()
NAMED_UNIT(*)
SI_UNIT(.MILLI.,.METRE.)
);
#1550=(
LENGTH_UNIT()
NAMED_UNIT(*)
SI_UNIT($,.METRE.)
);
#1551=(
NAMED_UNIT(*)
PLANE_ANGLE_UNIT()
SI_UNIT($,.RADIAN.)
);
#1552=(
NAMED_UNIT(*)
SI_UNIT($,.STERADIAN.)
SOLID_ANGLE_UNIT()
);
#1553=SHAPE_DEFINITION_REPRESENTATION(#1554,#1555);
#1554=PRODUCT_DEFINITION_SHAPE('',$,#1557);
#1555=SHAPE_REPRESENTATION('',(#925),#1547);
#1556=PRODUCT_DEFINITION_CONTEXT('part definition',#1561,'design');
#1557=PRODUCT_DEFINITION('SpoilBoard','SpoilBoard v2',#1558,#1556);
#1558=PRODUCT_DEFINITION_FORMATION('',$,#1563);
#1559=PRODUCT_RELATED_PRODUCT_CATEGORY('SpoilBoard v2','SpoilBoard v2',
(#1563));
#1560=APPLICATION_PROTOCOL_DEFINITION('international standard',
'automotive_design',2009,#1561);
#1561=APPLICATION_CONTEXT(
'Core Data for Automotive Mechanical Design Process');
#1562=PRODUCT_CONTEXT('part definition',#1561,'mechanical');
#1563=PRODUCT('SpoilBoard','SpoilBoard v2',$,(#1562));
#1564=PRESENTATION_STYLE_ASSIGNMENT((#1566));
#1565=PRESENTATION_STYLE_ASSIGNMENT((#1567));
#1566=SURFACE_STYLE_USAGE(.BOTH.,#1568);
#1567=SURFACE_STYLE_USAGE(.BOTH.,#1569);
#1568=SURFACE_SIDE_STYLE('',(#1570));
#1569=SURFACE_SIDE_STYLE('',(#1571));
#1570=SURFACE_STYLE_FILL_AREA(#1572);
#1571=SURFACE_STYLE_FILL_AREA(#1573);
#1572=FILL_AREA_STYLE('Steel - Satin',(#1574));
#1573=FILL_AREA_STYLE('Pine',(#1575));
#1574=FILL_AREA_STYLE_COLOUR('Steel - Satin',#1576);
#1575=FILL_AREA_STYLE_COLOUR('Pine',#1577);
#1576=COLOUR_RGB('Steel - Satin',0.627450980392157,0.627450980392157,0.627450980392157);
#1577=COLOUR_RGB('Pine',0.,0.,0.);
ENDSEC;
END-ISO-10303-21;
