ISO-10303-21;
HEADER;
/* Generated by software containing ST-Developer
 * from STEP Tools, Inc. (www.steptools.com) 
 */

FILE_DESCRIPTION(
/* description */ (''),
/* implementation_level */ '2;1');

FILE_NAME(
/* name */ 'Z Axis Mount.step',
/* time_stamp */ '2026-05-05T23:30:48-07:00',
/* author */ (''),
/* organization */ (''),
/* preprocessor_version */ 'ST-DEVELOPER v20.1',
/* originating_system */ 'Autodesk Translation Framework v15.8.0.0',
/* authorisation */ '');

FILE_SCHEMA (('AUTOMOTIVE_DESIGN { 1 0 10303 214 3 1 1 }'));
ENDSEC;

DATA;
#10=MECHANICAL_DESIGN_GEOMETRIC_PRESENTATION_REPRESENTATION('',(#13),#726);
#11=SHAPE_REPRESENTATION_RELATIONSHIP('SRR','None',#733,#12);
#12=ADVANCED_BREP_SHAPE_REPRESENTATION('',(#14),#725);
#13=STYLED_ITEM('',(#742),#14);
#14=MANIFOLD_SOLID_BREP('Body1',#418);
#15=FACE_BOUND('',#74,.T.);
#16=FACE_BOUND('',#77,.T.);
#17=FACE_BOUND('',#79,.T.);
#18=FACE_BOUND('',#80,.T.);
#19=FACE_BOUND('',#81,.T.);
#20=FACE_BOUND('',#82,.T.);
#21=FACE_BOUND('',#83,.T.);
#22=FACE_BOUND('',#84,.T.);
#23=FACE_BOUND('',#85,.T.);
#24=FACE_BOUND('',#92,.T.);
#25=FACE_BOUND('',#95,.T.);
#26=FACE_BOUND('',#98,.T.);
#27=FACE_BOUND('',#102,.T.);
#28=FACE_BOUND('',#110,.T.);
#29=FACE_BOUND('',#111,.T.);
#30=FACE_BOUND('',#112,.T.);
#31=FACE_BOUND('',#113,.T.);
#32=FACE_BOUND('',#114,.T.);
#33=FACE_BOUND('',#115,.T.);
#34=FACE_BOUND('',#116,.T.);
#35=PLANE('',#435);
#36=PLANE('',#440);
#37=PLANE('',#442);
#38=PLANE('',#459);
#39=PLANE('',#463);
#40=PLANE('',#467);
#41=PLANE('',#473);
#42=PLANE('',#474);
#43=PLANE('',#479);
#44=PLANE('',#480);
#45=PLANE('',#481);
#46=PLANE('',#482);
#47=FACE_OUTER_BOUND('',#72,.T.);
#48=FACE_OUTER_BOUND('',#73,.T.);
#49=FACE_OUTER_BOUND('',#75,.T.);
#50=FACE_OUTER_BOUND('',#76,.T.);
#51=FACE_OUTER_BOUND('',#78,.T.);
#52=FACE_OUTER_BOUND('',#86,.T.);
#53=FACE_OUTER_BOUND('',#87,.T.);
#54=FACE_OUTER_BOUND('',#88,.T.);
#55=FACE_OUTER_BOUND('',#89,.T.);
#56=FACE_OUTER_BOUND('',#90,.T.);
#57=FACE_OUTER_BOUND('',#91,.T.);
#58=FACE_OUTER_BOUND('',#93,.T.);
#59=FACE_OUTER_BOUND('',#94,.T.);
#60=FACE_OUTER_BOUND('',#96,.T.);
#61=FACE_OUTER_BOUND('',#97,.T.);
#62=FACE_OUTER_BOUND('',#99,.T.);
#63=FACE_OUTER_BOUND('',#100,.T.);
#64=FACE_OUTER_BOUND('',#101,.T.);
#65=FACE_OUTER_BOUND('',#103,.T.);
#66=FACE_OUTER_BOUND('',#104,.T.);
#67=FACE_OUTER_BOUND('',#105,.T.);
#68=FACE_OUTER_BOUND('',#106,.T.);
#69=FACE_OUTER_BOUND('',#107,.T.);
#70=FACE_OUTER_BOUND('',#108,.T.);
#71=FACE_OUTER_BOUND('',#109,.T.);
#72=EDGE_LOOP('',(#278,#279,#280,#281));
#73=EDGE_LOOP('',(#282));
#74=EDGE_LOOP('',(#283));
#75=EDGE_LOOP('',(#284,#285,#286,#287));
#76=EDGE_LOOP('',(#288));
#77=EDGE_LOOP('',(#289));
#78=EDGE_LOOP('',(#290,#291,#292,#293));
#79=EDGE_LOOP('',(#294));
#80=EDGE_LOOP('',(#295));
#81=EDGE_LOOP('',(#296));
#82=EDGE_LOOP('',(#297));
#83=EDGE_LOOP('',(#298));
#84=EDGE_LOOP('',(#299));
#85=EDGE_LOOP('',(#300));
#86=EDGE_LOOP('',(#301,#302,#303,#304));
#87=EDGE_LOOP('',(#305,#306,#307,#308));
#88=EDGE_LOOP('',(#309,#310,#311,#312));
#89=EDGE_LOOP('',(#313,#314,#315,#316));
#90=EDGE_LOOP('',(#317,#318,#319,#320));
#91=EDGE_LOOP('',(#321));
#92=EDGE_LOOP('',(#322));
#93=EDGE_LOOP('',(#323,#324,#325,#326));
#94=EDGE_LOOP('',(#327));
#95=EDGE_LOOP('',(#328));
#96=EDGE_LOOP('',(#329,#330,#331,#332));
#97=EDGE_LOOP('',(#333));
#98=EDGE_LOOP('',(#334));
#99=EDGE_LOOP('',(#335,#336,#337,#338));
#100=EDGE_LOOP('',(#339,#340,#341,#342));
#101=EDGE_LOOP('',(#343));
#102=EDGE_LOOP('',(#344));
#103=EDGE_LOOP('',(#345,#346,#347,#348));
#104=EDGE_LOOP('',(#349,#350,#351,#352));
#105=EDGE_LOOP('',(#353,#354,#355,#356));
#106=EDGE_LOOP('',(#357,#358,#359,#360));
#107=EDGE_LOOP('',(#361,#362,#363,#364));
#108=EDGE_LOOP('',(#365,#366,#367,#368));
#109=EDGE_LOOP('',(#369,#370,#371,#372));
#110=EDGE_LOOP('',(#373));
#111=EDGE_LOOP('',(#374));
#112=EDGE_LOOP('',(#375));
#113=EDGE_LOOP('',(#376));
#114=EDGE_LOOP('',(#377));
#115=EDGE_LOOP('',(#378));
#116=EDGE_LOOP('',(#379));
#117=LINE('',#617,#142);
#118=LINE('',#626,#143);
#119=LINE('',#634,#144);
#120=LINE('',#636,#145);
#121=LINE('',#638,#146);
#122=LINE('',#639,#147);
#123=LINE('',#653,#148);
#124=LINE('',#657,#149);
#125=LINE('',#661,#150);
#126=LINE('',#665,#151);
#127=LINE('',#670,#152);
#128=LINE('',#677,#153);
#129=LINE('',#684,#154);
#130=LINE('',#690,#155);
#131=LINE('',#695,#156);
#132=LINE('',#701,#157);
#133=LINE('',#702,#158);
#134=LINE('',#703,#159);
#135=LINE('',#706,#160);
#136=LINE('',#710,#161);
#137=LINE('',#714,#162);
#138=LINE('',#715,#163);
#139=LINE('',#718,#164);
#140=LINE('',#719,#165);
#141=LINE('',#721,#166);
#142=VECTOR('',#489,3.75);
#143=VECTOR('',#500,3.75);
#144=VECTOR('',#509,10.);
#145=VECTOR('',#510,10.);
#146=VECTOR('',#511,10.);
#147=VECTOR('',#512,10.);
#148=VECTOR('',#527,1.6);
#149=VECTOR('',#532,1.6);
#150=VECTOR('',#537,1.6);
#151=VECTOR('',#542,1.6);
#152=VECTOR('',#547,3.);
#153=VECTOR('',#556,3.);
#154=VECTOR('',#565,3.);
#155=VECTOR('',#574,11.5);
#156=VECTOR('',#579,3.);
#157=VECTOR('',#586,10.);
#158=VECTOR('',#587,10.);
#159=VECTOR('',#588,10.);
#160=VECTOR('',#591,2.1);
#161=VECTOR('',#596,2.1);
#162=VECTOR('',#601,10.);
#163=VECTOR('',#602,10.);
#164=VECTOR('',#605,10.);
#165=VECTOR('',#606,10.);
#166=VECTOR('',#609,10.);
#167=CIRCLE('',#433,3.75);
#168=CIRCLE('',#434,3.75);
#169=CIRCLE('',#436,2.1);
#170=CIRCLE('',#438,3.75);
#171=CIRCLE('',#439,3.75);
#172=CIRCLE('',#441,2.1);
#173=CIRCLE('',#443,11.5);
#174=CIRCLE('',#444,1.6);
#175=CIRCLE('',#445,1.6);
#176=CIRCLE('',#446,1.6);
#177=CIRCLE('',#447,1.6);
#178=CIRCLE('',#449,1.6);
#179=CIRCLE('',#451,1.6);
#180=CIRCLE('',#453,1.6);
#181=CIRCLE('',#455,1.6);
#182=CIRCLE('',#457,3.);
#183=CIRCLE('',#458,3.);
#184=CIRCLE('',#461,3.);
#185=CIRCLE('',#462,3.);
#186=CIRCLE('',#465,3.);
#187=CIRCLE('',#466,3.);
#188=CIRCLE('',#469,11.5);
#189=CIRCLE('',#471,3.);
#190=CIRCLE('',#472,3.);
#191=CIRCLE('',#476,2.1);
#192=CIRCLE('',#478,2.1);
#193=VERTEX_POINT('',#614);
#194=VERTEX_POINT('',#616);
#195=VERTEX_POINT('',#620);
#196=VERTEX_POINT('',#623);
#197=VERTEX_POINT('',#625);
#198=VERTEX_POINT('',#629);
#199=VERTEX_POINT('',#632);
#200=VERTEX_POINT('',#633);
#201=VERTEX_POINT('',#635);
#202=VERTEX_POINT('',#637);
#203=VERTEX_POINT('',#640);
#204=VERTEX_POINT('',#642);
#205=VERTEX_POINT('',#644);
#206=VERTEX_POINT('',#646);
#207=VERTEX_POINT('',#648);
#208=VERTEX_POINT('',#651);
#209=VERTEX_POINT('',#655);
#210=VERTEX_POINT('',#659);
#211=VERTEX_POINT('',#663);
#212=VERTEX_POINT('',#667);
#213=VERTEX_POINT('',#669);
#214=VERTEX_POINT('',#674);
#215=VERTEX_POINT('',#676);
#216=VERTEX_POINT('',#681);
#217=VERTEX_POINT('',#683);
#218=VERTEX_POINT('',#688);
#219=VERTEX_POINT('',#692);
#220=VERTEX_POINT('',#694);
#221=VERTEX_POINT('',#699);
#222=VERTEX_POINT('',#700);
#223=VERTEX_POINT('',#705);
#224=VERTEX_POINT('',#709);
#225=VERTEX_POINT('',#713);
#226=VERTEX_POINT('',#717);
#227=EDGE_CURVE('',#193,#193,#167,.T.);
#228=EDGE_CURVE('',#193,#194,#117,.T.);
#229=EDGE_CURVE('',#194,#194,#168,.T.);
#230=EDGE_CURVE('',#195,#195,#169,.T.);
#231=EDGE_CURVE('',#196,#196,#170,.T.);
#232=EDGE_CURVE('',#196,#197,#118,.T.);
#233=EDGE_CURVE('',#197,#197,#171,.T.);
#234=EDGE_CURVE('',#198,#198,#172,.T.);
#235=EDGE_CURVE('',#199,#200,#119,.T.);
#236=EDGE_CURVE('',#200,#201,#120,.T.);
#237=EDGE_CURVE('',#201,#202,#121,.T.);
#238=EDGE_CURVE('',#202,#199,#122,.T.);
#239=EDGE_CURVE('',#203,#203,#173,.T.);
#240=EDGE_CURVE('',#204,#204,#174,.T.);
#241=EDGE_CURVE('',#205,#205,#175,.T.);
#242=EDGE_CURVE('',#206,#206,#176,.T.);
#243=EDGE_CURVE('',#207,#207,#177,.T.);
#244=EDGE_CURVE('',#208,#208,#178,.T.);
#245=EDGE_CURVE('',#208,#204,#123,.T.);
#246=EDGE_CURVE('',#209,#209,#179,.T.);
#247=EDGE_CURVE('',#209,#205,#124,.T.);
#248=EDGE_CURVE('',#210,#210,#180,.T.);
#249=EDGE_CURVE('',#210,#206,#125,.T.);
#250=EDGE_CURVE('',#211,#211,#181,.T.);
#251=EDGE_CURVE('',#211,#207,#126,.T.);
#252=EDGE_CURVE('',#212,#212,#182,.T.);
#253=EDGE_CURVE('',#212,#213,#127,.T.);
#254=EDGE_CURVE('',#213,#213,#183,.T.);
#255=EDGE_CURVE('',#214,#214,#184,.T.);
#256=EDGE_CURVE('',#214,#215,#128,.T.);
#257=EDGE_CURVE('',#215,#215,#185,.T.);
#258=EDGE_CURVE('',#216,#216,#186,.T.);
#259=EDGE_CURVE('',#216,#217,#129,.T.);
#260=EDGE_CURVE('',#217,#217,#187,.T.);
#261=EDGE_CURVE('',#218,#218,#188,.T.);
#262=EDGE_CURVE('',#218,#203,#130,.T.);
#263=EDGE_CURVE('',#219,#219,#189,.T.);
#264=EDGE_CURVE('',#219,#220,#131,.T.);
#265=EDGE_CURVE('',#220,#220,#190,.T.);
#266=EDGE_CURVE('',#221,#222,#132,.T.);
#267=EDGE_CURVE('',#222,#202,#133,.T.);
#268=EDGE_CURVE('',#221,#201,#134,.T.);
#269=EDGE_CURVE('',#195,#223,#135,.T.);
#270=EDGE_CURVE('',#223,#223,#191,.T.);
#271=EDGE_CURVE('',#198,#224,#136,.T.);
#272=EDGE_CURVE('',#224,#224,#192,.T.);
#273=EDGE_CURVE('',#225,#222,#137,.T.);
#274=EDGE_CURVE('',#225,#199,#138,.T.);
#275=EDGE_CURVE('',#221,#226,#139,.T.);
#276=EDGE_CURVE('',#226,#200,#140,.T.);
#277=EDGE_CURVE('',#226,#225,#141,.T.);
#278=ORIENTED_EDGE('',*,*,#227,.F.);
#279=ORIENTED_EDGE('',*,*,#228,.T.);
#280=ORIENTED_EDGE('',*,*,#229,.T.);
#281=ORIENTED_EDGE('',*,*,#228,.F.);
#282=ORIENTED_EDGE('',*,*,#229,.F.);
#283=ORIENTED_EDGE('',*,*,#230,.F.);
#284=ORIENTED_EDGE('',*,*,#231,.F.);
#285=ORIENTED_EDGE('',*,*,#232,.T.);
#286=ORIENTED_EDGE('',*,*,#233,.T.);
#287=ORIENTED_EDGE('',*,*,#232,.F.);
#288=ORIENTED_EDGE('',*,*,#233,.F.);
#289=ORIENTED_EDGE('',*,*,#234,.F.);
#290=ORIENTED_EDGE('',*,*,#235,.T.);
#291=ORIENTED_EDGE('',*,*,#236,.T.);
#292=ORIENTED_EDGE('',*,*,#237,.T.);
#293=ORIENTED_EDGE('',*,*,#238,.T.);
#294=ORIENTED_EDGE('',*,*,#227,.T.);
#295=ORIENTED_EDGE('',*,*,#231,.T.);
#296=ORIENTED_EDGE('',*,*,#239,.T.);
#297=ORIENTED_EDGE('',*,*,#240,.T.);
#298=ORIENTED_EDGE('',*,*,#241,.T.);
#299=ORIENTED_EDGE('',*,*,#242,.T.);
#300=ORIENTED_EDGE('',*,*,#243,.T.);
#301=ORIENTED_EDGE('',*,*,#244,.F.);
#302=ORIENTED_EDGE('',*,*,#245,.T.);
#303=ORIENTED_EDGE('',*,*,#240,.F.);
#304=ORIENTED_EDGE('',*,*,#245,.F.);
#305=ORIENTED_EDGE('',*,*,#246,.F.);
#306=ORIENTED_EDGE('',*,*,#247,.T.);
#307=ORIENTED_EDGE('',*,*,#241,.F.);
#308=ORIENTED_EDGE('',*,*,#247,.F.);
#309=ORIENTED_EDGE('',*,*,#248,.F.);
#310=ORIENTED_EDGE('',*,*,#249,.T.);
#311=ORIENTED_EDGE('',*,*,#242,.F.);
#312=ORIENTED_EDGE('',*,*,#249,.F.);
#313=ORIENTED_EDGE('',*,*,#250,.F.);
#314=ORIENTED_EDGE('',*,*,#251,.T.);
#315=ORIENTED_EDGE('',*,*,#243,.F.);
#316=ORIENTED_EDGE('',*,*,#251,.F.);
#317=ORIENTED_EDGE('',*,*,#252,.F.);
#318=ORIENTED_EDGE('',*,*,#253,.T.);
#319=ORIENTED_EDGE('',*,*,#254,.T.);
#320=ORIENTED_EDGE('',*,*,#253,.F.);
#321=ORIENTED_EDGE('',*,*,#254,.F.);
#322=ORIENTED_EDGE('',*,*,#246,.T.);
#323=ORIENTED_EDGE('',*,*,#255,.F.);
#324=ORIENTED_EDGE('',*,*,#256,.T.);
#325=ORIENTED_EDGE('',*,*,#257,.T.);
#326=ORIENTED_EDGE('',*,*,#256,.F.);
#327=ORIENTED_EDGE('',*,*,#257,.F.);
#328=ORIENTED_EDGE('',*,*,#248,.T.);
#329=ORIENTED_EDGE('',*,*,#258,.F.);
#330=ORIENTED_EDGE('',*,*,#259,.T.);
#331=ORIENTED_EDGE('',*,*,#260,.T.);
#332=ORIENTED_EDGE('',*,*,#259,.F.);
#333=ORIENTED_EDGE('',*,*,#260,.F.);
#334=ORIENTED_EDGE('',*,*,#250,.T.);
#335=ORIENTED_EDGE('',*,*,#261,.F.);
#336=ORIENTED_EDGE('',*,*,#262,.T.);
#337=ORIENTED_EDGE('',*,*,#239,.F.);
#338=ORIENTED_EDGE('',*,*,#262,.F.);
#339=ORIENTED_EDGE('',*,*,#263,.F.);
#340=ORIENTED_EDGE('',*,*,#264,.T.);
#341=ORIENTED_EDGE('',*,*,#265,.T.);
#342=ORIENTED_EDGE('',*,*,#264,.F.);
#343=ORIENTED_EDGE('',*,*,#265,.F.);
#344=ORIENTED_EDGE('',*,*,#244,.T.);
#345=ORIENTED_EDGE('',*,*,#266,.T.);
#346=ORIENTED_EDGE('',*,*,#267,.T.);
#347=ORIENTED_EDGE('',*,*,#237,.F.);
#348=ORIENTED_EDGE('',*,*,#268,.F.);
#349=ORIENTED_EDGE('',*,*,#230,.T.);
#350=ORIENTED_EDGE('',*,*,#269,.T.);
#351=ORIENTED_EDGE('',*,*,#270,.T.);
#352=ORIENTED_EDGE('',*,*,#269,.F.);
#353=ORIENTED_EDGE('',*,*,#234,.T.);
#354=ORIENTED_EDGE('',*,*,#271,.T.);
#355=ORIENTED_EDGE('',*,*,#272,.T.);
#356=ORIENTED_EDGE('',*,*,#271,.F.);
#357=ORIENTED_EDGE('',*,*,#273,.F.);
#358=ORIENTED_EDGE('',*,*,#274,.T.);
#359=ORIENTED_EDGE('',*,*,#238,.F.);
#360=ORIENTED_EDGE('',*,*,#267,.F.);
#361=ORIENTED_EDGE('',*,*,#275,.F.);
#362=ORIENTED_EDGE('',*,*,#268,.T.);
#363=ORIENTED_EDGE('',*,*,#236,.F.);
#364=ORIENTED_EDGE('',*,*,#276,.F.);
#365=ORIENTED_EDGE('',*,*,#277,.F.);
#366=ORIENTED_EDGE('',*,*,#276,.T.);
#367=ORIENTED_EDGE('',*,*,#235,.F.);
#368=ORIENTED_EDGE('',*,*,#274,.F.);
#369=ORIENTED_EDGE('',*,*,#277,.T.);
#370=ORIENTED_EDGE('',*,*,#273,.T.);
#371=ORIENTED_EDGE('',*,*,#266,.F.);
#372=ORIENTED_EDGE('',*,*,#275,.T.);
#373=ORIENTED_EDGE('',*,*,#252,.T.);
#374=ORIENTED_EDGE('',*,*,#255,.T.);
#375=ORIENTED_EDGE('',*,*,#258,.T.);
#376=ORIENTED_EDGE('',*,*,#261,.T.);
#377=ORIENTED_EDGE('',*,*,#263,.T.);
#378=ORIENTED_EDGE('',*,*,#272,.F.);
#379=ORIENTED_EDGE('',*,*,#270,.F.);
#380=CYLINDRICAL_SURFACE('',#432,3.75);
#381=CYLINDRICAL_SURFACE('',#437,3.75);
#382=CYLINDRICAL_SURFACE('',#448,1.6);
#383=CYLINDRICAL_SURFACE('',#450,1.6);
#384=CYLINDRICAL_SURFACE('',#452,1.6);
#385=CYLINDRICAL_SURFACE('',#454,1.6);
#386=CYLINDRICAL_SURFACE('',#456,3.);
#387=CYLINDRICAL_SURFACE('',#460,3.);
#388=CYLINDRICAL_SURFACE('',#464,3.);
#389=CYLINDRICAL_SURFACE('',#468,11.5);
#390=CYLINDRICAL_SURFACE('',#470,3.);
#391=CYLINDRICAL_SURFACE('',#475,2.1);
#392=CYLINDRICAL_SURFACE('',#477,2.1);
#393=ADVANCED_FACE('',(#47),#380,.F.);
#394=ADVANCED_FACE('',(#48,#15),#35,.T.);
#395=ADVANCED_FACE('',(#49),#381,.F.);
#396=ADVANCED_FACE('',(#50,#16),#36,.T.);
#397=ADVANCED_FACE('',(#51,#17,#18,#19,#20,#21,#22,#23),#37,.T.);
#398=ADVANCED_FACE('',(#52),#382,.F.);
#399=ADVANCED_FACE('',(#53),#383,.F.);
#400=ADVANCED_FACE('',(#54),#384,.F.);
#401=ADVANCED_FACE('',(#55),#385,.F.);
#402=ADVANCED_FACE('',(#56),#386,.F.);
#403=ADVANCED_FACE('',(#57,#24),#38,.T.);
#404=ADVANCED_FACE('',(#58),#387,.F.);
#405=ADVANCED_FACE('',(#59,#25),#39,.T.);
#406=ADVANCED_FACE('',(#60),#388,.F.);
#407=ADVANCED_FACE('',(#61,#26),#40,.T.);
#408=ADVANCED_FACE('',(#62),#389,.F.);
#409=ADVANCED_FACE('',(#63),#390,.F.);
#410=ADVANCED_FACE('',(#64,#27),#41,.T.);
#411=ADVANCED_FACE('',(#65),#42,.T.);
#412=ADVANCED_FACE('',(#66),#391,.F.);
#413=ADVANCED_FACE('',(#67),#392,.F.);
#414=ADVANCED_FACE('',(#68),#43,.T.);
#415=ADVANCED_FACE('',(#69),#44,.T.);
#416=ADVANCED_FACE('',(#70),#45,.T.);
#417=ADVANCED_FACE('',(#71,#28,#29,#30,#31,#32,#33,#34),#46,.F.);
#418=CLOSED_SHELL('',(#393,#394,#395,#396,#397,#398,#399,#400,#401,#402,
#403,#404,#405,#406,#407,#408,#409,#410,#411,#412,#413,#414,#415,#416,#417));
#419=DERIVED_UNIT_ELEMENT(#421,1.);
#420=DERIVED_UNIT_ELEMENT(#728,-3.);
#421=(
MASS_UNIT()
NAMED_UNIT(*)
SI_UNIT(.KILO.,.GRAM.)
);
#422=DERIVED_UNIT((#419,#420));
#423=MEASURE_REPRESENTATION_ITEM('density measure',
POSITIVE_RATIO_MEASURE(1060.),#422);
#424=PROPERTY_DEFINITION_REPRESENTATION(#429,#426);
#425=PROPERTY_DEFINITION_REPRESENTATION(#430,#427);
#426=REPRESENTATION('material name',(#428),#725);
#427=REPRESENTATION('density',(#423),#725);
#428=DESCRIPTIVE_REPRESENTATION_ITEM('ABS Plastic','ABS Plastic');
#429=PROPERTY_DEFINITION('material property','material name',#735);
#430=PROPERTY_DEFINITION('material property','density of part',#735);
#431=AXIS2_PLACEMENT_3D('',#612,#483,#484);
#432=AXIS2_PLACEMENT_3D('',#613,#485,#486);
#433=AXIS2_PLACEMENT_3D('',#615,#487,#488);
#434=AXIS2_PLACEMENT_3D('',#618,#490,#491);
#435=AXIS2_PLACEMENT_3D('',#619,#492,#493);
#436=AXIS2_PLACEMENT_3D('',#621,#494,#495);
#437=AXIS2_PLACEMENT_3D('',#622,#496,#497);
#438=AXIS2_PLACEMENT_3D('',#624,#498,#499);
#439=AXIS2_PLACEMENT_3D('',#627,#501,#502);
#440=AXIS2_PLACEMENT_3D('',#628,#503,#504);
#441=AXIS2_PLACEMENT_3D('',#630,#505,#506);
#442=AXIS2_PLACEMENT_3D('',#631,#507,#508);
#443=AXIS2_PLACEMENT_3D('',#641,#513,#514);
#444=AXIS2_PLACEMENT_3D('',#643,#515,#516);
#445=AXIS2_PLACEMENT_3D('',#645,#517,#518);
#446=AXIS2_PLACEMENT_3D('',#647,#519,#520);
#447=AXIS2_PLACEMENT_3D('',#649,#521,#522);
#448=AXIS2_PLACEMENT_3D('',#650,#523,#524);
#449=AXIS2_PLACEMENT_3D('',#652,#525,#526);
#450=AXIS2_PLACEMENT_3D('',#654,#528,#529);
#451=AXIS2_PLACEMENT_3D('',#656,#530,#531);
#452=AXIS2_PLACEMENT_3D('',#658,#533,#534);
#453=AXIS2_PLACEMENT_3D('',#660,#535,#536);
#454=AXIS2_PLACEMENT_3D('',#662,#538,#539);
#455=AXIS2_PLACEMENT_3D('',#664,#540,#541);
#456=AXIS2_PLACEMENT_3D('',#666,#543,#544);
#457=AXIS2_PLACEMENT_3D('',#668,#545,#546);
#458=AXIS2_PLACEMENT_3D('',#671,#548,#549);
#459=AXIS2_PLACEMENT_3D('',#672,#550,#551);
#460=AXIS2_PLACEMENT_3D('',#673,#552,#553);
#461=AXIS2_PLACEMENT_3D('',#675,#554,#555);
#462=AXIS2_PLACEMENT_3D('',#678,#557,#558);
#463=AXIS2_PLACEMENT_3D('',#679,#559,#560);
#464=AXIS2_PLACEMENT_3D('',#680,#561,#562);
#465=AXIS2_PLACEMENT_3D('',#682,#563,#564);
#466=AXIS2_PLACEMENT_3D('',#685,#566,#567);
#467=AXIS2_PLACEMENT_3D('',#686,#568,#569);
#468=AXIS2_PLACEMENT_3D('',#687,#570,#571);
#469=AXIS2_PLACEMENT_3D('',#689,#572,#573);
#470=AXIS2_PLACEMENT_3D('',#691,#575,#576);
#471=AXIS2_PLACEMENT_3D('',#693,#577,#578);
#472=AXIS2_PLACEMENT_3D('',#696,#580,#581);
#473=AXIS2_PLACEMENT_3D('',#697,#582,#583);
#474=AXIS2_PLACEMENT_3D('',#698,#584,#585);
#475=AXIS2_PLACEMENT_3D('',#704,#589,#590);
#476=AXIS2_PLACEMENT_3D('',#707,#592,#593);
#477=AXIS2_PLACEMENT_3D('',#708,#594,#595);
#478=AXIS2_PLACEMENT_3D('',#711,#597,#598);
#479=AXIS2_PLACEMENT_3D('',#712,#599,#600);
#480=AXIS2_PLACEMENT_3D('',#716,#603,#604);
#481=AXIS2_PLACEMENT_3D('',#720,#607,#608);
#482=AXIS2_PLACEMENT_3D('',#722,#610,#611);
#483=DIRECTION('axis',(0.,0.,1.));
#484=DIRECTION('refdir',(1.,0.,0.));
#485=DIRECTION('center_axis',(0.,-1.,0.));
#486=DIRECTION('ref_axis',(-1.,0.,0.));
#487=DIRECTION('center_axis',(0.,-1.,0.));
#488=DIRECTION('ref_axis',(-1.,0.,0.));
#489=DIRECTION('',(0.,-1.,0.));
#490=DIRECTION('center_axis',(0.,-1.,0.));
#491=DIRECTION('ref_axis',(-1.,0.,0.));
#492=DIRECTION('center_axis',(0.,1.,0.));
#493=DIRECTION('ref_axis',(-1.,0.,0.));
#494=DIRECTION('center_axis',(0.,1.,0.));
#495=DIRECTION('ref_axis',(1.,0.,0.));
#496=DIRECTION('center_axis',(0.,-1.,0.));
#497=DIRECTION('ref_axis',(-1.,0.,0.));
#498=DIRECTION('center_axis',(0.,-1.,0.));
#499=DIRECTION('ref_axis',(-1.,0.,0.));
#500=DIRECTION('',(0.,-1.,0.));
#501=DIRECTION('center_axis',(0.,-1.,0.));
#502=DIRECTION('ref_axis',(-1.,0.,0.));
#503=DIRECTION('center_axis',(0.,1.,0.));
#504=DIRECTION('ref_axis',(-1.,0.,0.));
#505=DIRECTION('center_axis',(0.,1.,0.));
#506=DIRECTION('ref_axis',(1.,0.,0.));
#507=DIRECTION('center_axis',(0.,1.,0.));
#508=DIRECTION('ref_axis',(1.,0.,0.));
#509=DIRECTION('',(1.,0.,0.));
#510=DIRECTION('',(0.,0.,-1.));
#511=DIRECTION('',(-1.,0.,0.));
#512=DIRECTION('',(0.,0.,1.));
#513=DIRECTION('center_axis',(0.,-1.,0.));
#514=DIRECTION('ref_axis',(1.,0.,0.));
#515=DIRECTION('center_axis',(0.,-1.,0.));
#516=DIRECTION('ref_axis',(1.,0.,0.));
#517=DIRECTION('center_axis',(0.,-1.,0.));
#518=DIRECTION('ref_axis',(1.,0.,0.));
#519=DIRECTION('center_axis',(0.,-1.,0.));
#520=DIRECTION('ref_axis',(1.,0.,0.));
#521=DIRECTION('center_axis',(0.,-1.,0.));
#522=DIRECTION('ref_axis',(1.,0.,0.));
#523=DIRECTION('center_axis',(0.,1.,0.));
#524=DIRECTION('ref_axis',(1.,0.,0.));
#525=DIRECTION('center_axis',(0.,1.,0.));
#526=DIRECTION('ref_axis',(1.,0.,0.));
#527=DIRECTION('',(0.,1.,0.));
#528=DIRECTION('center_axis',(0.,1.,0.));
#529=DIRECTION('ref_axis',(1.,0.,0.));
#530=DIRECTION('center_axis',(0.,1.,0.));
#531=DIRECTION('ref_axis',(1.,0.,0.));
#532=DIRECTION('',(0.,1.,0.));
#533=DIRECTION('center_axis',(0.,1.,0.));
#534=DIRECTION('ref_axis',(1.,0.,0.));
#535=DIRECTION('center_axis',(0.,1.,0.));
#536=DIRECTION('ref_axis',(1.,0.,0.));
#537=DIRECTION('',(0.,1.,0.));
#538=DIRECTION('center_axis',(0.,1.,0.));
#539=DIRECTION('ref_axis',(1.,0.,0.));
#540=DIRECTION('center_axis',(0.,1.,0.));
#541=DIRECTION('ref_axis',(1.,0.,0.));
#542=DIRECTION('',(0.,1.,0.));
#543=DIRECTION('center_axis',(0.,1.,0.));
#544=DIRECTION('ref_axis',(1.,0.,0.));
#545=DIRECTION('center_axis',(0.,1.,0.));
#546=DIRECTION('ref_axis',(1.,0.,0.));
#547=DIRECTION('',(0.,1.,0.));
#548=DIRECTION('center_axis',(0.,1.,0.));
#549=DIRECTION('ref_axis',(1.,0.,0.));
#550=DIRECTION('center_axis',(0.,-1.,0.));
#551=DIRECTION('ref_axis',(1.,0.,0.));
#552=DIRECTION('center_axis',(0.,1.,0.));
#553=DIRECTION('ref_axis',(1.,0.,0.));
#554=DIRECTION('center_axis',(0.,1.,0.));
#555=DIRECTION('ref_axis',(1.,0.,0.));
#556=DIRECTION('',(0.,1.,0.));
#557=DIRECTION('center_axis',(0.,1.,0.));
#558=DIRECTION('ref_axis',(1.,0.,0.));
#559=DIRECTION('center_axis',(0.,-1.,0.));
#560=DIRECTION('ref_axis',(1.,0.,0.));
#561=DIRECTION('center_axis',(0.,1.,0.));
#562=DIRECTION('ref_axis',(1.,0.,0.));
#563=DIRECTION('center_axis',(0.,1.,0.));
#564=DIRECTION('ref_axis',(1.,0.,0.));
#565=DIRECTION('',(0.,1.,0.));
#566=DIRECTION('center_axis',(0.,1.,0.));
#567=DIRECTION('ref_axis',(1.,0.,0.));
#568=DIRECTION('center_axis',(0.,-1.,0.));
#569=DIRECTION('ref_axis',(1.,0.,0.));
#570=DIRECTION('center_axis',(0.,1.,0.));
#571=DIRECTION('ref_axis',(1.,0.,0.));
#572=DIRECTION('center_axis',(0.,1.,0.));
#573=DIRECTION('ref_axis',(1.,0.,0.));
#574=DIRECTION('',(0.,1.,0.));
#575=DIRECTION('center_axis',(0.,1.,0.));
#576=DIRECTION('ref_axis',(1.,0.,0.));
#577=DIRECTION('center_axis',(0.,1.,0.));
#578=DIRECTION('ref_axis',(1.,0.,0.));
#579=DIRECTION('',(0.,1.,0.));
#580=DIRECTION('center_axis',(0.,1.,0.));
#581=DIRECTION('ref_axis',(1.,0.,0.));
#582=DIRECTION('center_axis',(0.,-1.,0.));
#583=DIRECTION('ref_axis',(1.,0.,0.));
#584=DIRECTION('center_axis',(0.,0.,-1.));
#585=DIRECTION('ref_axis',(-1.,0.,0.));
#586=DIRECTION('',(-1.,0.,0.));
#587=DIRECTION('',(0.,1.,0.));
#588=DIRECTION('',(0.,1.,0.));
#589=DIRECTION('center_axis',(0.,1.,0.));
#590=DIRECTION('ref_axis',(1.,0.,0.));
#591=DIRECTION('',(0.,-1.,0.));
#592=DIRECTION('center_axis',(0.,-1.,0.));
#593=DIRECTION('ref_axis',(1.,0.,0.));
#594=DIRECTION('center_axis',(0.,1.,0.));
#595=DIRECTION('ref_axis',(1.,0.,0.));
#596=DIRECTION('',(0.,-1.,0.));
#597=DIRECTION('center_axis',(0.,-1.,0.));
#598=DIRECTION('ref_axis',(1.,0.,0.));
#599=DIRECTION('center_axis',(-1.,0.,0.));
#600=DIRECTION('ref_axis',(0.,0.,1.));
#601=DIRECTION('',(0.,0.,-1.));
#602=DIRECTION('',(0.,1.,0.));
#603=DIRECTION('center_axis',(1.,0.,0.));
#604=DIRECTION('ref_axis',(0.,0.,-1.));
#605=DIRECTION('',(0.,0.,1.));
#606=DIRECTION('',(0.,1.,0.));
#607=DIRECTION('center_axis',(0.,0.,1.));
#608=DIRECTION('ref_axis',(1.,0.,0.));
#609=DIRECTION('',(-1.,0.,0.));
#610=DIRECTION('center_axis',(0.,1.,0.));
#611=DIRECTION('ref_axis',(1.,0.,0.));
#612=CARTESIAN_POINT('',(0.,0.,0.));
#613=CARTESIAN_POINT('Origin',(30.,10.5,10.));
#614=CARTESIAN_POINT('',(33.75,10.5,10.));
#615=CARTESIAN_POINT('Origin',(30.,10.5,10.));
#616=CARTESIAN_POINT('',(33.75,6.,10.));
#617=CARTESIAN_POINT('',(33.75,10.5,10.));
#618=CARTESIAN_POINT('Origin',(30.,6.,10.));
#619=CARTESIAN_POINT('Origin',(30.,6.,10.));
#620=CARTESIAN_POINT('',(27.9,6.,10.));
#621=CARTESIAN_POINT('Origin',(30.,6.,10.));
#622=CARTESIAN_POINT('Origin',(10.,10.5,10.));
#623=CARTESIAN_POINT('',(13.75,10.5,10.));
#624=CARTESIAN_POINT('Origin',(10.,10.5,10.));
#625=CARTESIAN_POINT('',(13.75,6.,10.));
#626=CARTESIAN_POINT('',(13.75,10.5,10.));
#627=CARTESIAN_POINT('Origin',(10.,6.,10.));
#628=CARTESIAN_POINT('Origin',(10.,6.,10.));
#629=CARTESIAN_POINT('',(7.9,6.,10.));
#630=CARTESIAN_POINT('Origin',(10.,6.,10.));
#631=CARTESIAN_POINT('Origin',(20.,10.5,10.));
#632=CARTESIAN_POINT('',(0.,10.5,20.));
#633=CARTESIAN_POINT('',(40.,10.5,20.));
#634=CARTESIAN_POINT('',(40.,10.5,20.));
#635=CARTESIAN_POINT('',(40.,10.5,-35.));
#636=CARTESIAN_POINT('',(40.,10.5,0.));
#637=CARTESIAN_POINT('',(0.,10.5,-35.));
#638=CARTESIAN_POINT('',(0.,10.5,-35.));
#639=CARTESIAN_POINT('',(0.,10.5,0.));
#640=CARTESIAN_POINT('',(8.5,10.5,-14.));
#641=CARTESIAN_POINT('Origin',(20.,10.5,-14.));
#642=CARTESIAN_POINT('',(33.9,10.5,1.5));
#643=CARTESIAN_POINT('Origin',(35.5,10.5,1.5));
#644=CARTESIAN_POINT('',(2.9,10.5,-29.5));
#645=CARTESIAN_POINT('Origin',(4.5,10.5,-29.5));
#646=CARTESIAN_POINT('',(2.9,10.5,1.5));
#647=CARTESIAN_POINT('Origin',(4.5,10.5,1.5));
#648=CARTESIAN_POINT('',(33.9,10.5,-29.5));
#649=CARTESIAN_POINT('Origin',(35.5,10.5,-29.5));
#650=CARTESIAN_POINT('Origin',(35.5,0.,1.5));
#651=CARTESIAN_POINT('',(33.9,3.,1.5));
#652=CARTESIAN_POINT('Origin',(35.5,3.,1.5));
#653=CARTESIAN_POINT('',(33.9,0.,1.5));
#654=CARTESIAN_POINT('Origin',(4.5,0.,-29.5));
#655=CARTESIAN_POINT('',(2.9,3.,-29.5));
#656=CARTESIAN_POINT('Origin',(4.5,3.,-29.5));
#657=CARTESIAN_POINT('',(2.9,0.,-29.5));
#658=CARTESIAN_POINT('Origin',(4.5,0.,1.5));
#659=CARTESIAN_POINT('',(2.9,3.,1.5));
#660=CARTESIAN_POINT('Origin',(4.5,3.,1.5));
#661=CARTESIAN_POINT('',(2.9,0.,1.5));
#662=CARTESIAN_POINT('Origin',(35.5,0.,-29.5));
#663=CARTESIAN_POINT('',(33.9,3.,-29.5));
#664=CARTESIAN_POINT('Origin',(35.5,3.,-29.5));
#665=CARTESIAN_POINT('',(33.9,0.,-29.5));
#666=CARTESIAN_POINT('Origin',(4.5,0.,-29.5));
#667=CARTESIAN_POINT('',(1.5,0.,-29.5));
#668=CARTESIAN_POINT('Origin',(4.5,0.,-29.5));
#669=CARTESIAN_POINT('',(1.5,3.,-29.5));
#670=CARTESIAN_POINT('',(1.5,0.,-29.5));
#671=CARTESIAN_POINT('Origin',(4.5,3.,-29.5));
#672=CARTESIAN_POINT('Origin',(4.5,3.,-29.5));
#673=CARTESIAN_POINT('Origin',(4.5,0.,1.5));
#674=CARTESIAN_POINT('',(1.5,0.,1.5));
#675=CARTESIAN_POINT('Origin',(4.5,0.,1.5));
#676=CARTESIAN_POINT('',(1.5,3.,1.5));
#677=CARTESIAN_POINT('',(1.5,0.,1.5));
#678=CARTESIAN_POINT('Origin',(4.5,3.,1.5));
#679=CARTESIAN_POINT('Origin',(4.5,3.,1.5));
#680=CARTESIAN_POINT('Origin',(35.5,0.,-29.5));
#681=CARTESIAN_POINT('',(32.5,0.,-29.5));
#682=CARTESIAN_POINT('Origin',(35.5,0.,-29.5));
#683=CARTESIAN_POINT('',(32.5,3.,-29.5));
#684=CARTESIAN_POINT('',(32.5,0.,-29.5));
#685=CARTESIAN_POINT('Origin',(35.5,3.,-29.5));
#686=CARTESIAN_POINT('Origin',(35.5,3.,-29.5));
#687=CARTESIAN_POINT('Origin',(20.,0.,-14.));
#688=CARTESIAN_POINT('',(8.5,0.,-14.));
#689=CARTESIAN_POINT('Origin',(20.,0.,-14.));
#690=CARTESIAN_POINT('',(8.5,0.,-14.));
#691=CARTESIAN_POINT('Origin',(35.5,0.,1.5));
#692=CARTESIAN_POINT('',(32.5,0.,1.5));
#693=CARTESIAN_POINT('Origin',(35.5,0.,1.5));
#694=CARTESIAN_POINT('',(32.5,3.,1.5));
#695=CARTESIAN_POINT('',(32.5,0.,1.5));
#696=CARTESIAN_POINT('Origin',(35.5,3.,1.5));
#697=CARTESIAN_POINT('Origin',(35.5,3.,1.5));
#698=CARTESIAN_POINT('Origin',(40.,0.,-35.));
#699=CARTESIAN_POINT('',(40.,0.,-35.));
#700=CARTESIAN_POINT('',(0.,0.,-35.));
#701=CARTESIAN_POINT('',(0.,0.,-35.));
#702=CARTESIAN_POINT('',(0.,0.,-35.));
#703=CARTESIAN_POINT('',(40.,5.5,-35.));
#704=CARTESIAN_POINT('Origin',(30.,0.,10.));
#705=CARTESIAN_POINT('',(27.9,0.,10.));
#706=CARTESIAN_POINT('',(27.9,0.,10.));
#707=CARTESIAN_POINT('Origin',(30.,0.,10.));
#708=CARTESIAN_POINT('Origin',(10.,0.,10.));
#709=CARTESIAN_POINT('',(7.9,0.,10.));
#710=CARTESIAN_POINT('',(7.9,0.,10.));
#711=CARTESIAN_POINT('Origin',(10.,0.,10.));
#712=CARTESIAN_POINT('Origin',(0.,0.,0.));
#713=CARTESIAN_POINT('',(0.,0.,20.));
#714=CARTESIAN_POINT('',(0.,0.,0.));
#715=CARTESIAN_POINT('',(0.,0.,20.));
#716=CARTESIAN_POINT('Origin',(40.,0.,20.));
#717=CARTESIAN_POINT('',(40.,0.,20.));
#718=CARTESIAN_POINT('',(40.,0.,0.));
#719=CARTESIAN_POINT('',(40.,0.,20.));
#720=CARTESIAN_POINT('Origin',(0.,0.,20.));
#721=CARTESIAN_POINT('',(40.,0.,20.));
#722=CARTESIAN_POINT('Origin',(20.,0.,10.));
#723=UNCERTAINTY_MEASURE_WITH_UNIT(LENGTH_MEASURE(0.01),#727,
'DISTANCE_ACCURACY_VALUE',
'Maximum model space distance between geometric entities at asserted c
onnectivities');
#724=UNCERTAINTY_MEASURE_WITH_UNIT(LENGTH_MEASURE(0.01),#727,
'DISTANCE_ACCURACY_VALUE',
'Maximum model space distance between geometric entities at asserted c
onnectivities');
#725=(
GEOMETRIC_REPRESENTATION_CONTEXT(3)
GLOBAL_UNCERTAINTY_ASSIGNED_CONTEXT((#723))
GLOBAL_UNIT_ASSIGNED_CONTEXT((#727,#729,#730))
REPRESENTATION_CONTEXT('','3D')
);
#726=(
GEOMETRIC_REPRESENTATION_CONTEXT(3)
GLOBAL_UNCERTAINTY_ASSIGNED_CONTEXT((#724))
GLOBAL_UNIT_ASSIGNED_CONTEXT((#727,#729,#730))
REPRESENTATION_CONTEXT('','3D')
);
#727=(
LENGTH_UNIT()
NAMED_UNIT(*)
SI_UNIT(.MILLI.,.METRE.)
);
#728=(
LENGTH_UNIT()
NAMED_UNIT(*)
SI_UNIT($,.METRE.)
);
#729=(
NAMED_UNIT(*)
PLANE_ANGLE_UNIT()
SI_UNIT($,.RADIAN.)
);
#730=(
NAMED_UNIT(*)
SI_UNIT($,.STERADIAN.)
SOLID_ANGLE_UNIT()
);
#731=SHAPE_DEFINITION_REPRESENTATION(#732,#733);
#732=PRODUCT_DEFINITION_SHAPE('',$,#735);
#733=SHAPE_REPRESENTATION('',(#431),#725);
#734=PRODUCT_DEFINITION_CONTEXT('part definition',#739,'design');
#735=PRODUCT_DEFINITION('Z Axis Mount','Z Axis Mount v3',#736,#734);
#736=PRODUCT_DEFINITION_FORMATION('',$,#741);
#737=PRODUCT_RELATED_PRODUCT_CATEGORY('Z Axis Mount v3',
'Z Axis Mount v3',(#741));
#738=APPLICATION_PROTOCOL_DEFINITION('international standard',
'automotive_design',2009,#739);
#739=APPLICATION_CONTEXT(
'Core Data for Automotive Mechanical Design Process');
#740=PRODUCT_CONTEXT('part definition',#739,'mechanical');
#741=PRODUCT('Z Axis Mount','Z Axis Mount v3',$,(#740));
#742=PRESENTATION_STYLE_ASSIGNMENT((#743));
#743=SURFACE_STYLE_USAGE(.BOTH.,#744);
#744=SURFACE_SIDE_STYLE('',(#745));
#745=SURFACE_STYLE_FILL_AREA(#746);
#746=FILL_AREA_STYLE('ABS (White)',(#747));
#747=FILL_AREA_STYLE_COLOUR('ABS (White)',#748);
#748=COLOUR_RGB('ABS (White)',0.964705882352941,0.964705882352941,0.952941176470588);
ENDSEC;
END-ISO-10303-21;
